NotoSansKannada-SemiBold.ufo
<glyph name="exclam.knda" format="2">
  <advance width="310"/>
  <unicode hex="0021"/>
  <outline>
    <contour>
      <point x="215" y="231" type="line"/>
      <point x="240" y="690" type="line"/>
      <point x="71" y="690" type="line"/>
      <point x="96" y="231" type="line"/>
    </contour>
    <contour>
      <point x="69" y="71" type="curve" smooth="yes"/>
      <point x="69" y="13"/>
      <point x="107" y="-12"/>
      <point x="155" y="-12" type="curve" smooth="yes"/>
      <point x="201" y="-12"/>
      <point x="240" y="13"/>
      <point x="240" y="71" type="curve" smooth="yes"/>
      <point x="240" y="132"/>
      <point x="201" y="154"/>
      <point x="155" y="154" type="curve" smooth="yes"/>
      <point x="107" y="154"/>
      <point x="69" y="132"/>
    </contour>
  </outline>
</glyph>
<glyph name="quotedbl.knda" format="2">
  <advance width="473"/>
  <unicode hex="0022"/>
  <outline>
    <contour>
      <point x="85" y="536" type="line"/>
      <point x="181" y="536" type="line"/>
      <point x="201" y="793" type="line"/>
      <point x="65" y="793" type="line"/>
    </contour>
    <contour>
      <point x="291" y="536" type="line"/>
      <point x="387" y="536" type="line"/>
      <point x="407" y="793" type="line"/>
      <point x="271" y="793" type="line"/>
    </contour>
  </outline>
</glyph>
<glyph name="numbersign.knda" format="2">
  <advance width="666"/>
  <unicode hex="0023"/>
  <outline>
    <contour>
      <point x="112" y="0" type="line"/>
      <point x="217" y="0" type="line"/>
      <point x="254" y="191" type="line"/>
      <point x="351" y="191" type="line"/>
      <point x="311" y="0" type="line"/>
      <point x="418" y="0" type="line"/>
      <point x="456" y="191" type="line"/>
      <point x="601" y="191" type="line"/>
      <point x="601" y="290" type="line"/>
      <point x="474" y="290" type="line"/>
      <point x="497" y="399" type="line"/>
      <point x="634" y="399" type="line"/>
      <point x="634" y="500" type="line"/>
      <point x="515" y="500" type="line"/>
      <point x="555" y="690" type="line"/>
      <point x="450" y="690" type="line"/>
      <point x="411" y="500" type="line"/>
      <point x="313" y="500" type="line"/>
      <point x="353" y="690" type="line"/>
      <point x="246" y="690" type="line"/>
      <point x="208" y="500" type="line"/>
      <point x="67" y="500" type="line"/>
      <point x="67" y="399" type="line"/>
      <point x="190" y="399" type="line"/>
      <point x="168" y="290" type="line"/>
      <point x="32" y="290" type="line"/>
      <point x="32" y="191" type="line"/>
      <point x="150" y="191" type="line"/>
    </contour>
    <contour>
      <point x="272" y="290" type="line"/>
      <point x="295" y="399" type="line"/>
      <point x="392" y="399" type="line"/>
      <point x="369" y="290" type="line"/>
    </contour>
  </outline>
</glyph>
<glyph name="percent.knda" format="2">
  <advance width="923"/>
  <unicode hex="0025"/>
  <outline>
    <contour>
      <point x="204" y="0" type="line"/>
      <point x="321" y="0" type="line"/>
      <point x="717" y="690" type="line"/>
      <point x="600" y="690" type="line"/>
    </contour>
    <contour>
      <point x="210" y="276" type="curve" smooth="yes"/>
      <point x="329" y="276"/>
      <point x="381" y="356"/>
      <point x="381" y="490" type="curve" smooth="yes"/>
      <point x="381" y="624"/>
      <point x="322" y="702"/>
      <point x="210" y="702" type="curve" smooth="yes"/>
      <point x="93" y="702"/>
      <point x="42" y="624"/>
      <point x="42" y="490" type="curve" smooth="yes"/>
      <point x="42" y="356"/>
      <point x="100" y="276"/>
    </contour>
    <contour>
      <point x="211" y="377" type="curve" smooth="yes"/>
      <point x="179" y="377"/>
      <point x="165" y="409"/>
      <point x="165" y="489" type="curve" smooth="yes"/>
      <point x="165" y="568"/>
      <point x="179" y="600"/>
      <point x="211" y="600" type="curve" smooth="yes"/>
      <point x="243" y="600"/>
      <point x="258" y="568"/>
      <point x="258" y="489" type="curve" smooth="yes"/>
      <point x="258" y="409"/>
      <point x="243" y="377"/>
    </contour>
    <contour>
      <point x="710" y="-12" type="curve" smooth="yes"/>
      <point x="829" y="-12"/>
      <point x="881" y="68"/>
      <point x="881" y="202" type="curve" smooth="yes"/>
      <point x="881" y="336"/>
      <point x="822" y="414"/>
      <point x="710" y="414" type="curve" smooth="yes"/>
      <point x="593" y="414"/>
      <point x="542" y="336"/>
      <point x="542" y="202" type="curve" smooth="yes"/>
      <point x="542" y="68"/>
      <point x="600" y="-12"/>
    </contour>
    <contour>
      <point x="711" y="89" type="curve" smooth="yes"/>
      <point x="679" y="89"/>
      <point x="665" y="121"/>
      <point x="665" y="201" type="curve" smooth="yes"/>
      <point x="665" y="280"/>
      <point x="679" y="312"/>
      <point x="711" y="312" type="curve" smooth="yes"/>
      <point x="743" y="312"/>
      <point x="758" y="280"/>
      <point x="758" y="201" type="curve" smooth="yes"/>
      <point x="758" y="121"/>
      <point x="743" y="89"/>
    </contour>
  </outline>
</glyph>
<glyph name="quotesingle.knda" format="2">
  <advance width="267"/>
  <unicode hex="0027"/>
  <outline>
    <contour>
      <point x="85" y="536" type="line"/>
      <point x="181" y="536" type="line"/>
      <point x="201" y="793" type="line"/>
      <point x="65" y="793" type="line"/>
    </contour>
  </outline>
</glyph>
<glyph name="parenleft.knda" format="2">
  <advance width="422"/>
  <unicode hex="0028"/>
  <outline>
    <contour>
      <point x="45" y="217" type="curve" smooth="yes"/>
      <point x="45" y="-3"/>
      <point x="108" y="-212"/>
      <point x="231" y="-368" type="curve"/>
      <point x="355" y="-368" type="line"/>
      <point x="239" y="-201"/>
      <point x="176" y="-12"/>
      <point x="176" y="216" type="curve" smooth="yes"/>
      <point x="176" y="444"/>
      <point x="247" y="641"/>
      <point x="354" y="793" type="curve"/>
      <point x="231" y="793" type="line"/>
      <point x="114" y="653"/>
      <point x="45" y="446"/>
    </contour>
  </outline>
</glyph>
<glyph name="parenright.knda" format="2">
  <advance width="422"/>
  <unicode hex="0029"/>
  <outline>
    <contour>
      <point x="377" y="208" type="curve" smooth="yes"/>
      <point x="377" y="429"/>
      <point x="314" y="637"/>
      <point x="191" y="793" type="curve"/>
      <point x="67" y="793" type="line"/>
      <point x="184" y="626"/>
      <point x="247" y="437"/>
      <point x="247" y="209" type="curve" smooth="yes"/>
      <point x="247" y="-19"/>
      <point x="176" y="-216"/>
      <point x="68" y="-368" type="curve"/>
      <point x="191" y="-368" type="line"/>
      <point x="309" y="-228"/>
      <point x="377" y="-21"/>
    </contour>
  </outline>
</glyph>
<glyph name="asterisk.knda" format="2">
  <advance width="555"/>
  <unicode hex="002A"/>
  <outline>
    <contour>
      <point x="341" y="793" type="line"/>
      <point x="213" y="793" type="line"/>
      <point x="233" y="614" type="line"/>
      <point x="55" y="665" type="line"/>
      <point x="36" y="542" type="line"/>
      <point x="201" y="530" type="line"/>
      <point x="93" y="385" type="line"/>
      <point x="208" y="327" type="line"/>
      <point x="275" y="479" type="line"/>
      <point x="351" y="326" type="line"/>
      <point x="462" y="385" type="line"/>
      <point x="353" y="530" type="line"/>
      <point x="519" y="542" type="line"/>
      <point x="503" y="665" type="line"/>
      <point x="321" y="614" type="line"/>
    </contour>
  </outline>
</glyph>
<glyph name="plus.knda" format="2">
  <advance width="572"/>
  <unicode hex="002B"/>
  <outline>
    <contour>
      <point x="232" y="102" type="line"/>
      <point x="339" y="102" type="line"/>
      <point x="339" y="290" type="line"/>
      <point x="528" y="290" type="line"/>
      <point x="528" y="397" type="line"/>
      <point x="339" y="397" type="line"/>
      <point x="339" y="587" type="line"/>
      <point x="232" y="587" type="line"/>
      <point x="232" y="397" type="line"/>
      <point x="43" y="397" type="line"/>
      <point x="43" y="290" type="line"/>
      <point x="232" y="290" type="line"/>
    </contour>
  </outline>
</glyph>
<glyph name="comma.knda" format="2">
  <advance width="319"/>
  <unicode hex="002C"/>
  <outline>
    <contour>
      <point x="247" y="128" type="line"/>
      <point x="110" y="128" type="line"/>
      <point x="101" y="57"/>
      <point x="79" y="-48"/>
      <point x="60" y="-127" type="curve"/>
      <point x="167" y="-127" type="line"/>
      <point x="200" y="-55"/>
      <point x="237" y="46"/>
      <point x="254" y="116" type="curve"/>
    </contour>
  </outline>
</glyph>
<glyph name="hyphen.knda" format="2">
  <advance width="335"/>
  <unicode hex="002D"/>
  <outline>
    <contour>
      <point x="37" y="222" type="line"/>
      <point x="299" y="222" type="line"/>
      <point x="299" y="344" type="line"/>
      <point x="37" y="344" type="line"/>
    </contour>
  </outline>
</glyph>
<glyph name="period.knda" format="2">
  <advance width="285"/>
  <unicode hex="002E"/>
  <outline>
    <contour>
      <point x="57" y="71" type="curve" smooth="yes"/>
      <point x="57" y="13"/>
      <point x="95" y="-12"/>
      <point x="143" y="-12" type="curve" smooth="yes"/>
      <point x="189" y="-12"/>
      <point x="228" y="13"/>
      <point x="228" y="71" type="curve" smooth="yes"/>
      <point x="228" y="132"/>
      <point x="189" y="154"/>
      <point x="143" y="154" type="curve" smooth="yes"/>
      <point x="95" y="154"/>
      <point x="57" y="132"/>
    </contour>
  </outline>
</glyph>
<glyph name="slash.knda" format="2">
  <advance width="557"/>
  <unicode hex="002F"/>
  <outline>
    <contour>
      <point x="474" y="793" type="line"/>
      <point x="349" y="793" type="line"/>
      <point x="83" y="-368" type="line"/>
      <point x="208" y="-368" type="line"/>
    </contour>
  </outline>
</glyph>
<glyph name="zero.knda" format="2">
  <advance width="572"/>
  <unicode hex="0030"/>
  <outline>
    <contour>
      <point x="535" y="345" type="curve" smooth="yes"/>
      <point x="535" y="570"/>
      <point x="456" y="702"/>
      <point x="285" y="702" type="curve" smooth="yes"/>
      <point x="102" y="702"/>
      <point x="36" y="569"/>
      <point x="36" y="345" type="curve" smooth="yes"/>
      <point x="36" y="121"/>
      <point x="113" y="-12"/>
      <point x="285" y="-12" type="curve" smooth="yes"/>
      <point x="468" y="-12"/>
      <point x="535" y="121"/>
    </contour>
    <contour>
      <point x="186" y="345" type="curve" smooth="yes"/>
      <point x="186" y="505"/>
      <point x="209" y="580"/>
      <point x="285" y="580" type="curve" smooth="yes"/>
      <point x="360" y="580"/>
      <point x="385" y="505"/>
      <point x="385" y="345" type="curve" smooth="yes"/>
      <point x="385" y="183"/>
      <point x="360" y="110"/>
      <point x="285" y="110" type="curve" smooth="yes"/>
      <point x="209" y="110"/>
      <point x="186" y="184"/>
    </contour>
  </outline>
</glyph>
<glyph name="one.knda" format="2">
  <advance width="572"/>
  <unicode hex="0031"/>
  <outline>
    <contour>
      <point x="413" y="0" type="line"/>
      <point x="413" y="690" type="line"/>
      <point x="289" y="690" type="line"/>
      <point x="59" y="507" type="line"/>
      <point x="132" y="417" type="line"/>
      <point x="214" y="482" type="line" smooth="yes"/>
      <point x="233" y="498"/>
      <point x="259" y="523"/>
      <point x="266" y="532" type="curve"/>
      <point x="264" y="489"/>
      <point x="262" y="423"/>
      <point x="262" y="390" type="curve" smooth="yes"/>
      <point x="262" y="0" type="line"/>
    </contour>
  </outline>
</glyph>
<glyph name="two.knda" format="2">
  <advance width="572"/>
  <unicode hex="0032"/>
  <outline>
    <contour>
      <point x="539" y="0" type="line"/>
      <point x="539" y="127" type="line"/>
      <point x="228" y="127" type="line"/>
      <point x="228" y="133" type="line"/>
      <point x="319" y="217" type="line" smooth="yes"/>
      <point x="444" y="330"/>
      <point x="519" y="402"/>
      <point x="519" y="516" type="curve" smooth="yes"/>
      <point x="519" y="622"/>
      <point x="433" y="702"/>
      <point x="293" y="702" type="curve" smooth="yes"/>
      <point x="165" y="702"/>
      <point x="99" y="653"/>
      <point x="38" y="600" type="curve"/>
      <point x="120" y="503" type="line"/>
      <point x="177" y="550"/>
      <point x="227" y="576"/>
      <point x="282" y="576" type="curve" smooth="yes"/>
      <point x="335" y="576"/>
      <point x="369" y="549"/>
      <point x="369" y="495" type="curve" smooth="yes"/>
      <point x="369" y="428"/>
      <point x="328" y="385"/>
      <point x="219" y="280" type="curve" smooth="yes"/>
      <point x="40" y="107" type="line"/>
      <point x="40" y="0" type="line"/>
    </contour>
  </outline>
</glyph>
<glyph name="three.knda" format="2">
  <advance width="572"/>
  <unicode hex="0033"/>
  <outline>
    <contour>
      <point x="511" y="537" type="curve" smooth="yes"/>
      <point x="511" y="642"/>
      <point x="419" y="702"/>
      <point x="272" y="702" type="curve" smooth="yes"/>
      <point x="168" y="702"/>
      <point x="102" y="671"/>
      <point x="39" y="632" type="curve"/>
      <point x="109" y="528" type="line"/>
      <point x="143" y="550"/>
      <point x="193" y="580"/>
      <point x="261" y="580" type="curve" smooth="yes"/>
      <point x="334" y="580"/>
      <point x="363" y="551"/>
      <point x="363" y="503" type="curve" smooth="yes"/>
      <point x="363" y="450"/>
      <point x="335" y="413"/>
      <point x="203" y="413" type="curve" smooth="yes"/>
      <point x="148" y="413" type="line"/>
      <point x="148" y="297" type="line"/>
      <point x="202" y="297" type="line" smooth="yes"/>
      <point x="336" y="297"/>
      <point x="374" y="265"/>
      <point x="374" y="209" type="curve" smooth="yes"/>
      <point x="374" y="145"/>
      <point x="336" y="108"/>
      <point x="228" y="108" type="curve" smooth="yes"/>
      <point x="170" y="108"/>
      <point x="99" y="124"/>
      <point x="38" y="155" type="curve"/>
      <point x="38" y="27" type="line"/>
      <point x="98" y="1"/>
      <point x="165" y="-12"/>
      <point x="244" y="-12" type="curve" smooth="yes"/>
      <point x="444" y="-12"/>
      <point x="532" y="79"/>
      <point x="532" y="200" type="curve" smooth="yes"/>
      <point x="532" y="292"/>
      <point x="475" y="347"/>
      <point x="360" y="361" type="curve"/>
      <point x="360" y="364" type="line"/>
      <point x="447" y="384"/>
      <point x="511" y="440"/>
    </contour>
  </outline>
</glyph>
<glyph name="four.knda" format="2">
  <advance width="572"/>
  <unicode hex="0034"/>
  <outline>
    <contour>
      <point x="555" y="143" type="line"/>
      <point x="555" y="260" type="line"/>
      <point x="469" y="260" type="line"/>
      <point x="469" y="690" type="line"/>
      <point x="330" y="690" type="line"/>
      <point x="17" y="248" type="line"/>
      <point x="17" y="143" type="line"/>
      <point x="322" y="143" type="line"/>
      <point x="322" y="0" type="line"/>
      <point x="469" y="0" type="line"/>
      <point x="469" y="143" type="line"/>
    </contour>
    <contour>
      <point x="322" y="260" type="line"/>
      <point x="150" y="260" type="line"/>
      <point x="281" y="449" type="line" smooth="yes"/>
      <point x="299" y="476"/>
      <point x="312" y="500"/>
      <point x="324" y="527" type="curve"/>
      <point x="328" y="527" type="line"/>
      <point x="326" y="507"/>
      <point x="322" y="443"/>
      <point x="322" y="383" type="curve" smooth="yes"/>
    </contour>
  </outline>
</glyph>
<glyph name="five.knda" format="2">
  <advance width="572"/>
  <unicode hex="0035"/>
  <outline>
    <contour>
      <point x="241" y="-12" type="curve" smooth="yes"/>
      <point x="429" y="-12"/>
      <point x="526" y="82"/>
      <point x="526" y="232" type="curve" smooth="yes"/>
      <point x="526" y="369"/>
      <point x="430" y="442"/>
      <point x="300" y="442" type="curve" smooth="yes"/>
      <point x="253" y="442"/>
      <point x="231" y="436"/>
      <point x="209" y="432" type="curve"/>
      <point x="221" y="563" type="line"/>
      <point x="477" y="563" type="line"/>
      <point x="477" y="690" type="line"/>
      <point x="88" y="690" type="line"/>
      <point x="63" y="336" type="line"/>
      <point x="123" y="304" type="line"/>
      <point x="150" y="311"/>
      <point x="194" y="320"/>
      <point x="231" y="320" type="curve" smooth="yes"/>
      <point x="328" y="320"/>
      <point x="374" y="285"/>
      <point x="374" y="218" type="curve" smooth="yes"/>
      <point x="374" y="143"/>
      <point x="325" y="111"/>
      <point x="236" y="111" type="curve" smooth="yes"/>
      <point x="175" y="111"/>
      <point x="98" y="130"/>
      <point x="49" y="156" type="curve"/>
      <point x="49" y="27" type="line"/>
      <point x="98" y="1"/>
      <point x="166" y="-12"/>
    </contour>
  </outline>
</glyph>
<glyph name="six.knda" format="2">
  <advance width="572"/>
  <unicode hex="0036"/>
  <outline>
    <contour>
      <point x="35" y="305" type="curve" smooth="yes"/>
      <point x="35" y="85"/>
      <point x="150" y="-11"/>
      <point x="296" y="-11" type="curve" smooth="yes"/>
      <point x="445" y="-11"/>
      <point x="539" y="79"/>
      <point x="539" y="230" type="curve" smooth="yes"/>
      <point x="539" y="371"/>
      <point x="460" y="450"/>
      <point x="335" y="450" type="curve" smooth="yes"/>
      <point x="255" y="450"/>
      <point x="207" y="415"/>
      <point x="180" y="367" type="curve"/>
      <point x="174" y="367" type="line"/>
      <point x="180" y="498"/>
      <point x="225" y="584"/>
      <point x="403" y="584" type="curve" smooth="yes"/>
      <point x="432" y="584"/>
      <point x="463" y="580"/>
      <point x="489" y="574" type="curve"/>
      <point x="489" y="695" type="line"/>
      <point x="464" y="700"/>
      <point x="421" y="702"/>
      <point x="393" y="702" type="curve" smooth="yes"/>
      <point x="96" y="702"/>
      <point x="35" y="493"/>
    </contour>
    <contour>
      <point x="293" y="109" type="curve" smooth="yes"/>
      <point x="222" y="109"/>
      <point x="185" y="177"/>
      <point x="185" y="240" type="curve" smooth="yes"/>
      <point x="185" y="286"/>
      <point x="229" y="334"/>
      <point x="296" y="334" type="curve" smooth="yes"/>
      <point x="361" y="334"/>
      <point x="393" y="295"/>
      <point x="393" y="228" type="curve" smooth="yes"/>
      <point x="393" y="145"/>
      <point x="352" y="109"/>
    </contour>
  </outline>
</glyph>
<glyph name="seven.knda" format="2">
  <advance width="572"/>
  <unicode hex="0037"/>
  <outline>
    <contour>
      <point x="111" y="0" type="line"/>
      <point x="269" y="0" type="line"/>
      <point x="539" y="596" type="line"/>
      <point x="539" y="690" type="line"/>
      <point x="27" y="690" type="line"/>
      <point x="27" y="563" type="line"/>
      <point x="379" y="563" type="line"/>
    </contour>
  </outline>
</glyph>
<glyph name="eight.knda" format="2">
  <advance width="572"/>
  <unicode hex="0038"/>
  <outline>
    <contour>
      <point x="286" y="702" type="curve" smooth="yes"/>
      <point x="165" y="702"/>
      <point x="57" y="646"/>
      <point x="57" y="536" type="curve" smooth="yes"/>
      <point x="57" y="453"/>
      <point x="108" y="400"/>
      <point x="172" y="361" type="curve"/>
      <point x="96" y="325"/>
      <point x="35" y="270"/>
      <point x="35" y="174" type="curve" smooth="yes"/>
      <point x="35" y="59"/>
      <point x="126" y="-12"/>
      <point x="286" y="-12" type="curve" smooth="yes"/>
      <point x="434" y="-12"/>
      <point x="536" y="62"/>
      <point x="536" y="178" type="curve" smooth="yes"/>
      <point x="536" y="271"/>
      <point x="462" y="326"/>
      <point x="386" y="365" type="curve"/>
      <point x="459" y="400"/>
      <point x="514" y="451"/>
      <point x="514" y="535" type="curve" smooth="yes"/>
      <point x="514" y="647"/>
      <point x="409" y="702"/>
    </contour>
    <contour>
      <point x="175" y="184" type="curve" smooth="yes"/>
      <point x="175" y="236"/>
      <point x="217" y="272"/>
      <point x="279" y="299" type="curve"/>
      <point x="292" y="293" type="line" smooth="yes"/>
      <point x="342" y="269"/>
      <point x="396" y="234"/>
      <point x="396" y="183" type="curve" smooth="yes"/>
      <point x="396" y="131"/>
      <point x="359" y="99"/>
      <point x="284" y="99" type="curve" smooth="yes"/>
      <point x="212" y="99"/>
      <point x="175" y="133"/>
    </contour>
    <contour>
      <point x="285" y="592" type="curve" smooth="yes"/>
      <point x="335" y="592"/>
      <point x="372" y="568"/>
      <point x="372" y="523" type="curve" smooth="yes"/>
      <point x="372" y="474"/>
      <point x="331" y="448"/>
      <point x="286" y="428" type="curve"/>
      <point x="239" y="450"/>
      <point x="199" y="477"/>
      <point x="199" y="523" type="curve" smooth="yes"/>
      <point x="199" y="568"/>
      <point x="236" y="592"/>
    </contour>
  </outline>
</glyph>
<glyph name="nine.knda" format="2">
  <advance width="572"/>
  <unicode hex="0039"/>
  <outline>
    <contour>
      <point x="536" y="397" type="curve" smooth="yes"/>
      <point x="536" y="605"/>
      <point x="421" y="702"/>
      <point x="275" y="702" type="curve" smooth="yes"/>
      <point x="126" y="702"/>
      <point x="32" y="611"/>
      <point x="32" y="460" type="curve" smooth="yes"/>
      <point x="32" y="319"/>
      <point x="111" y="240"/>
      <point x="233" y="240" type="curve" smooth="yes"/>
      <point x="324" y="240"/>
      <point x="363" y="276"/>
      <point x="391" y="323" type="curve"/>
      <point x="397" y="323" type="line"/>
      <point x="391" y="193"/>
      <point x="346" y="106"/>
      <point x="168" y="106" type="curve" smooth="yes"/>
      <point x="138" y="106"/>
      <point x="108" y="110"/>
      <point x="82" y="116" type="curve"/>
      <point x="82" y="-5" type="line"/>
      <point x="107" y="-10"/>
      <point x="150" y="-12"/>
      <point x="178" y="-12" type="curve" smooth="yes"/>
      <point x="475" y="-12"/>
      <point x="536" y="194"/>
    </contour>
    <contour>
      <point x="278" y="581" type="curve" smooth="yes"/>
      <point x="349" y="581"/>
      <point x="386" y="513"/>
      <point x="386" y="450" type="curve" smooth="yes"/>
      <point x="386" y="404"/>
      <point x="342" y="355"/>
      <point x="275" y="355" type="curve" smooth="yes"/>
      <point x="210" y="355"/>
      <point x="178" y="395"/>
      <point x="178" y="462" type="curve" smooth="yes"/>
      <point x="178" y="545"/>
      <point x="219" y="581"/>
    </contour>
  </outline>
</glyph>
<glyph name="colon.knda" format="2">
  <advance width="305"/>
  <unicode hex="003A"/>
  <outline>
    <contour>
      <point x="67" y="71" type="curve" smooth="yes"/>
      <point x="67" y="13"/>
      <point x="105" y="-12"/>
      <point x="153" y="-12" type="curve" smooth="yes"/>
      <point x="199" y="-12"/>
      <point x="238" y="13"/>
      <point x="238" y="71" type="curve" smooth="yes"/>
      <point x="238" y="132"/>
      <point x="199" y="154"/>
      <point x="153" y="154" type="curve" smooth="yes"/>
      <point x="105" y="154"/>
      <point x="67" y="132"/>
    </contour>
    <contour>
      <point x="67" y="376" type="curve" smooth="yes"/>
      <point x="67" y="317"/>
      <point x="105" y="293"/>
      <point x="153" y="293" type="curve" smooth="yes"/>
      <point x="199" y="293"/>
      <point x="238" y="317"/>
      <point x="238" y="376" type="curve" smooth="yes"/>
      <point x="238" y="438"/>
      <point x="199" y="459"/>
      <point x="153" y="459" type="curve" smooth="yes"/>
      <point x="105" y="459"/>
      <point x="67" y="438"/>
    </contour>
  </outline>
</glyph>
<glyph name="semicolon.knda" format="2">
  <advance width="324"/>
  <unicode hex="003B"/>
  <outline>
    <contour>
      <point x="247" y="128" type="line"/>
      <point x="110" y="128" type="line"/>
      <point x="101" y="57"/>
      <point x="79" y="-48"/>
      <point x="60" y="-127" type="curve"/>
      <point x="167" y="-127" type="line"/>
      <point x="200" y="-55"/>
      <point x="237" y="46"/>
      <point x="254" y="116" type="curve"/>
    </contour>
    <contour>
      <point x="86" y="376" type="curve" smooth="yes"/>
      <point x="86" y="317"/>
      <point x="125" y="293"/>
      <point x="172" y="293" type="curve" smooth="yes"/>
      <point x="218" y="293"/>
      <point x="257" y="317"/>
      <point x="257" y="376" type="curve" smooth="yes"/>
      <point x="257" y="438"/>
      <point x="218" y="459"/>
      <point x="172" y="459" type="curve" smooth="yes"/>
      <point x="125" y="459"/>
      <point x="86" y="438"/>
    </contour>
  </outline>
</glyph>
<glyph name="less.knda" format="2">
  <advance width="572"/>
  <unicode hex="003C"/>
  <outline>
    <contour>
      <point x="528" y="90" type="line"/>
      <point x="528" y="207" type="line"/>
      <point x="194" y="344" type="line"/>
      <point x="528" y="499" type="line"/>
      <point x="528" y="616" type="line"/>
      <point x="43" y="374" type="line"/>
      <point x="43" y="304" type="line"/>
    </contour>
  </outline>
</glyph>
<glyph name="equal.knda" format="2">
  <advance width="572"/>
  <unicode hex="003D"/>
  <outline>
    <contour>
      <point x="43" y="385" type="line"/>
      <point x="528" y="385" type="line"/>
      <point x="528" y="491" type="line"/>
      <point x="43" y="491" type="line"/>
    </contour>
    <contour>
      <point x="43" y="195" type="line"/>
      <point x="528" y="195" type="line"/>
      <point x="528" y="302" type="line"/>
      <point x="43" y="302" type="line"/>
    </contour>
  </outline>
</glyph>
<glyph name="greater.knda" format="2">
  <advance width="572"/>
  <unicode hex="003E"/>
  <outline>
    <contour>
      <point x="43" y="90" type="line"/>
      <point x="528" y="304" type="line"/>
      <point x="528" y="374" type="line"/>
      <point x="43" y="616" type="line"/>
      <point x="43" y="499" type="line"/>
      <point x="377" y="344" type="line"/>
      <point x="43" y="207" type="line"/>
    </contour>
  </outline>
</glyph>
<glyph name="question.knda" format="2">
  <advance width="486"/>
  <unicode hex="003F"/>
  <outline>
    <contour>
      <point x="239" y="702" type="curve" smooth="yes"/>
      <point x="155" y="702"/>
      <point x="101" y="687"/>
      <point x="34" y="654" type="curve"/>
      <point x="82" y="547" type="line"/>
      <point x="129" y="572"/>
      <point x="169" y="582"/>
      <point x="215" y="582" type="curve" smooth="yes"/>
      <point x="263" y="582"/>
      <point x="302" y="559"/>
      <point x="302" y="517" type="curve" smooth="yes"/>
      <point x="302" y="474"/>
      <point x="296" y="452"/>
      <point x="238" y="406" type="curve" smooth="yes"/>
      <point x="172" y="354"/>
      <point x="144" y="309"/>
      <point x="144" y="251" type="curve" smooth="yes"/>
      <point x="144" y="231" type="line"/>
      <point x="274" y="231" type="line"/>
      <point x="274" y="244" type="line" smooth="yes"/>
      <point x="274" y="272"/>
      <point x="292" y="294"/>
      <point x="346" y="344" type="curve" smooth="yes"/>
      <point x="416" y="410"/>
      <point x="443" y="443"/>
      <point x="443" y="525" type="curve" smooth="yes"/>
      <point x="443" y="628"/>
      <point x="375" y="702"/>
    </contour>
    <contour>
      <point x="215" y="-13" type="curve" smooth="yes"/>
      <point x="261" y="-13"/>
      <point x="300" y="11"/>
      <point x="300" y="70" type="curve" smooth="yes"/>
      <point x="300" y="131"/>
      <point x="261" y="153"/>
      <point x="215" y="153" type="curve" smooth="yes"/>
      <point x="167" y="153"/>
      <point x="129" y="131"/>
      <point x="129" y="70" type="curve" smooth="yes"/>
      <point x="129" y="11"/>
      <point x="167" y="-13"/>
    </contour>
  </outline>
</glyph>
<glyph name="backslash.knda" format="2">
  <advance width="557"/>
  <unicode hex="005C"/>
  <outline>
    <contour>
      <point x="208" y="793" type="line"/>
      <point x="83" y="793" type="line"/>
      <point x="349" y="-368" type="line"/>
      <point x="474" y="-368" type="line"/>
    </contour>
  </outline>
</glyph>
<glyph name="bracketright.knda" format="2">
  <advance width="399"/>
  <unicode hex="005D"/>
  <outline>
    <contour>
      <point x="85" y="-265" type="line"/>
      <point x="85" y="-368" type="line"/>
      <point x="321" y="-368" type="line"/>
      <point x="321" y="793" type="line"/>
      <point x="85" y="793" type="line"/>
      <point x="85" y="690" type="line"/>
      <point x="194" y="690" type="line"/>
      <point x="194" y="-265" type="line"/>
    </contour>
  </outline>
</glyph>
<glyph name="asciicircum.knda" format="2">
  <advance width="626"/>
  <unicode hex="005E"/>
  <outline>
    <contour>
      <point x="31" y="238" type="line"/>
      <point x="146" y="238" type="line"/>
      <point x="302" y="552" type="line"/>
      <point x="479" y="238" type="line"/>
      <point x="596" y="238" type="line"/>
      <point x="334" y="702" type="line"/>
      <point x="264" y="702" type="line"/>
    </contour>
  </outline>
</glyph>
<glyph name="braceleft.knda" format="2">
  <advance width="385"/>
  <unicode hex="007B"/>
  <outline>
    <contour>
      <point x="349" y="-368" type="curve"/>
      <point x="349" y="-258" type="line"/>
      <point x="296" y="-257"/>
      <point x="275" y="-230"/>
      <point x="275" y="-174" type="curve" smooth="yes"/>
      <point x="275" y="102" type="line" smooth="yes"/>
      <point x="275" y="163"/>
      <point x="235" y="199"/>
      <point x="161" y="210" type="curve"/>
      <point x="161" y="216" type="line"/>
      <point x="235" y="227"/>
      <point x="275" y="263"/>
      <point x="275" y="324" type="curve" smooth="yes"/>
      <point x="275" y="600" type="line" smooth="yes"/>
      <point x="275" y="656"/>
      <point x="296" y="683"/>
      <point x="349" y="684" type="curve"/>
      <point x="349" y="793" type="line"/>
      <point x="178" y="793"/>
      <point x="145" y="724"/>
      <point x="145" y="628" type="curve" smooth="yes"/>
      <point x="145" y="358" type="line" smooth="yes"/>
      <point x="145" y="295"/>
      <point x="101" y="271"/>
      <point x="24" y="271" type="curve"/>
      <point x="24" y="154" type="line"/>
      <point x="101" y="154"/>
      <point x="145" y="130"/>
      <point x="145" y="67" type="curve" smooth="yes"/>
      <point x="145" y="-203" type="line" smooth="yes"/>
      <point x="145" y="-299"/>
      <point x="178" y="-368"/>
    </contour>
  </outline>
</glyph>
<glyph name="bar.knda" format="2">
  <advance width="551"/>
  <unicode hex="007C"/>
  <outline>
    <contour>
      <point x="222" y="793" type="line"/>
      <point x="222" y="-368" type="line"/>
      <point x="329" y="-368" type="line"/>
      <point x="329" y="793" type="line"/>
    </contour>
  </outline>
</glyph>
<glyph name="braceright.knda" format="2">
  <advance width="385"/>
  <unicode hex="007D"/>
  <outline>
    <contour>
      <point x="36" y="793" type="curve"/>
      <point x="36" y="684" type="line"/>
      <point x="88" y="683"/>
      <point x="109" y="656"/>
      <point x="109" y="600" type="curve" smooth="yes"/>
      <point x="109" y="324" type="line" smooth="yes"/>
      <point x="109" y="263"/>
      <point x="149" y="227"/>
      <point x="224" y="216" type="curve"/>
      <point x="224" y="210" type="line"/>
      <point x="149" y="199"/>
      <point x="109" y="163"/>
      <point x="109" y="102" type="curve" smooth="yes"/>
      <point x="109" y="-174" type="line" smooth="yes"/>
      <point x="109" y="-230"/>
      <point x="88" y="-257"/>
      <point x="36" y="-258" type="curve"/>
      <point x="36" y="-368" type="line"/>
      <point x="207" y="-368"/>
      <point x="240" y="-299"/>
      <point x="240" y="-203" type="curve" smooth="yes"/>
      <point x="240" y="67" type="line" smooth="yes"/>
      <point x="240" y="130"/>
      <point x="284" y="154"/>
      <point x="360" y="154" type="curve"/>
      <point x="360" y="271" type="line"/>
      <point x="284" y="271"/>
      <point x="240" y="295"/>
      <point x="240" y="358" type="curve" smooth="yes"/>
      <point x="240" y="628" type="line" smooth="yes"/>
      <point x="240" y="724"/>
      <point x="207" y="793"/>
    </contour>
  </outline>
</glyph>
<glyph name="asciitilde.knda" format="2">
  <advance width="572"/>
  <unicode hex="007E"/>
  <outline>
    <contour>
      <point x="268" y="292" type="curve"/>
      <point x="331" y="266"/>
      <point x="364" y="261"/>
      <point x="403" y="261" type="curve" smooth="yes"/>
      <point x="454" y="261"/>
      <point x="495" y="279"/>
      <point x="528" y="314" type="curve"/>
      <point x="528" y="427" type="line"/>
      <point x="495" y="394"/>
      <point x="452" y="368"/>
      <point x="414" y="368" type="curve" smooth="yes"/>
      <point x="385" y="368"/>
      <point x="352" y="374"/>
      <point x="303" y="395" type="curve" smooth="yes"/>
      <point x="240" y="421"/>
      <point x="207" y="426"/>
      <point x="168" y="426" type="curve" smooth="yes"/>
      <point x="117" y="426"/>
      <point x="76" y="408"/>
      <point x="43" y="373" type="curve"/>
      <point x="43" y="260" type="line"/>
      <point x="76" y="292"/>
      <point x="119" y="319"/>
      <point x="157" y="319" type="curve" smooth="yes"/>
      <point x="187" y="319"/>
      <point x="219" y="313"/>
    </contour>
  </outline>
</glyph>
<glyph name="multiply.knda" format="2">
  <advance width="572"/>
  <unicode hex="00D7"/>
  <outline>
    <contour>
      <point x="433" y="566" type="line"/>
      <point x="284" y="420" type="line"/>
      <point x="137" y="566" type="line"/>
      <point x="63" y="491" type="line"/>
      <point x="209" y="344" type="line"/>
      <point x="64" y="197" type="line"/>
      <point x="137" y="123" type="line"/>
      <point x="284" y="269" type="line"/>
      <point x="433" y="122" type="line"/>
      <point x="506" y="196" type="line"/>
      <point x="359" y="344" type="line"/>
      <point x="508" y="493" type="line"/>
    </contour>
  </outline>
</glyph>
<glyph name="divide.knda" format="2">
  <advance width="572"/>
  <unicode hex="00F7"/>
  <outline>
    <contour>
      <point x="43" y="290" type="line"/>
      <point x="528" y="290" type="line"/>
      <point x="528" y="397" type="line"/>
      <point x="43" y="397" type="line"/>
    </contour>
    <contour>
      <point x="285" y="99" type="curve" smooth="yes"/>
      <point x="321" y="99"/>
      <point x="353" y="121"/>
      <point x="353" y="173" type="curve" smooth="yes"/>
      <point x="353" y="228"/>
      <point x="321" y="247"/>
      <point x="285" y="247" type="curve" smooth="yes"/>
      <point x="248" y="247"/>
      <point x="217" y="228"/>
      <point x="217" y="173" type="curve" smooth="yes"/>
      <point x="217" y="121"/>
      <point x="248" y="99"/>
    </contour>
    <contour>
      <point x="285" y="440" type="curve" smooth="yes"/>
      <point x="321" y="440"/>
      <point x="353" y="462"/>
      <point x="353" y="514" type="curve" smooth="yes"/>
      <point x="353" y="569"/>
      <point x="321" y="588"/>
      <point x="285" y="588" type="curve" smooth="yes"/>
      <point x="248" y="588"/>
      <point x="217" y="569"/>
      <point x="217" y="514" type="curve" smooth="yes"/>
      <point x="217" y="462"/>
      <point x="248" y="440"/>
    </contour>
  </outline>
</glyph>
<glyph name="uni0951" format="2">
  <unicode hex="0951"/>
  <outline>
    <contour>
      <point x="-228" y="809" type="line"/>
      <point x="-328" y="809" type="line"/>
      <point x="-328" y="599" type="line"/>
      <point x="-228" y="599" type="line"/>
    </contour>
  </outline>
</glyph>
<glyph name="uni0952" format="2">
  <unicode hex="0952"/>
  <outline>
    <contour>
      <point x="-518" y="-191" type="line"/>
      <point x="-39" y="-191" type="line"/>
      <point x="-39" y="-100" type="line"/>
      <point x="-518" y="-100" type="line"/>
    </contour>
  </outline>
</glyph>
<glyph name="dandaknda" format="2">
  <advance width="399"/>
  <unicode hex="0964"/>
  <outline>
    <contour>
      <point x="178" y="-139" type="line"/>
      <point x="312" y="-139" type="line"/>
      <point x="312" y="702" type="line"/>
      <point x="178" y="702" type="line"/>
    </contour>
  </outline>
</glyph>
<glyph name="dbldandaknda" format="2">
  <advance width="638"/>
  <unicode hex="0965"/>
  <outline>
    <contour>
      <point x="417" y="-139" type="line"/>
      <point x="551" y="-139" type="line"/>
      <point x="551" y="702" type="line"/>
      <point x="417" y="702" type="line"/>
    </contour>
    <contour>
      <point x="178" y="-139" type="line"/>
      <point x="312" y="-139" type="line"/>
      <point x="312" y="702" type="line"/>
      <point x="178" y="702" type="line"/>
    </contour>
  </outline>
</glyph>
<glyph name="uni0C80" format="2">
  <advance width="612"/>
  <unicode hex="0C80"/>
  <outline>
    <contour>
      <point x="306" y="17" type="curve" smooth="yes"/>
      <point x="475" y="17"/>
      <point x="581" y="103"/>
      <point x="581" y="259" type="curve" smooth="yes"/>
      <point x="581" y="297"/>
      <point x="576" y="331"/>
      <point x="567" y="358" type="curve"/>
      <point x="429" y="331" type="line"/>
      <point x="434" y="310"/>
      <point x="435" y="289"/>
      <point x="435" y="266" type="curve" smooth="yes"/>
      <point x="435" y="186"/>
      <point x="394" y="141"/>
      <point x="306" y="141" type="curve" smooth="yes"/>
      <point x="220" y="141"/>
      <point x="177" y="181"/>
      <point x="177" y="263" type="curve" smooth="yes"/>
      <point x="177" y="289"/>
      <point x="179" y="310"/>
      <point x="184" y="331" type="curve"/>
      <point x="45" y="358" type="line"/>
      <point x="36" y="334"/>
      <point x="31" y="297"/>
      <point x="31" y="257" type="curve" smooth="yes"/>
      <point x="31" y="104"/>
      <point x="142" y="17"/>
    </contour>
    <contour>
      <point x="306" y="192" type="curve" smooth="yes"/>
      <point x="354" y="192"/>
      <point x="385" y="224"/>
      <point x="385" y="265" type="curve" smooth="yes"/>
      <point x="385" y="307"/>
      <point x="352" y="340"/>
      <point x="306" y="340" type="curve" smooth="yes"/>
      <point x="258" y="340"/>
      <point x="228" y="307"/>
      <point x="228" y="265" type="curve" smooth="yes"/>
      <point x="228" y="224"/>
      <point x="256" y="192"/>
    </contour>
  </outline>
</glyph>
<glyph name="candrabinduknda" format="2">
  <unicode hex="0C81"/>
  <outline>
    <contour>
      <point x="-278" y="586" type="curve" smooth="yes"/>
      <point x="-162" y="586"/>
      <point x="-74" y="636"/>
      <point x="-74" y="753" type="curve" smooth="yes"/>
      <point x="-74" y="773"/>
      <point x="-77" y="793"/>
      <point x="-81" y="809" type="curve"/>
      <point x="-185" y="794" type="line"/>
      <point x="-181" y="780"/>
      <point x="-180" y="767"/>
      <point x="-180" y="757" type="curve" smooth="yes"/>
      <point x="-180" y="703"/>
      <point x="-224" y="677"/>
      <point x="-278" y="677" type="curve" smooth="yes"/>
      <point x="-328" y="677"/>
      <point x="-376" y="694"/>
      <point x="-376" y="755" type="curve" smooth="yes"/>
      <point x="-376" y="766"/>
      <point x="-375" y="777"/>
      <point x="-372" y="790" type="curve"/>
      <point x="-474" y="809" type="line"/>
      <point x="-479" y="793"/>
      <point x="-482" y="772"/>
      <point x="-482" y="753" type="curve" smooth="yes"/>
      <point x="-482" y="637"/>
      <point x="-390" y="586"/>
    </contour>
    <contour>
      <point x="-279" y="699" type="curve" smooth="yes"/>
      <point x="-240" y="699"/>
      <point x="-218" y="723"/>
      <point x="-218" y="754" type="curve" smooth="yes"/>
      <point x="-218" y="782"/>
      <point x="-240" y="806"/>
      <point x="-279" y="806" type="curve" smooth="yes"/>
      <point x="-318" y="806"/>
      <point x="-339" y="782"/>
      <point x="-339" y="754" type="curve" smooth="yes"/>
      <point x="-339" y="723"/>
      <point x="-318" y="699"/>
    </contour>
  </outline>
</glyph>
<glyph name="anusvaraknda" format="2">
  <advance width="608"/>
  <unicode hex="0C82"/>
  <outline>
    <contour>
      <point x="300" y="-12" type="curve" smooth="yes"/>
      <point x="476" y="-12"/>
      <point x="576" y="91"/>
      <point x="576" y="251" type="curve" smooth="yes"/>
      <point x="576" y="401"/>
      <point x="487" y="516"/>
      <point x="305" y="516" type="curve" smooth="yes"/>
      <point x="127" y="516"/>
      <point x="32" y="407"/>
      <point x="32" y="251" type="curve" smooth="yes"/>
      <point x="32" y="83"/>
      <point x="142" y="-12"/>
    </contour>
    <contour>
      <point x="302" y="112" type="curve" smooth="yes"/>
      <point x="225" y="112"/>
      <point x="178" y="167"/>
      <point x="178" y="255" type="curve" smooth="yes"/>
      <point x="178" y="334"/>
      <point x="216" y="396"/>
      <point x="306" y="396" type="curve" smooth="yes"/>
      <point x="384" y="396"/>
      <point x="430" y="341"/>
      <point x="430" y="253" type="curve" smooth="yes"/>
      <point x="430" y="171"/>
      <point x="390" y="112"/>
    </contour>
  </outline>
</glyph>
<glyph name="visargaknda" format="2">
  <advance width="342"/>
  <unicode hex="0C83"/>
  <outline>
    <contour>
      <point x="30" y="377" type="curve" smooth="yes"/>
      <point x="30" y="308"/>
      <point x="81" y="255"/>
      <point x="170" y="255" type="curve" smooth="yes"/>
      <point x="261" y="255"/>
      <point x="312" y="307"/>
      <point x="312" y="377" type="curve" smooth="yes"/>
      <point x="312" y="448"/>
      <point x="260" y="500"/>
      <point x="170" y="500" type="curve" smooth="yes"/>
      <point x="82" y="500"/>
      <point x="30" y="447"/>
    </contour>
    <contour>
      <point x="125" y="378" type="curve" smooth="yes"/>
      <point x="125" y="403"/>
      <point x="142" y="422"/>
      <point x="170" y="422" type="curve" smooth="yes"/>
      <point x="200" y="422"/>
      <point x="217" y="403"/>
      <point x="217" y="378" type="curve" smooth="yes"/>
      <point x="217" y="353"/>
      <point x="201" y="333"/>
      <point x="170" y="333" type="curve" smooth="yes"/>
      <point x="141" y="333"/>
      <point x="125" y="353"/>
    </contour>
    <contour>
      <point x="30" y="110" type="curve" smooth="yes"/>
      <point x="30" y="41"/>
      <point x="81" y="-12"/>
      <point x="170" y="-12" type="curve" smooth="yes"/>
      <point x="261" y="-12"/>
      <point x="312" y="41"/>
      <point x="312" y="110" type="curve" smooth="yes"/>
      <point x="312" y="181"/>
      <point x="260" y="234"/>
      <point x="170" y="234" type="curve" smooth="yes"/>
      <point x="82" y="234"/>
      <point x="30" y="181"/>
    </contour>
    <contour>
      <point x="125" y="112" type="curve" smooth="yes"/>
      <point x="125" y="137"/>
      <point x="142" y="156"/>
      <point x="170" y="156" type="curve" smooth="yes"/>
      <point x="200" y="156"/>
      <point x="217" y="137"/>
      <point x="217" y="112" type="curve" smooth="yes"/>
      <point x="217" y="86"/>
      <point x="201" y="66"/>
      <point x="170" y="66" type="curve" smooth="yes"/>
      <point x="141" y="66"/>
      <point x="125" y="86"/>
    </contour>
  </outline>
</glyph>
<glyph name="uni0C84" format="2">
  <advance width="1125"/>
  <unicode hex="0C84"/>
  <outline>
    <contour>
      <point x="184" y="556" type="curve"/>
      <point x="62" y="563" type="line"/>
      <point x="48" y="493"/>
      <point x="42" y="430"/>
      <point x="42" y="369" type="curve" smooth="yes"/>
      <point x="42" y="25"/>
      <point x="257" y="-173"/>
      <point x="573" y="-173" type="curve" smooth="yes"/>
      <point x="882" y="-173"/>
      <point x="1083" y="-11"/>
      <point x="1083" y="298" type="curve" smooth="yes"/>
      <point x="1083" y="585"/>
      <point x="894" y="741"/>
      <point x="652" y="741" type="curve" smooth="yes"/>
      <point x="421" y="741"/>
      <point x="261" y="602"/>
      <point x="261" y="384" type="curve" smooth="yes"/>
      <point x="261" y="191"/>
      <point x="387" y="70"/>
      <point x="575" y="70" type="curve" smooth="yes"/>
      <point x="754" y="70"/>
      <point x="869" y="163"/>
      <point x="869" y="318" type="curve" smooth="yes"/>
      <point x="869" y="448"/>
      <point x="775" y="540"/>
      <point x="647" y="540" type="curve" smooth="yes"/>
      <point x="532" y="540"/>
      <point x="456" y="472"/>
      <point x="456" y="384" type="curve" smooth="yes"/>
      <point x="456" y="296"/>
      <point x="517" y="239"/>
      <point x="600" y="239" type="curve" smooth="yes"/>
      <point x="652" y="239"/>
      <point x="681" y="252"/>
      <point x="701" y="267" type="curve"/>
      <point x="659" y="358" type="line"/>
      <point x="644" y="349"/>
      <point x="633" y="345"/>
      <point x="616" y="345" type="curve" smooth="yes"/>
      <point x="594" y="345"/>
      <point x="575" y="356"/>
      <point x="575" y="386" type="curve" smooth="yes"/>
      <point x="575" y="419"/>
      <point x="601" y="436"/>
      <point x="640" y="436" type="curve" smooth="yes"/>
      <point x="707" y="436"/>
      <point x="747" y="394"/>
      <point x="747" y="318" type="curve" smooth="yes"/>
      <point x="747" y="224"/>
      <point x="687" y="175"/>
      <point x="575" y="175" type="curve" smooth="yes"/>
      <point x="457" y="175"/>
      <point x="383" y="251"/>
      <point x="383" y="382" type="curve" smooth="yes"/>
      <point x="383" y="557"/>
      <point x="502" y="634"/>
      <point x="652" y="634" type="curve" smooth="yes"/>
      <point x="832" y="634"/>
      <point x="958" y="515"/>
      <point x="958" y="299" type="curve" smooth="yes"/>
      <point x="958" y="62"/>
      <point x="808" y="-62"/>
      <point x="575" y="-62" type="curve" smooth="yes"/>
      <point x="328" y="-62"/>
      <point x="164" y="89"/>
      <point x="164" y="374" type="curve" smooth="yes"/>
      <point x="164" y="442"/>
      <point x="169" y="496"/>
    </contour>
  </outline>
</glyph>
<glyph name="aknda" format="2">
  <advance width="957"/>
  <unicode hex="0C85"/>
  <outline>
    <contour>
      <point x="471" y="118" type="curve" smooth="yes"/>
      <point x="247" y="118"/>
      <point x="172" y="218"/>
      <point x="172" y="307" type="curve" smooth="yes"/>
      <point x="172" y="315" type="line" smooth="yes"/>
      <point x="172" y="406"/>
      <point x="208" y="456"/>
      <point x="268" y="456" type="curve" smooth="yes"/>
      <point x="296" y="456"/>
      <point x="317" y="438"/>
      <point x="317" y="406" type="curve" smooth="yes"/>
      <point x="317" y="372"/>
      <point x="289" y="347"/>
      <point x="227" y="347" type="curve" smooth="yes"/>
      <point x="169" y="347"/>
      <point x="135" y="390"/>
      <point x="119" y="416" type="curve"/>
      <point x="94" y="313" type="line"/>
      <point x="124" y="280"/>
      <point x="178" y="240"/>
      <point x="257" y="240" type="curve" smooth="yes"/>
      <point x="379" y="240"/>
      <point x="443" y="301"/>
      <point x="443" y="399" type="curve" smooth="yes"/>
      <point x="443" y="495"/>
      <point x="379" y="563"/>
      <point x="275" y="563" type="curve" smooth="yes"/>
      <point x="134" y="563"/>
      <point x="32" y="473"/>
      <point x="32" y="311" type="curve" smooth="yes"/>
      <point x="32" y="122"/>
      <point x="179" y="-12"/>
      <point x="470" y="-12" type="curve" smooth="yes"/>
      <point x="753" y="-12"/>
      <point x="925" y="89"/>
      <point x="925" y="331" type="curve" smooth="yes"/>
      <point x="925" y="465"/>
      <point x="840" y="563"/>
      <point x="696" y="563" type="curve" smooth="yes"/>
      <point x="572" y="563"/>
      <point x="525" y="499"/>
      <point x="525" y="420" type="curve" smooth="yes"/>
      <point x="525" y="384"/>
      <point x="544" y="345"/>
      <point x="573" y="318" type="curve"/>
      <point x="438" y="318" type="line"/>
      <point x="438" y="209" type="line"/>
      <point x="726" y="209" type="line"/>
      <point x="726" y="313" type="line"/>
      <point x="690" y="327"/>
      <point x="652" y="352"/>
      <point x="652" y="397" type="curve" smooth="yes"/>
      <point x="652" y="435"/>
      <point x="675" y="450"/>
      <point x="699" y="450" type="curve" smooth="yes"/>
      <point x="755" y="450"/>
      <point x="778" y="392"/>
      <point x="778" y="334" type="curve" smooth="yes"/>
      <point x="778" y="176"/>
      <point x="667" y="118"/>
    </contour>
  </outline>
</glyph>
<glyph name="aaknda" format="2">
  <advance width="939"/>
  <unicode hex="0C86"/>
  <outline>
    <contour>
      <point x="483" y="-12" type="curve" smooth="yes"/>
      <point x="760" y="-12"/>
      <point x="887" y="82"/>
      <point x="887" y="192" type="curve" smooth="yes"/>
      <point x="887" y="240"/>
      <point x="863" y="278"/>
      <point x="817" y="310" type="curve"/>
      <point x="799" y="323"/>
      <point x="783" y="328"/>
      <point x="763" y="335" type="curve" smooth="yes"/>
      <point x="696" y="360"/>
      <point x="662" y="381"/>
      <point x="662" y="414" type="curve" smooth="yes"/>
      <point x="662" y="438"/>
      <point x="681" y="456"/>
      <point x="715" y="456" type="curve" smooth="yes"/>
      <point x="756" y="456"/>
      <point x="777" y="430"/>
      <point x="777" y="400" type="curve" smooth="yes"/>
      <point x="777" y="347"/>
      <point x="724" y="324"/>
      <point x="685" y="318" type="curve"/>
      <point x="429" y="318" type="line"/>
      <point x="429" y="209" type="line"/>
      <point x="653" y="209" type="line" smooth="yes"/>
      <point x="741" y="209"/>
      <point x="786" y="225"/>
      <point x="830" y="256" type="curve" smooth="yes"/>
      <point x="877" y="291"/>
      <point x="915" y="341"/>
      <point x="915" y="412" type="curve" smooth="yes"/>
      <point x="915" y="490"/>
      <point x="849" y="563"/>
      <point x="716" y="563" type="curve" smooth="yes"/>
      <point x="610" y="563"/>
      <point x="536" y="520"/>
      <point x="536" y="431" type="curve" smooth="yes"/>
      <point x="536" y="365"/>
      <point x="577" y="320"/>
      <point x="663" y="291" type="curve" smooth="yes"/>
      <point x="668" y="289"/>
      <point x="689" y="281"/>
      <point x="695" y="279" type="curve"/>
      <point x="732" y="268"/>
      <point x="741" y="247"/>
      <point x="741" y="223" type="curve" smooth="yes"/>
      <point x="741" y="165"/>
      <point x="652" y="118"/>
      <point x="481" y="118" type="curve" smooth="yes"/>
      <point x="244" y="118"/>
      <point x="172" y="218"/>
      <point x="172" y="307" type="curve" smooth="yes"/>
      <point x="172" y="315" type="line" smooth="yes"/>
      <point x="172" y="406"/>
      <point x="208" y="456"/>
      <point x="268" y="456" type="curve" smooth="yes"/>
      <point x="296" y="456"/>
      <point x="317" y="438"/>
      <point x="317" y="406" type="curve" smooth="yes"/>
      <point x="317" y="372"/>
      <point x="289" y="347"/>
      <point x="227" y="347" type="curve" smooth="yes"/>
      <point x="169" y="347"/>
      <point x="135" y="390"/>
      <point x="119" y="416" type="curve"/>
      <point x="94" y="313" type="line"/>
      <point x="124" y="280"/>
      <point x="178" y="240"/>
      <point x="257" y="240" type="curve" smooth="yes"/>
      <point x="379" y="240"/>
      <point x="443" y="301"/>
      <point x="443" y="399" type="curve" smooth="yes"/>
      <point x="443" y="495"/>
      <point x="379" y="563"/>
      <point x="275" y="563" type="curve" smooth="yes"/>
      <point x="134" y="563"/>
      <point x="32" y="473"/>
      <point x="32" y="311" type="curve" smooth="yes"/>
      <point x="32" y="122"/>
      <point x="178" y="-12"/>
    </contour>
  </outline>
</glyph>
<glyph name="iiknda" format="2">
  <advance width="1087"/>
  <unicode hex="0C88"/>
  <outline>
    <contour>
      <point x="380" y="-12" type="curve" smooth="yes"/>
      <point x="578" y="-12"/>
      <point x="690" y="86"/>
      <point x="690" y="244" type="curve" smooth="yes"/>
      <point x="690" y="335"/>
      <point x="658" y="401"/>
      <point x="583" y="447" type="curve"/>
      <point x="562" y="435" type="line"/>
      <point x="608" y="444"/>
      <point x="639" y="464"/>
      <point x="659" y="489" type="curve" smooth="yes"/>
      <point x="682" y="518"/>
      <point x="690" y="553"/>
      <point x="690" y="585" type="curve" smooth="yes"/>
      <point x="690" y="653"/>
      <point x="672" y="708"/>
      <point x="607" y="788" type="curve"/>
      <point x="496" y="723" type="line"/>
      <point x="530" y="683"/>
      <point x="551" y="650"/>
      <point x="551" y="613" type="curve" smooth="yes"/>
      <point x="551" y="592"/>
      <point x="546" y="577"/>
      <point x="529" y="567" type="curve" smooth="yes"/>
      <point x="515" y="558"/>
      <point x="492" y="552"/>
      <point x="420" y="552" type="curve" smooth="yes"/>
      <point x="70" y="552" type="line"/>
      <point x="70" y="426" type="line"/>
      <point x="229" y="426" type="line"/>
      <point x="208" y="450" type="line"/>
      <point x="112" y="408"/>
      <point x="70" y="338"/>
      <point x="70" y="244" type="curve" smooth="yes"/>
      <point x="70" y="79"/>
      <point x="192" y="-12"/>
    </contour>
    <contour>
      <point x="380" y="115" type="curve" smooth="yes"/>
      <point x="268" y="115"/>
      <point x="213" y="172"/>
      <point x="213" y="271" type="curve" smooth="yes"/>
      <point x="213" y="281"/>
      <point x="216" y="290"/>
      <point x="217" y="299" type="curve" smooth="yes"/>
      <point x="227" y="377"/>
      <point x="286" y="426"/>
      <point x="380" y="426" type="curve" smooth="yes"/>
      <point x="467" y="426"/>
      <point x="528" y="384"/>
      <point x="542" y="308" type="curve" smooth="yes"/>
      <point x="544" y="297"/>
      <point x="547" y="285"/>
      <point x="547" y="271" type="curve"/>
      <point x="547" y="185"/>
      <point x="500" y="115"/>
    </contour>
    <contour>
      <point x="814" y="119" type="curve"/>
      <point x="828" y="-3" type="line"/>
      <point x="961" y="6"/>
      <point x="1021" y="55"/>
      <point x="1021" y="142" type="curve" smooth="yes"/>
      <point x="1021" y="199"/>
      <point x="982" y="243"/>
      <point x="946" y="280" type="curve"/>
      <point x="922" y="310" type="line"/>
      <point x="881" y="348"/>
      <point x="859" y="369"/>
      <point x="859" y="397" type="curve" smooth="yes"/>
      <point x="859" y="423"/>
      <point x="880" y="439"/>
      <point x="904" y="439" type="curve" smooth="yes"/>
      <point x="933" y="439"/>
      <point x="950" y="420"/>
      <point x="950" y="393" type="curve" smooth="yes"/>
      <point x="950" y="343"/>
      <point x="898" y="331"/>
      <point x="839" y="331" type="curve" smooth="yes"/>
      <point x="20" y="331" type="line"/>
      <point x="20" y="222" type="line"/>
      <point x="770" y="222" type="line" smooth="yes"/>
      <point x="917" y="222"/>
      <point x="1068" y="241"/>
      <point x="1068" y="396" type="curve" smooth="yes"/>
      <point x="1068" y="480"/>
      <point x="1010" y="543"/>
      <point x="898" y="543" type="curve" smooth="yes"/>
      <point x="797" y="543"/>
      <point x="742" y="488"/>
      <point x="742" y="418" type="curve" smooth="yes"/>
      <point x="742" y="371"/>
      <point x="774" y="329"/>
      <point x="811" y="292" type="curve"/>
      <point x="828" y="255" type="line"/>
      <point x="867" y="220"/>
      <point x="893" y="195"/>
      <point x="893" y="167" type="curve" smooth="yes"/>
      <point x="893" y="138"/>
      <point x="875" y="121"/>
    </contour>
  </outline>
</glyph>
<glyph name="uknda" format="2">
  <advance width="1335"/>
  <unicode hex="0C89"/>
  <outline>
    <contour>
      <point x="1041" y="-12" type="curve" smooth="yes"/>
      <point x="1221" y="-12"/>
      <point x="1301" y="90"/>
      <point x="1301" y="236" type="curve" smooth="yes"/>
      <point x="1301" y="375"/>
      <point x="1224" y="484"/>
      <point x="1097" y="565" type="curve"/>
      <point x="1005" y="458" type="line"/>
      <point x="1099" y="398"/>
      <point x="1155" y="326"/>
      <point x="1155" y="232" type="curve" smooth="yes"/>
      <point x="1155" y="159"/>
      <point x="1116" y="115"/>
      <point x="1045" y="115" type="curve" smooth="yes"/>
      <point x="1011" y="115"/>
      <point x="981" y="124"/>
      <point x="961" y="146" type="curve" smooth="yes"/>
      <point x="944" y="167"/>
      <point x="934" y="193"/>
      <point x="934" y="255" type="curve" smooth="yes"/>
      <point x="934" y="329" type="line" smooth="yes"/>
      <point x="934" y="446"/>
      <point x="910" y="490"/>
      <point x="861" y="526" type="curve" smooth="yes"/>
      <point x="822" y="555"/>
      <point x="772" y="563"/>
      <point x="723" y="563" type="curve" smooth="yes"/>
      <point x="585" y="563"/>
      <point x="510" y="496"/>
      <point x="510" y="392" type="curve" smooth="yes"/>
      <point x="510" y="335"/>
      <point x="517" y="297"/>
      <point x="517" y="245" type="curve" smooth="yes"/>
      <point x="517" y="167"/>
      <point x="472" y="115"/>
      <point x="369" y="115" type="curve" smooth="yes"/>
      <point x="214" y="115"/>
      <point x="170" y="221"/>
      <point x="170" y="304" type="curve" smooth="yes"/>
      <point x="170" y="313" type="line" smooth="yes"/>
      <point x="170" y="406"/>
      <point x="210" y="456"/>
      <point x="268" y="456" type="curve" smooth="yes"/>
      <point x="296" y="456"/>
      <point x="317" y="437"/>
      <point x="317" y="405" type="curve" smooth="yes"/>
      <point x="317" y="371"/>
      <point x="289" y="347"/>
      <point x="227" y="347" type="curve" smooth="yes"/>
      <point x="169" y="347"/>
      <point x="137" y="384"/>
      <point x="119" y="416" type="curve"/>
      <point x="94" y="313" type="line"/>
      <point x="124" y="280"/>
      <point x="184" y="240"/>
      <point x="265" y="240" type="curve" smooth="yes"/>
      <point x="384" y="240"/>
      <point x="449" y="309"/>
      <point x="449" y="401" type="curve" smooth="yes"/>
      <point x="449" y="500"/>
      <point x="386" y="563"/>
      <point x="275" y="563" type="curve" smooth="yes"/>
      <point x="137" y="563"/>
      <point x="32" y="469"/>
      <point x="32" y="304" type="curve" smooth="yes"/>
      <point x="32" y="122"/>
      <point x="150" y="-12"/>
      <point x="371" y="-12" type="curve" smooth="yes"/>
      <point x="541" y="-12"/>
      <point x="662" y="62"/>
      <point x="662" y="232" type="curve" smooth="yes"/>
      <point x="662" y="275"/>
      <point x="655" y="309"/>
      <point x="655" y="354" type="curve" smooth="yes"/>
      <point x="655" y="411"/>
      <point x="677" y="440"/>
      <point x="721" y="440" type="curve" smooth="yes"/>
      <point x="739" y="440"/>
      <point x="754" y="435"/>
      <point x="765" y="424" type="curve" smooth="yes"/>
      <point x="781" y="409"/>
      <point x="789" y="384"/>
      <point x="789" y="308" type="curve" smooth="yes"/>
      <point x="789" y="236" type="line" smooth="yes"/>
      <point x="789" y="137"/>
      <point x="814" y="88"/>
      <point x="852" y="51" type="curve" smooth="yes"/>
      <point x="902" y="2"/>
      <point x="973" y="-12"/>
    </contour>
  </outline>
</glyph>
<glyph name="uuknda" format="2">
  <advance width="1750"/>
  <unicode hex="0C8A"/>
  <outline>
    <contour>
      <point x="1000" y="-12" type="curve" smooth="yes"/>
      <point x="1138" y="-12"/>
      <point x="1212" y="42"/>
      <point x="1212" y="171" type="curve" smooth="yes"/>
      <point x="1212" y="215"/>
      <point x="1208" y="249"/>
      <point x="1208" y="294" type="curve" smooth="yes"/>
      <point x="1208" y="398"/>
      <point x="1278" y="438"/>
      <point x="1372" y="438" type="curve" smooth="yes"/>
      <point x="1505" y="438"/>
      <point x="1572" y="351"/>
      <point x="1572" y="247" type="curve" smooth="yes"/>
      <point x="1572" y="157"/>
      <point x="1529" y="107"/>
      <point x="1456" y="107" type="curve" smooth="yes"/>
      <point x="1393" y="107"/>
      <point x="1372" y="146"/>
      <point x="1372" y="180" type="curve" smooth="yes"/>
      <point x="1372" y="189"/>
      <point x="1373" y="200"/>
      <point x="1375" y="206" type="curve"/>
      <point x="1362" y="197" type="line"/>
      <point x="1373" y="168"/>
      <point x="1403" y="159"/>
      <point x="1427" y="159" type="curve" smooth="yes"/>
      <point x="1468" y="159"/>
      <point x="1492" y="187"/>
      <point x="1492" y="230" type="curve" smooth="yes"/>
      <point x="1492" y="276"/>
      <point x="1460" y="310"/>
      <point x="1394" y="310" type="curve" smooth="yes"/>
      <point x="1313" y="310"/>
      <point x="1263" y="250"/>
      <point x="1263" y="167" type="curve" smooth="yes"/>
      <point x="1263" y="57"/>
      <point x="1337" y="-12"/>
      <point x="1472" y="-12" type="curve" smooth="yes"/>
      <point x="1621" y="-12"/>
      <point x="1716" y="82"/>
      <point x="1716" y="247" type="curve" smooth="yes"/>
      <point x="1716" y="414"/>
      <point x="1608" y="563"/>
      <point x="1369" y="563" type="curve" smooth="yes"/>
      <point x="1184" y="563"/>
      <point x="1062" y="473"/>
      <point x="1062" y="317" type="curve" smooth="yes"/>
      <point x="1062" y="272"/>
      <point x="1068" y="240"/>
      <point x="1068" y="200" type="curve" smooth="yes"/>
      <point x="1068" y="142"/>
      <point x="1048" y="113"/>
      <point x="1001" y="113" type="curve" smooth="yes"/>
      <point x="980" y="113"/>
      <point x="962" y="117"/>
      <point x="951" y="132" type="curve" smooth="yes"/>
      <point x="938" y="148"/>
      <point x="934" y="173"/>
      <point x="934" y="225" type="curve" smooth="yes"/>
      <point x="934" y="329" type="line" smooth="yes"/>
      <point x="934" y="445"/>
      <point x="910" y="490"/>
      <point x="861" y="526" type="curve" smooth="yes"/>
      <point x="822" y="555"/>
      <point x="772" y="563"/>
      <point x="723" y="563" type="curve" smooth="yes"/>
      <point x="587" y="563"/>
      <point x="510" y="496"/>
      <point x="510" y="393" type="curve" smooth="yes"/>
      <point x="510" y="335"/>
      <point x="517" y="298"/>
      <point x="517" y="245" type="curve" smooth="yes"/>
      <point x="517" y="167"/>
      <point x="472" y="115"/>
      <point x="369" y="115" type="curve" smooth="yes"/>
      <point x="214" y="115"/>
      <point x="170" y="221"/>
      <point x="170" y="304" type="curve" smooth="yes"/>
      <point x="170" y="313" type="line" smooth="yes"/>
      <point x="170" y="406"/>
      <point x="210" y="456"/>
      <point x="268" y="456" type="curve" smooth="yes"/>
      <point x="296" y="456"/>
      <point x="317" y="437"/>
      <point x="317" y="405" type="curve" smooth="yes"/>
      <point x="317" y="371"/>
      <point x="289" y="347"/>
      <point x="227" y="347" type="curve" smooth="yes"/>
      <point x="169" y="347"/>
      <point x="137" y="384"/>
      <point x="119" y="416" type="curve"/>
      <point x="94" y="313" type="line"/>
      <point x="124" y="280"/>
      <point x="184" y="240"/>
      <point x="265" y="240" type="curve" smooth="yes"/>
      <point x="384" y="240"/>
      <point x="449" y="309"/>
      <point x="449" y="401" type="curve" smooth="yes"/>
      <point x="449" y="500"/>
      <point x="386" y="563"/>
      <point x="275" y="563" type="curve" smooth="yes"/>
      <point x="137" y="563"/>
      <point x="32" y="469"/>
      <point x="32" y="304" type="curve" smooth="yes"/>
      <point x="32" y="122"/>
      <point x="150" y="-12"/>
      <point x="371" y="-12" type="curve" smooth="yes"/>
      <point x="541" y="-12"/>
      <point x="662" y="62"/>
      <point x="662" y="232" type="curve" smooth="yes"/>
      <point x="662" y="275"/>
      <point x="655" y="309"/>
      <point x="655" y="354" type="curve" smooth="yes"/>
      <point x="655" y="411"/>
      <point x="677" y="440"/>
      <point x="721" y="440" type="curve" smooth="yes"/>
      <point x="740" y="440"/>
      <point x="754" y="435"/>
      <point x="765" y="424" type="curve" smooth="yes"/>
      <point x="781" y="410"/>
      <point x="789" y="387"/>
      <point x="789" y="308" type="curve" smooth="yes"/>
      <point x="789" y="209" type="line" smooth="yes"/>
      <point x="789" y="142"/>
      <point x="801" y="95"/>
      <point x="831" y="56" type="curve" smooth="yes"/>
      <point x="868" y="7"/>
      <point x="927" y="-12"/>
    </contour>
  </outline>
</glyph>
<glyph name="rvocalicknda" format="2">
  <advance width="1272"/>
  <unicode hex="0C8B"/>
  <outline>
    <contour>
      <point x="222" y="-12" type="curve" smooth="yes"/>
      <point x="442" y="-12"/>
      <point x="507" y="115"/>
      <point x="507" y="277" type="curve" smooth="yes"/>
      <point x="507" y="417"/>
      <point x="423" y="563"/>
      <point x="216" y="563" type="curve" smooth="yes"/>
      <point x="85" y="563"/>
      <point x="24" y="495"/>
      <point x="24" y="421" type="curve" smooth="yes"/>
      <point x="24" y="325"/>
      <point x="99" y="281"/>
      <point x="181" y="281" type="curve" smooth="yes"/>
      <point x="275" y="281"/>
      <point x="336" y="318"/>
      <point x="336" y="399" type="curve" smooth="yes"/>
      <point x="336" y="432"/>
      <point x="321" y="454"/>
      <point x="303" y="478" type="curve"/>
      <point x="213" y="467" type="line"/>
      <point x="232" y="458"/>
      <point x="247" y="444"/>
      <point x="247" y="421" type="curve" smooth="yes"/>
      <point x="247" y="395"/>
      <point x="225" y="384"/>
      <point x="194" y="384" type="curve" smooth="yes"/>
      <point x="162" y="384"/>
      <point x="147" y="398"/>
      <point x="147" y="420" type="curve" smooth="yes"/>
      <point x="147" y="441"/>
      <point x="166" y="457"/>
      <point x="204" y="457" type="curve" smooth="yes"/>
      <point x="239" y="457"/>
      <point x="260" y="452"/>
      <point x="278" y="443" type="curve" smooth="yes"/>
      <point x="282" y="441"/>
      <point x="290" y="442"/>
      <point x="294" y="439" type="curve" smooth="yes"/>
      <point x="342" y="407"/>
      <point x="367" y="351"/>
      <point x="367" y="273" type="curve" smooth="yes"/>
      <point x="367" y="183"/>
      <point x="348" y="126"/>
      <point x="290" y="103" type="curve"/>
      <point x="287" y="101"/>
      <point x="280" y="104"/>
      <point x="277" y="102" type="curve"/>
      <point x="260" y="98"/>
      <point x="241" y="95"/>
      <point x="212" y="95" type="curve" smooth="yes"/>
      <point x="166" y="95"/>
      <point x="151" y="110"/>
      <point x="151" y="133" type="curve" smooth="yes"/>
      <point x="151" y="153"/>
      <point x="167" y="168"/>
      <point x="200" y="168" type="curve" smooth="yes"/>
      <point x="231" y="168"/>
      <point x="250" y="157"/>
      <point x="250" y="130" type="curve" smooth="yes"/>
      <point x="250" y="112"/>
      <point x="238" y="99"/>
      <point x="217" y="85" type="curve"/>
      <point x="307" y="74" type="line"/>
      <point x="326" y="100"/>
      <point x="340" y="120"/>
      <point x="340" y="153" type="curve" smooth="yes"/>
      <point x="340" y="231"/>
      <point x="283" y="271"/>
      <point x="193" y="271" type="curve" smooth="yes"/>
      <point x="103" y="271"/>
      <point x="28" y="220"/>
      <point x="28" y="136" type="curve" smooth="yes"/>
      <point x="28" y="52"/>
      <point x="98" y="-12"/>
    </contour>
    <contour>
      <point x="635" y="-12" type="curve" smooth="yes"/>
      <point x="795" y="-12"/>
      <point x="874" y="87"/>
      <point x="874" y="227" type="curve" smooth="yes"/>
      <point x="874" y="376"/>
      <point x="762" y="467"/>
      <point x="626" y="531" type="curve"/>
      <point x="562" y="442" type="line"/>
      <point x="657" y="398"/>
      <point x="728" y="331"/>
      <point x="728" y="232" type="curve" smooth="yes"/>
      <point x="728" y="159"/>
      <point x="687" y="115"/>
      <point x="611" y="115" type="curve" smooth="yes"/>
      <point x="540" y="115"/>
      <point x="494" y="157"/>
      <point x="444" y="233" type="curve"/>
      <point x="390" y="103" type="line"/>
      <point x="454" y="32"/>
      <point x="532" y="-12"/>
    </contour>
    <contour>
      <point x="514" y="426" type="line"/>
      <point x="636" y="426" type="line" smooth="yes"/>
      <point x="741" y="426"/>
      <point x="794" y="441"/>
      <point x="831" y="476" type="curve" smooth="yes"/>
      <point x="866" y="508"/>
      <point x="874" y="555"/>
      <point x="874" y="586" type="curve" smooth="yes"/>
      <point x="874" y="653"/>
      <point x="855" y="708"/>
      <point x="791" y="788" type="curve"/>
      <point x="679" y="723" type="line"/>
      <point x="714" y="683"/>
      <point x="734" y="650"/>
      <point x="734" y="613" type="curve" smooth="yes"/>
      <point x="734" y="592"/>
      <point x="731" y="578"/>
      <point x="712" y="567" type="curve" smooth="yes"/>
      <point x="698" y="558"/>
      <point x="675" y="552"/>
      <point x="603" y="552" type="curve" smooth="yes"/>
      <point x="514" y="552" type="line"/>
    </contour>
    <contour>
      <point x="1000" y="-12" type="curve" smooth="yes"/>
      <point x="1161" y="-12"/>
      <point x="1238" y="84"/>
      <point x="1238" y="230" type="curve" smooth="yes"/>
      <point x="1238" y="390"/>
      <point x="1137" y="501"/>
      <point x="1002" y="565" type="curve"/>
      <point x="926" y="442" type="line"/>
      <point x="1021" y="398"/>
      <point x="1092" y="335"/>
      <point x="1092" y="232" type="curve" smooth="yes"/>
      <point x="1092" y="159"/>
      <point x="1050" y="115"/>
      <point x="976" y="115" type="curve" smooth="yes"/>
      <point x="905" y="115"/>
      <point x="859" y="157"/>
      <point x="810" y="233" type="curve"/>
      <point x="755" y="107" type="line"/>
      <point x="819" y="36"/>
      <point x="898" y="-12"/>
    </contour>
  </outline>
</glyph>
<glyph name="lvocalicknda" format="2">
  <advance width="944"/>
  <unicode hex="0C8C"/>
  <outline>
    <contour>
      <point x="506" y="-12" type="curve" smooth="yes"/>
      <point x="754" y="-12"/>
      <point x="909" y="94"/>
      <point x="909" y="304" type="curve" smooth="yes"/>
      <point x="909" y="375"/>
      <point x="890" y="472"/>
      <point x="813" y="563" type="curve"/>
      <point x="693" y="496" type="line"/>
      <point x="739" y="436"/>
      <point x="763" y="374"/>
      <point x="763" y="303" type="curve" smooth="yes"/>
      <point x="763" y="180"/>
      <point x="671" y="115"/>
      <point x="508" y="115" type="curve" smooth="yes"/>
      <point x="414" y="115"/>
      <point x="390" y="136"/>
      <point x="390" y="160" type="curve" smooth="yes"/>
      <point x="390" y="188"/>
      <point x="411" y="198"/>
      <point x="459" y="210" type="curve" smooth="yes"/>
      <point x="629" y="254"/>
      <point x="691" y="296"/>
      <point x="691" y="407" type="curve" smooth="yes"/>
      <point x="691" y="497"/>
      <point x="633" y="563"/>
      <point x="526" y="563" type="curve" smooth="yes"/>
      <point x="439" y="563"/>
      <point x="380" y="530"/>
      <point x="328" y="443" type="curve"/>
      <point x="383" y="442" type="line"/>
      <point x="344" y="530"/>
      <point x="276" y="563"/>
      <point x="195" y="563" type="curve" smooth="yes"/>
      <point x="102" y="563"/>
      <point x="24" y="502"/>
      <point x="24" y="410" type="curve" smooth="yes"/>
      <point x="24" y="363"/>
      <point x="35" y="331"/>
      <point x="47" y="304" type="curve"/>
      <point x="181" y="346" type="line"/>
      <point x="174" y="358"/>
      <point x="170" y="374"/>
      <point x="170" y="393" type="curve" smooth="yes"/>
      <point x="170" y="424"/>
      <point x="189" y="444"/>
      <point x="216" y="444" type="curve" smooth="yes"/>
      <point x="264" y="444"/>
      <point x="279" y="406"/>
      <point x="291" y="354" type="curve"/>
      <point x="424" y="354" type="line"/>
      <point x="434" y="400"/>
      <point x="460" y="437"/>
      <point x="506" y="437" type="curve" smooth="yes"/>
      <point x="539" y="437"/>
      <point x="556" y="423"/>
      <point x="556" y="399" type="curve" smooth="yes"/>
      <point x="556" y="368"/>
      <point x="523" y="349"/>
      <point x="456" y="330" type="curve" smooth="yes"/>
      <point x="316" y="292"/>
      <point x="246" y="252"/>
      <point x="246" y="162" type="curve" smooth="yes"/>
      <point x="246" y="45"/>
      <point x="359" y="-12"/>
    </contour>
  </outline>
</glyph>
<glyph name="eknda" format="2">
  <advance width="854"/>
  <unicode hex="0C8E"/>
  <outline>
    <contour>
      <point x="626" y="-12" type="curve" smooth="yes"/>
      <point x="741" y="-12"/>
      <point x="822" y="58"/>
      <point x="822" y="209" type="curve" smooth="yes"/>
      <point x="822" y="417"/>
      <point x="662" y="581"/>
      <point x="259" y="583" type="curve"/>
      <point x="248" y="451" type="line"/>
      <point x="507" y="451"/>
      <point x="676" y="373"/>
      <point x="676" y="210" type="curve" smooth="yes"/>
      <point x="676" y="157"/>
      <point x="658" y="115"/>
      <point x="599" y="115" type="curve" smooth="yes"/>
      <point x="554" y="115"/>
      <point x="517" y="147"/>
      <point x="512" y="220" type="curve"/>
      <point x="381" y="220" type="line"/>
      <point x="375" y="157"/>
      <point x="341" y="115"/>
      <point x="259" y="115" type="curve" smooth="yes"/>
      <point x="183" y="115"/>
      <point x="148" y="139"/>
      <point x="148" y="180" type="curve" smooth="yes"/>
      <point x="148" y="212"/>
      <point x="170" y="229"/>
      <point x="195" y="229" type="curve" smooth="yes"/>
      <point x="217" y="229"/>
      <point x="229" y="217"/>
      <point x="229" y="197" type="curve" smooth="yes"/>
      <point x="229" y="190"/>
      <point x="229" y="183"/>
      <point x="226" y="175" type="curve"/>
      <point x="326" y="167" type="line"/>
      <point x="334" y="182"/>
      <point x="341" y="207"/>
      <point x="341" y="228" type="curve" smooth="yes"/>
      <point x="341" y="296"/>
      <point x="293" y="337"/>
      <point x="200" y="337" type="curve" smooth="yes"/>
      <point x="96" y="337"/>
      <point x="24" y="272"/>
      <point x="24" y="174" type="curve" smooth="yes"/>
      <point x="24" y="62"/>
      <point x="106" y="-12"/>
      <point x="233" y="-12" type="curve" smooth="yes"/>
      <point x="348" y="-12"/>
      <point x="411" y="20"/>
      <point x="479" y="101" type="curve"/>
      <point x="418" y="104" type="line"/>
      <point x="470" y="26"/>
      <point x="530" y="-12"/>
    </contour>
  </outline>
</glyph>
<glyph name="eeknda" format="2">
  <advance width="854"/>
  <unicode hex="0C8F"/>
  <outline>
    <contour>
      <point x="626" y="-12" type="curve" smooth="yes"/>
      <point x="731" y="-12"/>
      <point x="822" y="47"/>
      <point x="822" y="212" type="curve" smooth="yes"/>
      <point x="822" y="372"/>
      <point x="722" y="544"/>
      <point x="375" y="583" type="curve"/>
      <point x="362" y="506"/>
      <point x="336" y="482"/>
      <point x="295" y="482" type="curve" smooth="yes"/>
      <point x="257" y="482"/>
      <point x="230" y="503"/>
      <point x="227" y="583" type="curve"/>
      <point x="82" y="570" type="line"/>
      <point x="88" y="409"/>
      <point x="200" y="369"/>
      <point x="292" y="369" type="curve" smooth="yes"/>
      <point x="379" y="369"/>
      <point x="451" y="400"/>
      <point x="489" y="483" type="curve"/>
      <point x="440" y="439" type="line"/>
      <point x="557" y="412"/>
      <point x="676" y="354"/>
      <point x="676" y="213" type="curve" smooth="yes"/>
      <point x="676" y="158"/>
      <point x="661" y="115"/>
      <point x="599" y="115" type="curve" smooth="yes"/>
      <point x="554" y="115"/>
      <point x="517" y="147"/>
      <point x="512" y="220" type="curve"/>
      <point x="381" y="220" type="line"/>
      <point x="375" y="157"/>
      <point x="341" y="115"/>
      <point x="259" y="115" type="curve" smooth="yes"/>
      <point x="183" y="115"/>
      <point x="148" y="139"/>
      <point x="148" y="180" type="curve" smooth="yes"/>
      <point x="148" y="212"/>
      <point x="170" y="229"/>
      <point x="195" y="229" type="curve" smooth="yes"/>
      <point x="217" y="229"/>
      <point x="229" y="217"/>
      <point x="229" y="197" type="curve" smooth="yes"/>
      <point x="229" y="190"/>
      <point x="229" y="183"/>
      <point x="226" y="175" type="curve"/>
      <point x="326" y="167" type="line"/>
      <point x="334" y="182"/>
      <point x="341" y="207"/>
      <point x="341" y="228" type="curve" smooth="yes"/>
      <point x="341" y="296"/>
      <point x="293" y="337"/>
      <point x="200" y="337" type="curve" smooth="yes"/>
      <point x="96" y="337"/>
      <point x="24" y="272"/>
      <point x="24" y="174" type="curve" smooth="yes"/>
      <point x="24" y="62"/>
      <point x="106" y="-12"/>
      <point x="233" y="-12" type="curve" smooth="yes"/>
      <point x="348" y="-12"/>
      <point x="411" y="20"/>
      <point x="479" y="101" type="curve"/>
      <point x="418" y="104" type="line"/>
      <point x="470" y="26"/>
      <point x="530" y="-12"/>
    </contour>
  </outline>
</glyph>
<glyph name="aiknda" format="2">
  <advance width="876"/>
  <unicode hex="0C90"/>
  <outline>
    <contour>
      <point x="629" y="-12" type="curve" smooth="yes"/>
      <point x="745" y="-12"/>
      <point x="840" y="47"/>
      <point x="840" y="254" type="curve" smooth="yes"/>
      <point x="840" y="459"/>
      <point x="738" y="563"/>
      <point x="601" y="563" type="curve" smooth="yes"/>
      <point x="532" y="563"/>
      <point x="469" y="544"/>
      <point x="416" y="477" type="curve"/>
      <point x="426" y="477" type="line"/>
      <point x="374" y="539"/>
      <point x="320" y="563"/>
      <point x="232" y="563" type="curve" smooth="yes"/>
      <point x="114" y="563"/>
      <point x="45" y="503"/>
      <point x="45" y="421" type="curve" smooth="yes"/>
      <point x="45" y="394"/>
      <point x="50" y="366"/>
      <point x="59" y="343" type="curve"/>
      <point x="190" y="367" type="line"/>
      <point x="187" y="378"/>
      <point x="186" y="387"/>
      <point x="186" y="396" type="curve" smooth="yes"/>
      <point x="186" y="419"/>
      <point x="203" y="437"/>
      <point x="248" y="437" type="curve" smooth="yes"/>
      <point x="309" y="437"/>
      <point x="343" y="401"/>
      <point x="359" y="355" type="curve"/>
      <point x="489" y="355" type="line"/>
      <point x="500" y="401"/>
      <point x="532" y="437"/>
      <point x="582" y="437" type="curve" smooth="yes"/>
      <point x="647" y="437"/>
      <point x="694" y="372"/>
      <point x="694" y="252" type="curve" smooth="yes"/>
      <point x="694" y="163"/>
      <point x="671" y="115"/>
      <point x="604" y="115" type="curve" smooth="yes"/>
      <point x="561" y="115"/>
      <point x="522" y="147"/>
      <point x="518" y="220" type="curve"/>
      <point x="387" y="220" type="line"/>
      <point x="381" y="157"/>
      <point x="347" y="115"/>
      <point x="264" y="115" type="curve" smooth="yes"/>
      <point x="189" y="115"/>
      <point x="154" y="139"/>
      <point x="154" y="180" type="curve" smooth="yes"/>
      <point x="154" y="212"/>
      <point x="176" y="229"/>
      <point x="201" y="229" type="curve" smooth="yes"/>
      <point x="223" y="229"/>
      <point x="235" y="217"/>
      <point x="235" y="197" type="curve" smooth="yes"/>
      <point x="235" y="190"/>
      <point x="235" y="183"/>
      <point x="231" y="175" type="curve"/>
      <point x="331" y="167" type="line"/>
      <point x="339" y="182"/>
      <point x="347" y="207"/>
      <point x="347" y="228" type="curve" smooth="yes"/>
      <point x="347" y="296"/>
      <point x="299" y="337"/>
      <point x="206" y="337" type="curve" smooth="yes"/>
      <point x="102" y="337"/>
      <point x="30" y="272"/>
      <point x="30" y="174" type="curve" smooth="yes"/>
      <point x="30" y="62"/>
      <point x="112" y="-12"/>
      <point x="239" y="-12" type="curve" smooth="yes"/>
      <point x="354" y="-12"/>
      <point x="417" y="20"/>
      <point x="484" y="101" type="curve"/>
      <point x="422" y="104" type="line"/>
      <point x="479" y="26"/>
      <point x="528" y="-12"/>
    </contour>
  </outline>
</glyph>
<glyph name="oknda" format="2">
  <advance width="866"/>
  <unicode hex="0C92"/>
  <outline>
    <contour>
      <point x="618" y="-12" type="curve" smooth="yes"/>
      <point x="765" y="-12"/>
      <point x="840" y="57"/>
      <point x="840" y="177" type="curve" smooth="yes"/>
      <point x="840" y="229"/>
      <point x="825" y="291"/>
      <point x="784" y="339" type="curve"/>
      <point x="664" y="272" type="line"/>
      <point x="684" y="249"/>
      <point x="694" y="219"/>
      <point x="694" y="188" type="curve" smooth="yes"/>
      <point x="694" y="142"/>
      <point x="665" y="115"/>
      <point x="611" y="115" type="curve" smooth="yes"/>
      <point x="549" y="115"/>
      <point x="515" y="146"/>
      <point x="507" y="220" type="curve"/>
      <point x="376" y="220" type="line"/>
      <point x="372" y="157"/>
      <point x="333" y="115"/>
      <point x="262" y="115" type="curve" smooth="yes"/>
      <point x="217" y="115"/>
      <point x="195" y="130"/>
      <point x="195" y="159" type="curve" smooth="yes"/>
      <point x="195" y="186"/>
      <point x="208" y="200"/>
      <point x="265" y="235" type="curve" smooth="yes"/>
      <point x="378" y="305"/>
      <point x="416" y="345"/>
      <point x="416" y="422" type="curve" smooth="yes"/>
      <point x="416" y="487"/>
      <point x="371" y="563"/>
      <point x="225" y="563" type="curve" smooth="yes"/>
      <point x="85" y="563"/>
      <point x="24" y="503"/>
      <point x="24" y="421" type="curve" smooth="yes"/>
      <point x="24" y="383"/>
      <point x="37" y="342"/>
      <point x="54" y="314" type="curve"/>
      <point x="175" y="358" type="line"/>
      <point x="168" y="371"/>
      <point x="162" y="391"/>
      <point x="162" y="407" type="curve" smooth="yes"/>
      <point x="162" y="434"/>
      <point x="178" y="453"/>
      <point x="220" y="453" type="curve" smooth="yes"/>
      <point x="257" y="453"/>
      <point x="273" y="438"/>
      <point x="273" y="417" type="curve" smooth="yes"/>
      <point x="273" y="390"/>
      <point x="252" y="371"/>
      <point x="205" y="343" type="curve" smooth="yes"/>
      <point x="86" y="273"/>
      <point x="49" y="228"/>
      <point x="49" y="139" type="curve" smooth="yes"/>
      <point x="49" y="60"/>
      <point x="110" y="-12"/>
      <point x="233" y="-12" type="curve" smooth="yes"/>
      <point x="325" y="-12"/>
      <point x="402" y="7"/>
      <point x="475" y="113" type="curve"/>
      <point x="410" y="108" type="line"/>
      <point x="464" y="25"/>
      <point x="524" y="-12"/>
    </contour>
  </outline>
</glyph>
<glyph name="ooknda" format="2">
  <advance width="866"/>
  <unicode hex="0C93"/>
  <outline>
    <contour>
      <point x="153" y="510" type="curve"/>
      <point x="263" y="552" type="line"/>
      <point x="228" y="572"/>
      <point x="207" y="592"/>
      <point x="207" y="618" type="curve" smooth="yes"/>
      <point x="207" y="643"/>
      <point x="224" y="660"/>
      <point x="284" y="664" type="curve"/>
      <point x="272" y="785" type="line"/>
      <point x="120" y="782"/>
      <point x="69" y="718"/>
      <point x="69" y="646" type="curve" smooth="yes"/>
      <point x="69" y="587"/>
      <point x="104" y="549"/>
    </contour>
    <component base="oknda"/>
  </outline>
</glyph>
<glyph name="auknda" format="2">
  <advance width="867"/>
  <unicode hex="0C94"/>
  <outline>
    <contour>
      <point x="618" y="-12" type="curve" smooth="yes"/>
      <point x="765" y="-12"/>
      <point x="840" y="58"/>
      <point x="840" y="174" type="curve" smooth="yes"/>
      <point x="840" y="227"/>
      <point x="827" y="281"/>
      <point x="798" y="320" type="curve"/>
      <point x="670" y="263" type="line"/>
      <point x="688" y="241"/>
      <point x="694" y="213"/>
      <point x="694" y="185" type="curve" smooth="yes"/>
      <point x="694" y="142"/>
      <point x="665" y="115"/>
      <point x="611" y="115" type="curve" smooth="yes"/>
      <point x="549" y="115"/>
      <point x="515" y="146"/>
      <point x="507" y="220" type="curve"/>
      <point x="376" y="220" type="line"/>
      <point x="372" y="157"/>
      <point x="333" y="115"/>
      <point x="262" y="115" type="curve" smooth="yes"/>
      <point x="217" y="115"/>
      <point x="195" y="130"/>
      <point x="195" y="159" type="curve" smooth="yes"/>
      <point x="195" y="186"/>
      <point x="208" y="200"/>
      <point x="265" y="235" type="curve" smooth="yes"/>
      <point x="378" y="305"/>
      <point x="416" y="345"/>
      <point x="416" y="422" type="curve" smooth="yes"/>
      <point x="416" y="487"/>
      <point x="371" y="563"/>
      <point x="225" y="563" type="curve" smooth="yes"/>
      <point x="85" y="563"/>
      <point x="24" y="503"/>
      <point x="24" y="421" type="curve" smooth="yes"/>
      <point x="24" y="383"/>
      <point x="37" y="342"/>
      <point x="54" y="314" type="curve"/>
      <point x="175" y="358" type="line"/>
      <point x="168" y="371"/>
      <point x="162" y="391"/>
      <point x="162" y="407" type="curve" smooth="yes"/>
      <point x="162" y="434"/>
      <point x="178" y="453"/>
      <point x="220" y="453" type="curve" smooth="yes"/>
      <point x="257" y="453"/>
      <point x="273" y="438"/>
      <point x="273" y="417" type="curve" smooth="yes"/>
      <point x="273" y="390"/>
      <point x="252" y="371"/>
      <point x="205" y="343" type="curve" smooth="yes"/>
      <point x="86" y="273"/>
      <point x="49" y="228"/>
      <point x="49" y="139" type="curve" smooth="yes"/>
      <point x="49" y="60"/>
      <point x="110" y="-12"/>
      <point x="233" y="-12" type="curve" smooth="yes"/>
      <point x="325" y="-12"/>
      <point x="402" y="7"/>
      <point x="475" y="113" type="curve"/>
      <point x="410" y="108" type="line"/>
      <point x="464" y="25"/>
      <point x="524" y="-12"/>
    </contour>
    <contour>
      <point x="88" y="460" type="line"/>
      <point x="176" y="460" type="line" smooth="yes"/>
      <point x="242" y="460"/>
      <point x="296" y="472"/>
      <point x="333" y="500" type="curve" smooth="yes"/>
      <point x="369" y="528"/>
      <point x="377" y="566"/>
      <point x="377" y="592" type="curve" smooth="yes"/>
      <point x="377" y="644"/>
      <point x="355" y="677"/>
      <point x="336" y="703" type="curve"/>
      <point x="208" y="693" type="line"/>
      <point x="232" y="668"/>
      <point x="247" y="638"/>
      <point x="247" y="614" type="curve" smooth="yes"/>
      <point x="247" y="597"/>
      <point x="244" y="585"/>
      <point x="229" y="576" type="curve" smooth="yes"/>
      <point x="218" y="569"/>
      <point x="200" y="563"/>
      <point x="167" y="563" type="curve" smooth="yes"/>
      <point x="88" y="563" type="line"/>
    </contour>
    <contour>
      <point x="610" y="310" type="curve" smooth="yes"/>
      <point x="735" y="310"/>
      <point x="823" y="388"/>
      <point x="823" y="529" type="curve" smooth="yes"/>
      <point x="823" y="611"/>
      <point x="800" y="669"/>
      <point x="747" y="713" type="curve" smooth="yes"/>
      <point x="690" y="760"/>
      <point x="619" y="782"/>
      <point x="473" y="782" type="curve" smooth="yes"/>
      <point x="41" y="782" type="line"/>
      <point x="41" y="657" type="line"/>
      <point x="454" y="657" type="line" smooth="yes"/>
      <point x="565" y="657"/>
      <point x="605" y="645"/>
      <point x="640" y="621" type="curve" smooth="yes"/>
      <point x="672" y="600"/>
      <point x="688" y="568"/>
      <point x="688" y="522" type="curve" smooth="yes"/>
      <point x="688" y="453"/>
      <point x="659" y="418"/>
      <point x="603" y="418" type="curve" smooth="yes"/>
      <point x="554" y="418"/>
      <point x="539" y="449"/>
      <point x="539" y="480" type="curve" smooth="yes"/>
      <point x="539" y="490"/>
      <point x="541" y="500"/>
      <point x="542" y="506" type="curve"/>
      <point x="524" y="497" type="line"/>
      <point x="536" y="468"/>
      <point x="562" y="459"/>
      <point x="583" y="459" type="curve" smooth="yes"/>
      <point x="621" y="459"/>
      <point x="640" y="485"/>
      <point x="640" y="521" type="curve" smooth="yes"/>
      <point x="640" y="563"/>
      <point x="613" y="596"/>
      <point x="552" y="596" type="curve" smooth="yes"/>
      <point x="480" y="596"/>
      <point x="435" y="545"/>
      <point x="435" y="471" type="curve" smooth="yes"/>
      <point x="435" y="375"/>
      <point x="493" y="310"/>
    </contour>
  </outline>
</glyph>
<glyph name="kaknda" format="2">
  <advance width="637"/>
  <unicode hex="0C95"/>
  <outline>
    <contour>
      <point x="316" y="-12" type="curve" smooth="yes"/>
      <point x="507" y="-12"/>
      <point x="583" y="62"/>
      <point x="583" y="148" type="curve" smooth="yes"/>
      <point x="583" y="205"/>
      <point x="557" y="244"/>
      <point x="504" y="274" type="curve"/>
      <point x="517" y="257" type="line"/>
      <point x="601" y="256" type="line"/>
      <point x="601" y="358" type="line"/>
      <point x="402" y="358" type="line"/>
      <point x="410" y="369"/>
      <point x="415" y="383"/>
      <point x="415" y="402" type="curve" smooth="yes"/>
      <point x="415" y="416"/>
      <point x="407" y="432"/>
      <point x="394" y="449" type="curve"/>
      <point x="337" y="460" type="line"/>
      <point x="259" y="449" type="line"/>
      <point x="276" y="436"/>
      <point x="287" y="420"/>
      <point x="287" y="403" type="curve" smooth="yes"/>
      <point x="287" y="384"/>
      <point x="270" y="368"/>
      <point x="245" y="358" type="curve"/>
      <point x="36" y="358" type="line"/>
      <point x="36" y="256" type="line"/>
      <point x="117" y="257" type="line"/>
      <point x="129" y="274" type="line"/>
      <point x="77" y="237"/>
      <point x="58" y="202"/>
      <point x="58" y="146" type="curve" smooth="yes"/>
      <point x="58" y="61"/>
      <point x="139" y="-12"/>
    </contour>
    <contour>
      <point x="320" y="112" type="curve" smooth="yes"/>
      <point x="241" y="112"/>
      <point x="203" y="144"/>
      <point x="203" y="191" type="curve" smooth="yes"/>
      <point x="203" y="237"/>
      <point x="240" y="271"/>
      <point x="320" y="271" type="curve" smooth="yes"/>
      <point x="398" y="271"/>
      <point x="438" y="239"/>
      <point x="438" y="191" type="curve" smooth="yes"/>
      <point x="438" y="148"/>
      <point x="405" y="112"/>
    </contour>
    <contour>
      <point x="35" y="426" type="line"/>
      <point x="369" y="426" type="line" smooth="yes"/>
      <point x="474" y="426"/>
      <point x="525" y="441"/>
      <point x="563" y="475" type="curve" smooth="yes"/>
      <point x="598" y="508"/>
      <point x="606" y="555"/>
      <point x="606" y="586" type="curve" smooth="yes"/>
      <point x="606" y="653"/>
      <point x="587" y="708"/>
      <point x="523" y="788" type="curve"/>
      <point x="412" y="723" type="line"/>
      <point x="447" y="683"/>
      <point x="466" y="650"/>
      <point x="466" y="613" type="curve" smooth="yes"/>
      <point x="466" y="592"/>
      <point x="462" y="578"/>
      <point x="444" y="567" type="curve" smooth="yes"/>
      <point x="430" y="558"/>
      <point x="408" y="552"/>
      <point x="336" y="552" type="curve" smooth="yes"/>
      <point x="35" y="552" type="line"/>
    </contour>
  </outline>
</glyph>
<glyph name="khaknda" format="2">
  <advance width="922"/>
  <unicode hex="0C96"/>
  <outline>
    <contour>
      <point x="644" y="-12" type="curve" smooth="yes"/>
      <point x="806" y="-12"/>
      <point x="888" y="94"/>
      <point x="888" y="249" type="curve" smooth="yes"/>
      <point x="888" y="425"/>
      <point x="786" y="544"/>
      <point x="624" y="629" type="curve"/>
      <point x="543" y="506" type="line"/>
      <point x="636" y="458"/>
      <point x="741" y="382"/>
      <point x="741" y="250" type="curve" smooth="yes"/>
      <point x="741" y="167"/>
      <point x="702" y="115"/>
      <point x="621" y="115" type="curve" smooth="yes"/>
      <point x="560" y="115"/>
      <point x="522" y="134"/>
      <point x="445" y="185" type="curve"/>
      <point x="417" y="194" type="line"/>
      <point x="335" y="245"/>
      <point x="284" y="270"/>
      <point x="193" y="270" type="curve" smooth="yes"/>
      <point x="75" y="270"/>
      <point x="22" y="208"/>
      <point x="22" y="138" type="curve" smooth="yes"/>
      <point x="22" y="39"/>
      <point x="91" y="-12"/>
      <point x="217" y="-12" type="curve" smooth="yes"/>
      <point x="318" y="-12"/>
      <point x="404" y="17"/>
      <point x="474" y="110" type="curve"/>
      <point x="513" y="160"/>
      <point x="532" y="224"/>
      <point x="532" y="298" type="curve" smooth="yes"/>
      <point x="532" y="457"/>
      <point x="446" y="563"/>
      <point x="274" y="563" type="curve" smooth="yes"/>
      <point x="161" y="563"/>
      <point x="87" y="508"/>
      <point x="87" y="416" type="curve" smooth="yes"/>
      <point x="87" y="323"/>
      <point x="150" y="284"/>
      <point x="228" y="284" type="curve" smooth="yes"/>
      <point x="293" y="284"/>
      <point x="324" y="312"/>
      <point x="324" y="361" type="curve" smooth="yes"/>
      <point x="324" y="392"/>
      <point x="301" y="416"/>
      <point x="271" y="416" type="curve" smooth="yes"/>
      <point x="239" y="416"/>
      <point x="216" y="398"/>
      <point x="215" y="361" type="curve"/>
      <point x="224" y="368" type="line"/>
      <point x="209" y="380"/>
      <point x="209" y="392"/>
      <point x="209" y="402" type="curve" smooth="yes"/>
      <point x="209" y="437"/>
      <point x="249" y="452"/>
      <point x="279" y="452" type="curve" smooth="yes"/>
      <point x="355" y="452"/>
      <point x="388" y="393"/>
      <point x="388" y="298" type="curve" smooth="yes"/>
      <point x="388" y="189"/>
      <point x="344" y="102"/>
      <point x="222" y="102" type="curve" smooth="yes"/>
      <point x="173" y="102"/>
      <point x="159" y="118"/>
      <point x="159" y="135" type="curve" smooth="yes"/>
      <point x="159" y="149"/>
      <point x="169" y="164"/>
      <point x="208" y="164" type="curve" smooth="yes"/>
      <point x="264" y="164"/>
      <point x="315" y="130"/>
      <point x="375" y="90" type="curve"/>
      <point x="381" y="86"/>
      <point x="386" y="80"/>
      <point x="392" y="76" type="curve"/>
      <point x="481" y="12"/>
      <point x="542" y="-12"/>
    </contour>
  </outline>
</glyph>
<glyph name="gaknda" format="2">
  <advance width="701"/>
  <unicode hex="0C97"/>
  <outline>
    <contour>
      <point x="351" y="426" type="curve" smooth="yes"/>
      <point x="415" y="426"/>
      <point x="454" y="378"/>
      <point x="479" y="301" type="curve" smooth="yes"/>
      <point x="494" y="255"/>
      <point x="501" y="195"/>
      <point x="501" y="80" type="curve" smooth="yes"/>
      <point x="501" y="0" type="line"/>
      <point x="655" y="0" type="line"/>
      <point x="655" y="114" type="line" smooth="yes"/>
      <point x="655" y="246"/>
      <point x="644" y="360"/>
      <point x="530" y="441" type="curve"/>
      <point x="515" y="433" type="line"/>
      <point x="626" y="450"/>
      <point x="655" y="523"/>
      <point x="655" y="585" type="curve" smooth="yes"/>
      <point x="655" y="654"/>
      <point x="636" y="708"/>
      <point x="571" y="788" type="curve"/>
      <point x="460" y="723" type="line"/>
      <point x="495" y="683"/>
      <point x="515" y="650"/>
      <point x="515" y="613" type="curve" smooth="yes"/>
      <point x="515" y="592"/>
      <point x="511" y="578"/>
      <point x="493" y="567" type="curve" smooth="yes"/>
      <point x="479" y="558"/>
      <point x="457" y="552"/>
      <point x="385" y="552" type="curve" smooth="yes"/>
      <point x="42" y="552" type="line"/>
      <point x="42" y="426" type="line"/>
      <point x="226" y="426" type="line"/>
      <point x="198" y="448" type="line"/>
      <point x="76" y="391"/>
      <point x="46" y="263"/>
      <point x="46" y="112" type="curve" smooth="yes"/>
      <point x="46" y="0" type="line"/>
      <point x="200" y="0" type="line"/>
      <point x="200" y="83" type="line" smooth="yes"/>
      <point x="200" y="184"/>
      <point x="206" y="245"/>
      <point x="219" y="290" type="curve" smooth="yes"/>
      <point x="241" y="369"/>
      <point x="278" y="426"/>
    </contour>
  </outline>
</glyph>
<glyph name="ghaknda" format="2">
  <advance width="1077"/>
  <unicode hex="0C98"/>
  <outline>
    <contour>
      <point x="238" y="-12" type="curve" smooth="yes"/>
      <point x="353" y="-12"/>
      <point x="416" y="20"/>
      <point x="483" y="101" type="curve"/>
      <point x="423" y="103" type="line"/>
      <point x="475" y="25"/>
      <point x="534" y="-12"/>
      <point x="634" y="-12" type="curve" smooth="yes"/>
      <point x="738" y="-12"/>
      <point x="827" y="50"/>
      <point x="827" y="175" type="curve" smooth="yes"/>
      <point x="827" y="265"/>
      <point x="776" y="311"/>
      <point x="729" y="374" type="curve"/>
      <point x="729" y="387" type="line"/>
      <point x="615" y="318" type="line"/>
      <point x="659" y="271"/>
      <point x="681" y="234"/>
      <point x="681" y="182" type="curve" smooth="yes"/>
      <point x="681" y="149"/>
      <point x="665" y="115"/>
      <point x="606" y="115" type="curve" smooth="yes"/>
      <point x="560" y="115"/>
      <point x="522" y="147"/>
      <point x="517" y="220" type="curve"/>
      <point x="386" y="220" type="line"/>
      <point x="380" y="157"/>
      <point x="346" y="115"/>
      <point x="263" y="115" type="curve" smooth="yes"/>
      <point x="188" y="115"/>
      <point x="153" y="139"/>
      <point x="153" y="180" type="curve" smooth="yes"/>
      <point x="153" y="212"/>
      <point x="175" y="229"/>
      <point x="200" y="229" type="curve" smooth="yes"/>
      <point x="222" y="229"/>
      <point x="234" y="217"/>
      <point x="234" y="197" type="curve" smooth="yes"/>
      <point x="234" y="190"/>
      <point x="233" y="183"/>
      <point x="230" y="175" type="curve"/>
      <point x="330" y="167" type="line"/>
      <point x="338" y="182"/>
      <point x="346" y="207"/>
      <point x="346" y="228" type="curve" smooth="yes"/>
      <point x="346" y="296"/>
      <point x="298" y="337"/>
      <point x="204" y="337" type="curve" smooth="yes"/>
      <point x="100" y="337"/>
      <point x="29" y="272"/>
      <point x="29" y="174" type="curve" smooth="yes"/>
      <point x="29" y="62"/>
      <point x="110" y="-12"/>
    </contour>
    <contour>
      <point x="375" y="-144" type="line"/>
      <point x="526" y="-144" type="line"/>
      <point x="514" y="8" type="line"/>
      <point x="388" y="8" type="line"/>
    </contour>
    <contour>
      <point x="445" y="261" type="curve" smooth="yes"/>
      <point x="494" y="261"/>
      <point x="524" y="293"/>
      <point x="524" y="334" type="curve" smooth="yes"/>
      <point x="524" y="376"/>
      <point x="492" y="409"/>
      <point x="445" y="409" type="curve" smooth="yes"/>
      <point x="398" y="409"/>
      <point x="368" y="376"/>
      <point x="368" y="334" type="curve" smooth="yes"/>
      <point x="368" y="293"/>
      <point x="396" y="261"/>
    </contour>
    <contour>
      <point x="29" y="426" type="line"/>
      <point x="589" y="426" type="line" smooth="yes"/>
      <point x="694" y="426"/>
      <point x="746" y="441"/>
      <point x="783" y="475" type="curve" smooth="yes"/>
      <point x="818" y="508"/>
      <point x="827" y="555"/>
      <point x="827" y="586" type="curve" smooth="yes"/>
      <point x="827" y="653"/>
      <point x="808" y="708"/>
      <point x="743" y="788" type="curve"/>
      <point x="632" y="723" type="line"/>
      <point x="667" y="683"/>
      <point x="687" y="650"/>
      <point x="687" y="613" type="curve" smooth="yes"/>
      <point x="687" y="592"/>
      <point x="683" y="578"/>
      <point x="665" y="567" type="curve" smooth="yes"/>
      <point x="650" y="558"/>
      <point x="628" y="552"/>
      <point x="556" y="552" type="curve" smooth="yes"/>
      <point x="29" y="552" type="line"/>
    </contour>
    <contour>
      <point x="881" y="188" type="curve" smooth="yes"/>
      <point x="969" y="188"/>
      <point x="1052" y="231"/>
      <point x="1052" y="350" type="curve" smooth="yes"/>
      <point x="1052" y="436"/>
      <point x="1002" y="511"/>
      <point x="936" y="564" type="curve"/>
      <point x="841" y="472" type="line"/>
      <point x="878" y="441"/>
      <point x="908" y="408"/>
      <point x="908" y="357" type="curve" smooth="yes"/>
      <point x="908" y="327"/>
      <point x="892" y="300"/>
      <point x="854" y="300" type="curve" smooth="yes"/>
      <point x="804" y="300"/>
      <point x="777" y="317"/>
      <point x="729" y="387" type="curve"/>
      <point x="695" y="314" type="line"/>
      <point x="767" y="216"/>
      <point x="808" y="188"/>
    </contour>
  </outline>
</glyph>
<glyph name="ngaknda" format="2">
  <advance width="866"/>
  <unicode hex="0C99"/>
  <outline>
    <contour>
      <point x="618" y="-12" type="curve" smooth="yes"/>
      <point x="765" y="-12"/>
      <point x="840" y="58"/>
      <point x="840" y="174" type="curve" smooth="yes"/>
      <point x="840" y="221"/>
      <point x="828" y="269"/>
      <point x="806" y="307" type="curve"/>
      <point x="676" y="254" type="line"/>
      <point x="689" y="233"/>
      <point x="694" y="209"/>
      <point x="694" y="185" type="curve" smooth="yes"/>
      <point x="694" y="142"/>
      <point x="665" y="115"/>
      <point x="611" y="115" type="curve" smooth="yes"/>
      <point x="549" y="115"/>
      <point x="515" y="146"/>
      <point x="507" y="220" type="curve"/>
      <point x="376" y="220" type="line"/>
      <point x="372" y="157"/>
      <point x="333" y="115"/>
      <point x="262" y="115" type="curve" smooth="yes"/>
      <point x="217" y="115"/>
      <point x="195" y="130"/>
      <point x="195" y="159" type="curve" smooth="yes"/>
      <point x="195" y="186"/>
      <point x="208" y="200"/>
      <point x="265" y="235" type="curve" smooth="yes"/>
      <point x="378" y="305"/>
      <point x="416" y="345"/>
      <point x="416" y="422" type="curve" smooth="yes"/>
      <point x="416" y="487"/>
      <point x="371" y="563"/>
      <point x="225" y="563" type="curve" smooth="yes"/>
      <point x="85" y="563"/>
      <point x="24" y="503"/>
      <point x="24" y="421" type="curve" smooth="yes"/>
      <point x="24" y="383"/>
      <point x="37" y="342"/>
      <point x="54" y="314" type="curve"/>
      <point x="175" y="358" type="line"/>
      <point x="168" y="371"/>
      <point x="162" y="391"/>
      <point x="162" y="407" type="curve" smooth="yes"/>
      <point x="162" y="434"/>
      <point x="178" y="453"/>
      <point x="220" y="453" type="curve" smooth="yes"/>
      <point x="257" y="453"/>
      <point x="273" y="438"/>
      <point x="273" y="417" type="curve" smooth="yes"/>
      <point x="273" y="390"/>
      <point x="252" y="371"/>
      <point x="205" y="343" type="curve" smooth="yes"/>
      <point x="86" y="273"/>
      <point x="49" y="228"/>
      <point x="49" y="139" type="curve" smooth="yes"/>
      <point x="49" y="60"/>
      <point x="110" y="-12"/>
      <point x="233" y="-12" type="curve" smooth="yes"/>
      <point x="325" y="-12"/>
      <point x="402" y="6"/>
      <point x="474" y="113" type="curve"/>
      <point x="410" y="108" type="line"/>
      <point x="463" y="25"/>
      <point x="524" y="-12"/>
    </contour>
    <contour>
      <point x="508" y="247" type="curve" smooth="yes"/>
      <point x="557" y="247"/>
      <point x="587" y="279"/>
      <point x="587" y="320" type="curve" smooth="yes"/>
      <point x="587" y="362"/>
      <point x="555" y="395"/>
      <point x="508" y="395" type="curve" smooth="yes"/>
      <point x="461" y="395"/>
      <point x="431" y="362"/>
      <point x="431" y="320" type="curve" smooth="yes"/>
      <point x="431" y="279"/>
      <point x="458" y="247"/>
    </contour>
    <contour>
      <point x="592" y="563" type="curve" smooth="yes"/>
      <point x="473" y="563"/>
      <point x="399" y="515"/>
      <point x="331" y="455" type="curve"/>
      <point x="322" y="391" type="line"/>
      <point x="366" y="340" type="line"/>
      <point x="423" y="411"/>
      <point x="503" y="455"/>
      <point x="565" y="455" type="curve" smooth="yes"/>
      <point x="619" y="455"/>
      <point x="657" y="436"/>
      <point x="657" y="386" type="curve" smooth="yes"/>
      <point x="657" y="366"/>
      <point x="655" y="356"/>
      <point x="652" y="344" type="curve"/>
      <point x="788" y="328" type="line"/>
      <point x="794" y="349"/>
      <point x="797" y="369"/>
      <point x="797" y="397" type="curve" smooth="yes"/>
      <point x="797" y="499"/>
      <point x="720" y="563"/>
    </contour>
  </outline>
</glyph>
<glyph name="caknda" format="2">
  <advance width="894"/>
  <unicode hex="0C9A"/>
  <outline>
    <contour>
      <point x="626" y="-12" type="curve" smooth="yes"/>
      <point x="765" y="-12"/>
      <point x="840" y="52"/>
      <point x="840" y="156" type="curve" smooth="yes"/>
      <point x="840" y="237"/>
      <point x="795" y="278"/>
      <point x="712" y="311" type="curve"/>
      <point x="602" y="266" type="line"/>
      <point x="644" y="259"/>
      <point x="694" y="232"/>
      <point x="694" y="177" type="curve" smooth="yes"/>
      <point x="694" y="137"/>
      <point x="665" y="115"/>
      <point x="615" y="115" type="curve" smooth="yes"/>
      <point x="549" y="115"/>
      <point x="515" y="149"/>
      <point x="507" y="220" type="curve"/>
      <point x="376" y="220" type="line"/>
      <point x="372" y="157"/>
      <point x="333" y="115"/>
      <point x="262" y="115" type="curve" smooth="yes"/>
      <point x="217" y="115"/>
      <point x="195" y="130"/>
      <point x="195" y="159" type="curve" smooth="yes"/>
      <point x="195" y="186"/>
      <point x="208" y="200"/>
      <point x="265" y="235" type="curve" smooth="yes"/>
      <point x="378" y="305"/>
      <point x="416" y="345"/>
      <point x="416" y="422" type="curve" smooth="yes"/>
      <point x="416" y="487"/>
      <point x="371" y="563"/>
      <point x="225" y="563" type="curve" smooth="yes"/>
      <point x="85" y="563"/>
      <point x="24" y="503"/>
      <point x="24" y="421" type="curve" smooth="yes"/>
      <point x="24" y="383"/>
      <point x="37" y="342"/>
      <point x="54" y="314" type="curve"/>
      <point x="175" y="358" type="line"/>
      <point x="168" y="371"/>
      <point x="162" y="391"/>
      <point x="162" y="407" type="curve" smooth="yes"/>
      <point x="162" y="434"/>
      <point x="178" y="453"/>
      <point x="220" y="453" type="curve" smooth="yes"/>
      <point x="257" y="453"/>
      <point x="273" y="438"/>
      <point x="273" y="417" type="curve" smooth="yes"/>
      <point x="273" y="390"/>
      <point x="252" y="371"/>
      <point x="205" y="343" type="curve" smooth="yes"/>
      <point x="86" y="273"/>
      <point x="49" y="228"/>
      <point x="49" y="139" type="curve" smooth="yes"/>
      <point x="49" y="60"/>
      <point x="110" y="-12"/>
      <point x="233" y="-12" type="curve" smooth="yes"/>
      <point x="325" y="-12"/>
      <point x="402" y="6"/>
      <point x="474" y="113" type="curve"/>
      <point x="413" y="104" type="line"/>
      <point x="460" y="27"/>
      <point x="523" y="-12"/>
    </contour>
    <contour>
      <point x="500" y="256" type="line"/>
      <point x="740" y="256" type="line"/>
      <point x="783" y="261" type="line"/>
      <point x="796" y="258"/>
      <point x="817" y="256"/>
      <point x="840" y="256" type="curve" smooth="yes"/>
      <point x="856" y="256" type="line"/>
      <point x="856" y="358" type="line"/>
      <point x="763" y="358" type="line"/>
      <point x="771" y="369"/>
      <point x="775" y="383"/>
      <point x="775" y="402" type="curve" smooth="yes"/>
      <point x="775" y="420"/>
      <point x="769" y="434"/>
      <point x="755" y="451" type="curve"/>
      <point x="698" y="460" type="line"/>
      <point x="620" y="449" type="line"/>
      <point x="637" y="436"/>
      <point x="648" y="420"/>
      <point x="648" y="403" type="curve" smooth="yes"/>
      <point x="648" y="384"/>
      <point x="630" y="368"/>
      <point x="605" y="358" type="curve"/>
      <point x="500" y="358" type="line"/>
    </contour>
    <contour>
      <point x="499" y="426" type="line"/>
      <point x="625" y="426" type="line" smooth="yes"/>
      <point x="729" y="426"/>
      <point x="781" y="441"/>
      <point x="818" y="475" type="curve" smooth="yes"/>
      <point x="854" y="508"/>
      <point x="862" y="555"/>
      <point x="862" y="586" type="curve" smooth="yes"/>
      <point x="862" y="653"/>
      <point x="843" y="708"/>
      <point x="779" y="788" type="curve"/>
      <point x="668" y="723" type="line"/>
      <point x="703" y="683"/>
      <point x="722" y="650"/>
      <point x="722" y="613" type="curve" smooth="yes"/>
      <point x="722" y="592"/>
      <point x="718" y="578"/>
      <point x="700" y="567" type="curve" smooth="yes"/>
      <point x="686" y="558"/>
      <point x="664" y="552"/>
      <point x="592" y="552" type="curve" smooth="yes"/>
      <point x="499" y="552" type="line"/>
    </contour>
  </outline>
</glyph>
<glyph name="chaknda" format="2">
  <advance width="924"/>
  <unicode hex="0C9B"/>
  <outline>
    <contour>
      <point x="268" y="-12" type="curve" smooth="yes"/>
      <point x="359" y="-12"/>
      <point x="439" y="16"/>
      <point x="499" y="109" type="curve"/>
      <point x="438" y="107" type="line"/>
      <point x="494" y="25"/>
      <point x="553" y="-12"/>
      <point x="650" y="-12" type="curve" smooth="yes"/>
      <point x="815" y="-12"/>
      <point x="888" y="87"/>
      <point x="888" y="227" type="curve" smooth="yes"/>
      <point x="888" y="376"/>
      <point x="776" y="467"/>
      <point x="641" y="531" type="curve"/>
      <point x="577" y="442" type="line"/>
      <point x="672" y="398"/>
      <point x="742" y="331"/>
      <point x="742" y="232" type="curve" smooth="yes"/>
      <point x="742" y="159"/>
      <point x="703" y="115"/>
      <point x="640" y="115" type="curve" smooth="yes"/>
      <point x="586" y="115"/>
      <point x="540" y="147"/>
      <point x="536" y="220" type="curve"/>
      <point x="404" y="220" type="line"/>
      <point x="394" y="160"/>
      <point x="365" y="115"/>
      <point x="286" y="115" type="curve" smooth="yes"/>
      <point x="193" y="115"/>
      <point x="176" y="193"/>
      <point x="176" y="266" type="curve" smooth="yes"/>
      <point x="176" y="401"/>
      <point x="225" y="456"/>
      <point x="284" y="456" type="curve" smooth="yes"/>
      <point x="313" y="456"/>
      <point x="334" y="438"/>
      <point x="334" y="406" type="curve" smooth="yes"/>
      <point x="334" y="372"/>
      <point x="306" y="347"/>
      <point x="248" y="347" type="curve" smooth="yes"/>
      <point x="187" y="347"/>
      <point x="152" y="390"/>
      <point x="136" y="416" type="curve"/>
      <point x="100" y="306" type="line"/>
      <point x="132" y="271"/>
      <point x="194" y="242"/>
      <point x="274" y="242" type="curve" smooth="yes"/>
      <point x="396" y="242"/>
      <point x="460" y="301"/>
      <point x="460" y="399" type="curve" smooth="yes"/>
      <point x="460" y="495"/>
      <point x="396" y="563"/>
      <point x="289" y="563" type="curve" smooth="yes"/>
      <point x="145" y="563"/>
      <point x="35" y="467"/>
      <point x="35" y="267" type="curve" smooth="yes"/>
      <point x="35" y="107"/>
      <point x="117" y="-12"/>
    </contour>
    <contour>
      <point x="394" y="-144" type="line"/>
      <point x="545" y="-144" type="line"/>
      <point x="532" y="8" type="line"/>
      <point x="406" y="8" type="line"/>
    </contour>
    <contour>
      <point x="528" y="426" type="line"/>
      <point x="650" y="426" type="line" smooth="yes"/>
      <point x="755" y="426"/>
      <point x="807" y="441"/>
      <point x="845" y="476" type="curve" smooth="yes"/>
      <point x="880" y="508"/>
      <point x="888" y="555"/>
      <point x="888" y="586" type="curve" smooth="yes"/>
      <point x="888" y="653"/>
      <point x="869" y="708"/>
      <point x="805" y="788" type="curve"/>
      <point x="693" y="723" type="line"/>
      <point x="728" y="683"/>
      <point x="748" y="650"/>
      <point x="748" y="613" type="curve" smooth="yes"/>
      <point x="748" y="592"/>
      <point x="744" y="578"/>
      <point x="726" y="567" type="curve" smooth="yes"/>
      <point x="712" y="558"/>
      <point x="689" y="552"/>
      <point x="618" y="552" type="curve" smooth="yes"/>
      <point x="528" y="552" type="line"/>
    </contour>
  </outline>
</glyph>
<glyph name="jaknda" format="2">
  <advance width="866"/>
  <unicode hex="0C9C"/>
  <outline>
    <contour>
      <point x="618" y="-12" type="curve" smooth="yes"/>
      <point x="765" y="-12"/>
      <point x="840" y="58"/>
      <point x="840" y="174" type="curve" smooth="yes"/>
      <point x="840" y="227"/>
      <point x="827" y="281"/>
      <point x="798" y="320" type="curve"/>
      <point x="670" y="263" type="line"/>
      <point x="688" y="241"/>
      <point x="694" y="213"/>
      <point x="694" y="185" type="curve" smooth="yes"/>
      <point x="694" y="142"/>
      <point x="665" y="115"/>
      <point x="611" y="115" type="curve" smooth="yes"/>
      <point x="549" y="115"/>
      <point x="515" y="146"/>
      <point x="507" y="220" type="curve"/>
      <point x="376" y="220" type="line"/>
      <point x="372" y="157"/>
      <point x="333" y="115"/>
      <point x="262" y="115" type="curve" smooth="yes"/>
      <point x="217" y="115"/>
      <point x="195" y="130"/>
      <point x="195" y="159" type="curve" smooth="yes"/>
      <point x="195" y="186"/>
      <point x="208" y="200"/>
      <point x="265" y="235" type="curve" smooth="yes"/>
      <point x="378" y="305"/>
      <point x="416" y="345"/>
      <point x="416" y="422" type="curve" smooth="yes"/>
      <point x="416" y="487"/>
      <point x="371" y="563"/>
      <point x="225" y="563" type="curve" smooth="yes"/>
      <point x="85" y="563"/>
      <point x="24" y="503"/>
      <point x="24" y="421" type="curve" smooth="yes"/>
      <point x="24" y="383"/>
      <point x="37" y="342"/>
      <point x="54" y="314" type="curve"/>
      <point x="175" y="358" type="line"/>
      <point x="168" y="371"/>
      <point x="162" y="391"/>
      <point x="162" y="407" type="curve" smooth="yes"/>
      <point x="162" y="434"/>
      <point x="178" y="453"/>
      <point x="220" y="453" type="curve" smooth="yes"/>
      <point x="257" y="453"/>
      <point x="273" y="438"/>
      <point x="273" y="417" type="curve" smooth="yes"/>
      <point x="273" y="390"/>
      <point x="252" y="371"/>
      <point x="205" y="343" type="curve" smooth="yes"/>
      <point x="86" y="273"/>
      <point x="49" y="228"/>
      <point x="49" y="139" type="curve" smooth="yes"/>
      <point x="49" y="60"/>
      <point x="110" y="-12"/>
      <point x="233" y="-12" type="curve" smooth="yes"/>
      <point x="325" y="-12"/>
      <point x="402" y="7"/>
      <point x="475" y="113" type="curve"/>
      <point x="410" y="108" type="line"/>
      <point x="464" y="25"/>
      <point x="524" y="-12"/>
    </contour>
    <contour>
      <point x="574" y="291" type="curve" smooth="yes"/>
      <point x="705" y="291"/>
      <point x="775" y="365"/>
      <point x="775" y="459" type="curve" smooth="yes"/>
      <point x="775" y="502"/>
      <point x="766" y="539"/>
      <point x="752" y="563" type="curve"/>
      <point x="626" y="529" type="line"/>
      <point x="631" y="513"/>
      <point x="635" y="495"/>
      <point x="635" y="473" type="curve" smooth="yes"/>
      <point x="635" y="424"/>
      <point x="601" y="399"/>
      <point x="552" y="399" type="curve" smooth="yes"/>
      <point x="490" y="399"/>
      <point x="428" y="435"/>
      <point x="378" y="510" type="curve"/>
      <point x="322" y="463" type="line"/>
      <point x="340" y="402" type="line"/>
      <point x="379" y="346"/>
      <point x="443" y="291"/>
    </contour>
  </outline>
</glyph>
<glyph name="jhaknda" format="2">
  <advance width="1416"/>
  <unicode hex="0C9D"/>
  <outline>
    <contour>
      <point x="346" y="-12" type="curve" smooth="yes"/>
      <point x="544" y="-12"/>
      <point x="656" y="86"/>
      <point x="656" y="244" type="curve" smooth="yes"/>
      <point x="656" y="335"/>
      <point x="624" y="401"/>
      <point x="549" y="447" type="curve"/>
      <point x="528" y="435" type="line"/>
      <point x="569" y="443"/>
      <point x="598" y="460"/>
      <point x="618" y="481" type="curve" smooth="yes"/>
      <point x="646" y="511"/>
      <point x="656" y="550"/>
      <point x="656" y="585" type="curve" smooth="yes"/>
      <point x="656" y="653"/>
      <point x="638" y="708"/>
      <point x="573" y="788" type="curve"/>
      <point x="462" y="723" type="line"/>
      <point x="497" y="683"/>
      <point x="517" y="650"/>
      <point x="517" y="613" type="curve" smooth="yes"/>
      <point x="517" y="592"/>
      <point x="512" y="577"/>
      <point x="495" y="567" type="curve" smooth="yes"/>
      <point x="480" y="558"/>
      <point x="458" y="552"/>
      <point x="386" y="552" type="curve" smooth="yes"/>
      <point x="36" y="552" type="line"/>
      <point x="36" y="426" type="line"/>
      <point x="196" y="426" type="line"/>
      <point x="174" y="450" type="line"/>
      <point x="78" y="408"/>
      <point x="36" y="338"/>
      <point x="36" y="244" type="curve" smooth="yes"/>
      <point x="36" y="79"/>
      <point x="158" y="-12"/>
    </contour>
    <contour>
      <point x="347" y="118" type="curve" smooth="yes"/>
      <point x="246" y="118"/>
      <point x="182" y="174"/>
      <point x="182" y="271" type="curve" smooth="yes"/>
      <point x="182" y="358"/>
      <point x="241" y="426"/>
      <point x="347" y="426" type="curve" smooth="yes"/>
      <point x="450" y="426"/>
      <point x="510" y="366"/>
      <point x="510" y="271" type="curve" smooth="yes"/>
      <point x="510" y="187"/>
      <point x="457" y="118"/>
    </contour>
    <contour>
      <point x="888" y="-144" type="line"/>
      <point x="1039" y="-144" type="line"/>
      <point x="1026" y="8" type="line"/>
      <point x="900" y="8" type="line"/>
    </contour>
    <contour>
      <point x="782" y="-12" type="curve" smooth="yes"/>
      <point x="943" y="-12"/>
      <point x="1020" y="84"/>
      <point x="1020" y="230" type="curve" smooth="yes"/>
      <point x="1020" y="390"/>
      <point x="919" y="501"/>
      <point x="785" y="565" type="curve"/>
      <point x="708" y="442" type="line"/>
      <point x="804" y="398"/>
      <point x="874" y="335"/>
      <point x="874" y="232" type="curve" smooth="yes"/>
      <point x="874" y="159"/>
      <point x="832" y="115"/>
      <point x="758" y="115" type="curve" smooth="yes"/>
      <point x="688" y="115"/>
      <point x="642" y="157"/>
      <point x="592" y="233" type="curve"/>
      <point x="538" y="107" type="line"/>
      <point x="602" y="36"/>
      <point x="680" y="-12"/>
    </contour>
    <contour>
      <point x="1145" y="-12" type="curve" smooth="yes"/>
      <point x="1305" y="-12"/>
      <point x="1382" y="84"/>
      <point x="1382" y="230" type="curve" smooth="yes"/>
      <point x="1382" y="390"/>
      <point x="1282" y="501"/>
      <point x="1147" y="565" type="curve"/>
      <point x="1071" y="442" type="line"/>
      <point x="1166" y="398"/>
      <point x="1236" y="335"/>
      <point x="1236" y="232" type="curve" smooth="yes"/>
      <point x="1236" y="159"/>
      <point x="1194" y="115"/>
      <point x="1121" y="115" type="curve" smooth="yes"/>
      <point x="1050" y="115"/>
      <point x="1004" y="157"/>
      <point x="954" y="233" type="curve"/>
      <point x="900" y="107" type="line"/>
      <point x="964" y="36"/>
      <point x="1043" y="-12"/>
    </contour>
  </outline>
</glyph>
<glyph name="nyaknda" format="2">
  <advance width="1091"/>
  <unicode hex="0C9E"/>
  <outline>
    <contour>
      <point x="376" y="-12" type="curve" smooth="yes"/>
      <point x="494" y="-12"/>
      <point x="580" y="23"/>
      <point x="642" y="69" type="curve"/>
      <point x="672" y="83" type="line"/>
      <point x="753" y="143"/>
      <point x="778" y="234"/>
      <point x="778" y="308" type="curve" smooth="yes"/>
      <point x="778" y="357"/>
      <point x="770" y="399"/>
      <point x="756" y="434" type="curve" smooth="yes"/>
      <point x="750" y="448"/>
      <point x="735" y="466"/>
      <point x="727" y="479" type="curve" smooth="yes"/>
      <point x="688" y="537"/>
      <point x="633" y="563"/>
      <point x="557" y="563" type="curve" smooth="yes"/>
      <point x="474" y="563"/>
      <point x="417" y="538"/>
      <point x="345" y="439" type="curve"/>
      <point x="415" y="449" type="line"/>
      <point x="357" y="524"/>
      <point x="309" y="563"/>
      <point x="211" y="563" type="curve" smooth="yes"/>
      <point x="101" y="563"/>
      <point x="24" y="502"/>
      <point x="24" y="404" type="curve" smooth="yes"/>
      <point x="24" y="357"/>
      <point x="35" y="322"/>
      <point x="47" y="294" type="curve"/>
      <point x="181" y="336" type="line"/>
      <point x="174" y="350"/>
      <point x="170" y="367"/>
      <point x="170" y="387" type="curve" smooth="yes"/>
      <point x="170" y="421"/>
      <point x="193" y="444"/>
      <point x="229" y="444" type="curve" smooth="yes"/>
      <point x="275" y="444"/>
      <point x="309" y="413"/>
      <point x="316" y="338" type="curve"/>
      <point x="449" y="338" type="line"/>
      <point x="457" y="401"/>
      <point x="490" y="438"/>
      <point x="538" y="438" type="curve" smooth="yes"/>
      <point x="595" y="438"/>
      <point x="631" y="402"/>
      <point x="631" y="315" type="curve" smooth="yes"/>
      <point x="631" y="199"/>
      <point x="558" y="102"/>
      <point x="386" y="102" type="curve" smooth="yes"/>
      <point x="311" y="102"/>
      <point x="292" y="121"/>
      <point x="292" y="151" type="curve" smooth="yes"/>
      <point x="292" y="176"/>
      <point x="315" y="193"/>
      <point x="362" y="193" type="curve" smooth="yes"/>
      <point x="499" y="193"/>
      <point x="578" y="87"/>
      <point x="600" y="-55" type="curve"/>
      <point x="746" y="-30" type="line"/>
      <point x="733" y="38"/>
      <point x="703" y="107"/>
      <point x="657" y="162" type="curve"/>
      <point x="573" y="257"/>
      <point x="497" y="301"/>
      <point x="364" y="301" type="curve" smooth="yes"/>
      <point x="229" y="301"/>
      <point x="153" y="241"/>
      <point x="153" y="149" type="curve" smooth="yes"/>
      <point x="153" y="55"/>
      <point x="222" y="-12"/>
    </contour>
    <contour>
      <point x="880" y="563" type="curve" smooth="yes"/>
      <point x="800" y="563"/>
      <point x="750" y="536"/>
      <point x="708" y="487" type="curve"/>
      <point x="775" y="338" type="line"/>
      <point x="782" y="413"/>
      <point x="816" y="444"/>
      <point x="862" y="444" type="curve" smooth="yes"/>
      <point x="897" y="444"/>
      <point x="921" y="421"/>
      <point x="921" y="387" type="curve" smooth="yes"/>
      <point x="921" y="367"/>
      <point x="917" y="350"/>
      <point x="910" y="336" type="curve"/>
      <point x="1044" y="294" type="line"/>
      <point x="1056" y="322"/>
      <point x="1067" y="357"/>
      <point x="1067" y="404" type="curve" smooth="yes"/>
      <point x="1067" y="502"/>
      <point x="990" y="563"/>
    </contour>
  </outline>
</glyph>
<glyph name="ttaknda" format="2">
  <advance width="907"/>
  <unicode hex="0C9F"/>
  <outline>
    <contour>
      <point x="265" y="-12" type="curve" smooth="yes"/>
      <point x="370" y="-12"/>
      <point x="449" y="17"/>
      <point x="513" y="107" type="curve"/>
      <point x="449" y="111" type="line"/>
      <point x="513" y="18"/>
      <point x="589" y="-12"/>
      <point x="677" y="-12" type="curve" smooth="yes"/>
      <point x="810" y="-12"/>
      <point x="877" y="61"/>
      <point x="877" y="170" type="curve" smooth="yes"/>
      <point x="877" y="241"/>
      <point x="833" y="321"/>
      <point x="720" y="351" type="curve"/>
      <point x="638" y="279" type="line"/>
      <point x="698" y="266"/>
      <point x="731" y="233"/>
      <point x="731" y="186" type="curve" smooth="yes"/>
      <point x="731" y="144"/>
      <point x="706" y="115"/>
      <point x="656" y="115" type="curve" smooth="yes"/>
      <point x="585" y="115"/>
      <point x="557" y="165"/>
      <point x="547" y="220" type="curve"/>
      <point x="416" y="220" type="line"/>
      <point x="405" y="160"/>
      <point x="372" y="115"/>
      <point x="279" y="115" type="curve" smooth="yes"/>
      <point x="218" y="115"/>
      <point x="173" y="150"/>
      <point x="173" y="229" type="curve" smooth="yes"/>
      <point x="173" y="232" type="line" smooth="yes"/>
      <point x="173" y="336"/>
      <point x="214" y="378"/>
      <point x="259" y="378" type="curve" smooth="yes"/>
      <point x="290" y="378"/>
      <point x="304" y="364"/>
      <point x="304" y="337" type="curve" smooth="yes"/>
      <point x="304" y="308"/>
      <point x="284" y="288"/>
      <point x="235" y="288" type="curve" smooth="yes"/>
      <point x="190" y="288"/>
      <point x="158" y="301"/>
      <point x="133" y="318" type="curve"/>
      <point x="125" y="223" type="line"/>
      <point x="158" y="201"/>
      <point x="199" y="186"/>
      <point x="253" y="186" type="curve" smooth="yes"/>
      <point x="376" y="186"/>
      <point x="426" y="252"/>
      <point x="426" y="334" type="curve" smooth="yes"/>
      <point x="426" y="435"/>
      <point x="355" y="484"/>
      <point x="269" y="484" type="curve" smooth="yes"/>
      <point x="120" y="484"/>
      <point x="34" y="386"/>
      <point x="34" y="234" type="curve" smooth="yes"/>
      <point x="34" y="75"/>
      <point x="127" y="-12"/>
    </contour>
    <contour>
      <point x="207" y="416" type="curve"/>
      <point x="303" y="461" type="line"/>
      <point x="270" y="469"/>
      <point x="246" y="487"/>
      <point x="246" y="508" type="curve" smooth="yes"/>
      <point x="246" y="529"/>
      <point x="263" y="539"/>
      <point x="306" y="542" type="curve"/>
      <point x="294" y="663" type="line"/>
      <point x="143" y="659"/>
      <point x="98" y="601"/>
      <point x="98" y="540" type="curve" smooth="yes"/>
      <point x="98" y="493"/>
      <point x="129" y="438"/>
    </contour>
    <contour>
      <point x="565" y="268" type="line"/>
      <point x="654" y="268" type="line" smooth="yes"/>
      <point x="698" y="268"/>
      <point x="704" y="273"/>
      <point x="735" y="282" type="curve" smooth="yes"/>
      <point x="822" y="309"/>
      <point x="861" y="376"/>
      <point x="861" y="442" type="curve" smooth="yes"/>
      <point x="861" y="531"/>
      <point x="798" y="609"/>
      <point x="667" y="641" type="curve"/>
      <point x="623" y="517" type="line"/>
      <point x="694" y="496"/>
      <point x="714" y="472"/>
      <point x="714" y="440" type="curve" smooth="yes"/>
      <point x="714" y="426"/>
      <point x="710" y="411"/>
      <point x="697" y="400" type="curve" smooth="yes"/>
      <point x="682" y="387"/>
      <point x="658" y="380"/>
      <point x="617" y="380" type="curve" smooth="yes"/>
      <point x="565" y="380" type="line"/>
    </contour>
  </outline>
</glyph>
<glyph name="tthaknda" format="2">
  <advance width="700"/>
  <unicode hex="0CA0"/>
  <outline>
    <contour>
      <point x="350" y="-12" type="curve" smooth="yes"/>
      <point x="550" y="-12"/>
      <point x="664" y="86"/>
      <point x="664" y="244" type="curve" smooth="yes"/>
      <point x="664" y="335"/>
      <point x="631" y="401"/>
      <point x="556" y="447" type="curve"/>
      <point x="536" y="435" type="line"/>
      <point x="577" y="443"/>
      <point x="606" y="460"/>
      <point x="626" y="481" type="curve" smooth="yes"/>
      <point x="655" y="511"/>
      <point x="664" y="550"/>
      <point x="664" y="585" type="curve" smooth="yes"/>
      <point x="664" y="653"/>
      <point x="646" y="708"/>
      <point x="581" y="788" type="curve"/>
      <point x="469" y="723" type="line"/>
      <point x="504" y="683"/>
      <point x="525" y="650"/>
      <point x="525" y="613" type="curve" smooth="yes"/>
      <point x="525" y="592"/>
      <point x="519" y="577"/>
      <point x="502" y="567" type="curve" smooth="yes"/>
      <point x="488" y="558"/>
      <point x="465" y="552"/>
      <point x="394" y="552" type="curve" smooth="yes"/>
      <point x="36" y="552" type="line"/>
      <point x="36" y="426" type="line"/>
      <point x="196" y="426" type="line"/>
      <point x="174" y="450" type="line"/>
      <point x="78" y="408"/>
      <point x="36" y="338"/>
      <point x="36" y="244" type="curve" smooth="yes"/>
      <point x="36" y="79"/>
      <point x="160" y="-12"/>
    </contour>
    <contour>
      <point x="351" y="118" type="curve" smooth="yes"/>
      <point x="246" y="118"/>
      <point x="182" y="174"/>
      <point x="182" y="271" type="curve" smooth="yes"/>
      <point x="182" y="358"/>
      <point x="241" y="426"/>
      <point x="351" y="426" type="curve" smooth="yes"/>
      <point x="458" y="426"/>
      <point x="518" y="366"/>
      <point x="518" y="271" type="curve" smooth="yes"/>
      <point x="518" y="187"/>
      <point x="465" y="118"/>
    </contour>
    <contour>
      <point x="349" y="203" type="curve" smooth="yes"/>
      <point x="397" y="203"/>
      <point x="428" y="235"/>
      <point x="428" y="276" type="curve" smooth="yes"/>
      <point x="428" y="318"/>
      <point x="396" y="351"/>
      <point x="349" y="351" type="curve" smooth="yes"/>
      <point x="302" y="351"/>
      <point x="271" y="318"/>
      <point x="271" y="276" type="curve" smooth="yes"/>
      <point x="271" y="235"/>
      <point x="299" y="203"/>
    </contour>
  </outline>
</glyph>
<glyph name="nnaknda" format="2">
  <advance width="969"/>
  <unicode hex="0CA3"/>
  <outline>
    <contour>
      <point x="663" y="-12" type="curve" smooth="yes"/>
      <point x="858" y="-12"/>
      <point x="933" y="109"/>
      <point x="933" y="269" type="curve" smooth="yes"/>
      <point x="933" y="438"/>
      <point x="843" y="563"/>
      <point x="651" y="563" type="curve" smooth="yes"/>
      <point x="540" y="563"/>
      <point x="472" y="519"/>
      <point x="410" y="445" type="curve"/>
      <point x="471" y="451" type="line"/>
      <point x="413" y="518"/>
      <point x="352" y="563"/>
      <point x="242" y="563" type="curve" smooth="yes"/>
      <point x="115" y="563"/>
      <point x="34" y="494"/>
      <point x="34" y="401" type="curve" smooth="yes"/>
      <point x="34" y="327"/>
      <point x="74" y="270"/>
      <point x="166" y="237" type="curve"/>
      <point x="170" y="278" type="line"/>
      <point x="73" y="255"/>
      <point x="28" y="204"/>
      <point x="28" y="131" type="curve" smooth="yes"/>
      <point x="28" y="51"/>
      <point x="87" y="-12"/>
      <point x="221" y="-12" type="curve" smooth="yes"/>
      <point x="293" y="-12"/>
      <point x="350" y="8"/>
      <point x="406" y="41" type="curve"/>
      <point x="340" y="140" type="line"/>
      <point x="310" y="118"/>
      <point x="280" y="107"/>
      <point x="242" y="107" type="curve" smooth="yes"/>
      <point x="193" y="107"/>
      <point x="175" y="129"/>
      <point x="175" y="155" type="curve" smooth="yes"/>
      <point x="175" y="171"/>
      <point x="180" y="182"/>
      <point x="192" y="191" type="curve" smooth="yes"/>
      <point x="206" y="201"/>
      <point x="224" y="207"/>
      <point x="262" y="207" type="curve" smooth="yes"/>
      <point x="299" y="207" type="line"/>
      <point x="299" y="315" type="line"/>
      <point x="273" y="315" type="line" smooth="yes"/>
      <point x="232" y="315"/>
      <point x="213" y="323"/>
      <point x="200" y="334" type="curve" smooth="yes"/>
      <point x="187" y="346"/>
      <point x="181" y="360"/>
      <point x="181" y="376" type="curve" smooth="yes"/>
      <point x="181" y="413"/>
      <point x="208" y="437"/>
      <point x="264" y="437" type="curve" smooth="yes"/>
      <point x="327" y="437"/>
      <point x="367" y="403"/>
      <point x="374" y="338" type="curve"/>
      <point x="508" y="338" type="line"/>
      <point x="526" y="396"/>
      <point x="571" y="437"/>
      <point x="641" y="437" type="curve" smooth="yes"/>
      <point x="736" y="437"/>
      <point x="787" y="372"/>
      <point x="787" y="269" type="curve" smooth="yes"/>
      <point x="787" y="260" type="line" smooth="yes"/>
      <point x="787" y="153"/>
      <point x="740" y="106"/>
      <point x="657" y="106" type="curve" smooth="yes"/>
      <point x="599" y="106"/>
      <point x="576" y="127"/>
      <point x="576" y="160" type="curve" smooth="yes"/>
      <point x="576" y="183"/>
      <point x="591" y="198"/>
      <point x="609" y="198" type="curve" smooth="yes"/>
      <point x="627" y="198"/>
      <point x="638" y="187"/>
      <point x="638" y="168" type="curve" smooth="yes"/>
      <point x="638" y="161"/>
      <point x="636" y="155"/>
      <point x="634" y="148" type="curve"/>
      <point x="729" y="144" type="line"/>
      <point x="735" y="157"/>
      <point x="742" y="181"/>
      <point x="742" y="202" type="curve" smooth="yes"/>
      <point x="742" y="267"/>
      <point x="692" y="307"/>
      <point x="613" y="307" type="curve" smooth="yes"/>
      <point x="523" y="307"/>
      <point x="459" y="246"/>
      <point x="459" y="156" type="curve" smooth="yes"/>
      <point x="459" y="52"/>
      <point x="531" y="-12"/>
    </contour>
  </outline>
</glyph>
<glyph name="daknda" format="2">
  <advance width="820"/>
  <unicode hex="0CA6"/>
  <outline>
    <contour>
      <point x="228" y="-12" type="curve" smooth="yes"/>
      <point x="314" y="-12"/>
      <point x="377" y="14"/>
      <point x="446" y="111" type="curve"/>
      <point x="381" y="104" type="line"/>
      <point x="434" y="26"/>
      <point x="493" y="-12"/>
      <point x="589" y="-12" type="curve" smooth="yes"/>
      <point x="708" y="-12"/>
      <point x="784" y="65"/>
      <point x="784" y="213" type="curve" smooth="yes"/>
      <point x="784" y="317"/>
      <point x="743" y="398"/>
      <point x="662" y="441" type="curve"/>
      <point x="646" y="433" type="line"/>
      <point x="686" y="440"/>
      <point x="715" y="452"/>
      <point x="741" y="475" type="curve" smooth="yes"/>
      <point x="776" y="507"/>
      <point x="784" y="555"/>
      <point x="784" y="586" type="curve" smooth="yes"/>
      <point x="784" y="653"/>
      <point x="766" y="708"/>
      <point x="701" y="788" type="curve"/>
      <point x="590" y="723" type="line"/>
      <point x="625" y="683"/>
      <point x="645" y="650"/>
      <point x="645" y="613" type="curve" smooth="yes"/>
      <point x="645" y="592"/>
      <point x="640" y="578"/>
      <point x="623" y="567" type="curve" smooth="yes"/>
      <point x="608" y="558"/>
      <point x="586" y="552"/>
      <point x="514" y="552" type="curve" smooth="yes"/>
      <point x="36" y="552" type="line"/>
      <point x="36" y="426" type="line"/>
      <point x="205" y="426" type="line"/>
      <point x="180" y="450" type="line"/>
      <point x="82" y="403"/>
      <point x="36" y="319"/>
      <point x="36" y="212" type="curve" smooth="yes"/>
      <point x="36" y="65"/>
      <point x="111" y="-12"/>
    </contour>
    <contour>
      <point x="258" y="115" type="curve" smooth="yes"/>
      <point x="210" y="115"/>
      <point x="182" y="147"/>
      <point x="182" y="219" type="curve" smooth="yes"/>
      <point x="182" y="334"/>
      <point x="260" y="426"/>
      <point x="401" y="426" type="curve" smooth="yes"/>
      <point x="419" y="426" type="line" smooth="yes"/>
      <point x="566" y="426"/>
      <point x="638" y="327"/>
      <point x="638" y="219" type="curve" smooth="yes"/>
      <point x="638" y="146"/>
      <point x="609" y="115"/>
      <point x="562" y="115" type="curve" smooth="yes"/>
      <point x="522" y="115"/>
      <point x="480" y="147"/>
      <point x="476" y="220" type="curve"/>
      <point x="345" y="220" type="line"/>
      <point x="340" y="157"/>
      <point x="308" y="115"/>
    </contour>
  </outline>
</glyph>
<glyph name="naknda" format="2">
  <advance width="770"/>
  <unicode hex="0CA8"/>
  <outline>
    <contour>
      <point x="518" y="-12" type="curve" smooth="yes"/>
      <point x="658" y="-12"/>
      <point x="734" y="58"/>
      <point x="734" y="201" type="curve" smooth="yes"/>
      <point x="734" y="303"/>
      <point x="685" y="383"/>
      <point x="592" y="447" type="curve"/>
      <point x="525" y="428" type="line"/>
      <point x="549" y="428" type="line"/>
      <point x="607" y="433"/>
      <point x="652" y="441"/>
      <point x="689" y="475" type="curve" smooth="yes"/>
      <point x="725" y="508"/>
      <point x="733" y="555"/>
      <point x="733" y="586" type="curve" smooth="yes"/>
      <point x="733" y="653"/>
      <point x="714" y="708"/>
      <point x="650" y="788" type="curve"/>
      <point x="539" y="723" type="line"/>
      <point x="574" y="683"/>
      <point x="593" y="650"/>
      <point x="593" y="613" type="curve" smooth="yes"/>
      <point x="593" y="592"/>
      <point x="589" y="578"/>
      <point x="572" y="567" type="curve" smooth="yes"/>
      <point x="557" y="558"/>
      <point x="535" y="552"/>
      <point x="463" y="552" type="curve" smooth="yes"/>
      <point x="30" y="552" type="line"/>
      <point x="30" y="426" type="line"/>
      <point x="415" y="426" type="line"/>
      <point x="520" y="382"/>
      <point x="588" y="300"/>
      <point x="588" y="206" type="curve" smooth="yes"/>
      <point x="588" y="147"/>
      <point x="564" y="115"/>
      <point x="517" y="115" type="curve" smooth="yes"/>
      <point x="474" y="115"/>
      <point x="443" y="144"/>
      <point x="399" y="201" type="curve" smooth="yes"/>
      <point x="337" y="282"/>
      <point x="285" y="307"/>
      <point x="213" y="307" type="curve" smooth="yes"/>
      <point x="92" y="307"/>
      <point x="29" y="238"/>
      <point x="29" y="138" type="curve" smooth="yes"/>
      <point x="29" y="89"/>
      <point x="55" y="20"/>
      <point x="88" y="-24" type="curve"/>
      <point x="215" y="28" type="line"/>
      <point x="190" y="68"/>
      <point x="174" y="96"/>
      <point x="174" y="133" type="curve" smooth="yes"/>
      <point x="174" y="161"/>
      <point x="189" y="182"/>
      <point x="219" y="182" type="curve" smooth="yes"/>
      <point x="240" y="182"/>
      <point x="254" y="166"/>
      <point x="284" y="126" type="curve" smooth="yes"/>
      <point x="352" y="38"/>
      <point x="413" y="-12"/>
    </contour>
  </outline>
</glyph>
<glyph name="paknda" format="2">
  <advance width="861"/>
  <unicode hex="0CAA"/>
  <outline>
    <contour>
      <point x="238" y="-12" type="curve" smooth="yes"/>
      <point x="353" y="-12"/>
      <point x="416" y="20"/>
      <point x="483" y="101" type="curve"/>
      <point x="423" y="103" type="line"/>
      <point x="475" y="25"/>
      <point x="534" y="-12"/>
      <point x="634" y="-12" type="curve" smooth="yes"/>
      <point x="738" y="-12"/>
      <point x="827" y="50"/>
      <point x="827" y="186" type="curve" smooth="yes"/>
      <point x="827" y="265"/>
      <point x="805" y="336"/>
      <point x="758" y="399" type="curve"/>
      <point x="627" y="346" type="line"/>
      <point x="664" y="296"/>
      <point x="681" y="243"/>
      <point x="681" y="196" type="curve" smooth="yes"/>
      <point x="681" y="158"/>
      <point x="665" y="115"/>
      <point x="606" y="115" type="curve" smooth="yes"/>
      <point x="560" y="115"/>
      <point x="522" y="147"/>
      <point x="517" y="220" type="curve"/>
      <point x="386" y="220" type="line"/>
      <point x="380" y="157"/>
      <point x="346" y="115"/>
      <point x="263" y="115" type="curve" smooth="yes"/>
      <point x="188" y="115"/>
      <point x="153" y="139"/>
      <point x="153" y="180" type="curve" smooth="yes"/>
      <point x="153" y="212"/>
      <point x="175" y="229"/>
      <point x="200" y="229" type="curve" smooth="yes"/>
      <point x="222" y="229"/>
      <point x="234" y="217"/>
      <point x="234" y="197" type="curve" smooth="yes"/>
      <point x="234" y="190"/>
      <point x="233" y="183"/>
      <point x="230" y="175" type="curve"/>
      <point x="330" y="167" type="line"/>
      <point x="338" y="182"/>
      <point x="346" y="207"/>
      <point x="346" y="228" type="curve" smooth="yes"/>
      <point x="346" y="296"/>
      <point x="298" y="337"/>
      <point x="204" y="337" type="curve" smooth="yes"/>
      <point x="100" y="337"/>
      <point x="29" y="272"/>
      <point x="29" y="174" type="curve" smooth="yes"/>
      <point x="29" y="62"/>
      <point x="110" y="-12"/>
    </contour>
    <contour>
      <point x="445" y="261" type="curve" smooth="yes"/>
      <point x="494" y="261"/>
      <point x="524" y="293"/>
      <point x="524" y="334" type="curve" smooth="yes"/>
      <point x="524" y="376"/>
      <point x="492" y="409"/>
      <point x="445" y="409" type="curve" smooth="yes"/>
      <point x="398" y="409"/>
      <point x="368" y="376"/>
      <point x="368" y="334" type="curve" smooth="yes"/>
      <point x="368" y="293"/>
      <point x="396" y="261"/>
    </contour>
    <contour>
      <point x="29" y="426" type="line"/>
      <point x="589" y="426" type="line" smooth="yes"/>
      <point x="694" y="426"/>
      <point x="746" y="441"/>
      <point x="783" y="475" type="curve" smooth="yes"/>
      <point x="818" y="508"/>
      <point x="827" y="555"/>
      <point x="827" y="586" type="curve" smooth="yes"/>
      <point x="827" y="653"/>
      <point x="808" y="708"/>
      <point x="743" y="788" type="curve"/>
      <point x="632" y="723" type="line"/>
      <point x="667" y="683"/>
      <point x="687" y="650"/>
      <point x="687" y="613" type="curve" smooth="yes"/>
      <point x="687" y="592"/>
      <point x="683" y="578"/>
      <point x="665" y="567" type="curve" smooth="yes"/>
      <point x="650" y="558"/>
      <point x="628" y="552"/>
      <point x="556" y="552" type="curve" smooth="yes"/>
      <point x="29" y="552" type="line"/>
    </contour>
  </outline>
</glyph>
<glyph name="baknda" format="2">
  <advance width="888"/>
  <unicode hex="0CAC"/>
  <outline>
    <contour>
      <point x="629" y="-12" type="curve" smooth="yes"/>
      <point x="777" y="-12"/>
      <point x="854" y="84"/>
      <point x="854" y="230" type="curve" smooth="yes"/>
      <point x="854" y="390"/>
      <point x="753" y="501"/>
      <point x="619" y="565" type="curve"/>
      <point x="542" y="442" type="line"/>
      <point x="638" y="398"/>
      <point x="708" y="335"/>
      <point x="708" y="232" type="curve" smooth="yes"/>
      <point x="708" y="159"/>
      <point x="671" y="115"/>
      <point x="605" y="115" type="curve" smooth="yes"/>
      <point x="558" y="115"/>
      <point x="512" y="147"/>
      <point x="507" y="220" type="curve"/>
      <point x="376" y="220" type="line"/>
      <point x="372" y="157"/>
      <point x="333" y="115"/>
      <point x="262" y="115" type="curve" smooth="yes"/>
      <point x="217" y="115"/>
      <point x="195" y="130"/>
      <point x="195" y="159" type="curve" smooth="yes"/>
      <point x="195" y="186"/>
      <point x="208" y="200"/>
      <point x="265" y="235" type="curve" smooth="yes"/>
      <point x="378" y="305"/>
      <point x="416" y="345"/>
      <point x="416" y="422" type="curve" smooth="yes"/>
      <point x="416" y="487"/>
      <point x="371" y="563"/>
      <point x="225" y="563" type="curve" smooth="yes"/>
      <point x="85" y="563"/>
      <point x="24" y="503"/>
      <point x="24" y="421" type="curve" smooth="yes"/>
      <point x="24" y="383"/>
      <point x="37" y="342"/>
      <point x="54" y="314" type="curve"/>
      <point x="175" y="358" type="line"/>
      <point x="168" y="371"/>
      <point x="162" y="391"/>
      <point x="162" y="407" type="curve" smooth="yes"/>
      <point x="162" y="434"/>
      <point x="178" y="453"/>
      <point x="220" y="453" type="curve" smooth="yes"/>
      <point x="257" y="453"/>
      <point x="273" y="438"/>
      <point x="273" y="417" type="curve" smooth="yes"/>
      <point x="273" y="390"/>
      <point x="252" y="371"/>
      <point x="205" y="343" type="curve" smooth="yes"/>
      <point x="86" y="273"/>
      <point x="49" y="228"/>
      <point x="49" y="139" type="curve" smooth="yes"/>
      <point x="49" y="60"/>
      <point x="110" y="-12"/>
      <point x="233" y="-12" type="curve" smooth="yes"/>
      <point x="325" y="-12"/>
      <point x="402" y="7"/>
      <point x="475" y="113" type="curve"/>
      <point x="408" y="109" type="line"/>
      <point x="471" y="20"/>
      <point x="526" y="-12"/>
    </contour>
  </outline>
</glyph>
<glyph name="bhaknda" format="2">
  <advance width="896"/>
  <unicode hex="0CAD"/>
  <outline>
    <contour>
      <point x="233" y="-12" type="curve" smooth="yes"/>
      <point x="312" y="-12"/>
      <point x="379" y="2"/>
      <point x="442" y="71" type="curve"/>
      <point x="436" y="73" type="line"/>
      <point x="482" y="17"/>
      <point x="538" y="-12"/>
      <point x="622" y="-12" type="curve" smooth="yes"/>
      <point x="787" y="-12"/>
      <point x="860" y="87"/>
      <point x="860" y="227" type="curve" smooth="yes"/>
      <point x="860" y="376"/>
      <point x="748" y="467"/>
      <point x="613" y="531" type="curve"/>
      <point x="548" y="442" type="line"/>
      <point x="644" y="398"/>
      <point x="714" y="331"/>
      <point x="714" y="232" type="curve" smooth="yes"/>
      <point x="714" y="159"/>
      <point x="675" y="115"/>
      <point x="611" y="115" type="curve" smooth="yes"/>
      <point x="558" y="115"/>
      <point x="513" y="147"/>
      <point x="508" y="220" type="curve"/>
      <point x="376" y="220" type="line"/>
      <point x="372" y="157"/>
      <point x="333" y="115"/>
      <point x="262" y="115" type="curve" smooth="yes"/>
      <point x="217" y="115"/>
      <point x="195" y="130"/>
      <point x="195" y="159" type="curve" smooth="yes"/>
      <point x="195" y="186"/>
      <point x="208" y="200"/>
      <point x="265" y="235" type="curve" smooth="yes"/>
      <point x="378" y="305"/>
      <point x="416" y="345"/>
      <point x="416" y="422" type="curve" smooth="yes"/>
      <point x="416" y="487"/>
      <point x="371" y="563"/>
      <point x="225" y="563" type="curve" smooth="yes"/>
      <point x="85" y="563"/>
      <point x="24" y="503"/>
      <point x="24" y="421" type="curve" smooth="yes"/>
      <point x="24" y="383"/>
      <point x="37" y="342"/>
      <point x="54" y="314" type="curve"/>
      <point x="175" y="358" type="line"/>
      <point x="168" y="371"/>
      <point x="162" y="391"/>
      <point x="162" y="407" type="curve" smooth="yes"/>
      <point x="162" y="434"/>
      <point x="178" y="453"/>
      <point x="220" y="453" type="curve" smooth="yes"/>
      <point x="257" y="453"/>
      <point x="273" y="438"/>
      <point x="273" y="417" type="curve" smooth="yes"/>
      <point x="273" y="390"/>
      <point x="252" y="371"/>
      <point x="205" y="343" type="curve" smooth="yes"/>
      <point x="86" y="273"/>
      <point x="49" y="228"/>
      <point x="49" y="139" type="curve" smooth="yes"/>
      <point x="49" y="60"/>
      <point x="110" y="-12"/>
    </contour>
    <contour>
      <point x="365" y="-144" type="line"/>
      <point x="517" y="-144" type="line"/>
      <point x="504" y="8" type="line"/>
      <point x="378" y="8" type="line"/>
    </contour>
    <contour>
      <point x="500" y="426" type="line"/>
      <point x="622" y="426" type="line" smooth="yes"/>
      <point x="727" y="426"/>
      <point x="779" y="441"/>
      <point x="817" y="476" type="curve" smooth="yes"/>
      <point x="852" y="508"/>
      <point x="860" y="555"/>
      <point x="860" y="586" type="curve" smooth="yes"/>
      <point x="860" y="653"/>
      <point x="841" y="708"/>
      <point x="776" y="788" type="curve"/>
      <point x="665" y="723" type="line"/>
      <point x="700" y="683"/>
      <point x="720" y="650"/>
      <point x="720" y="613" type="curve" smooth="yes"/>
      <point x="720" y="592"/>
      <point x="716" y="578"/>
      <point x="698" y="567" type="curve" smooth="yes"/>
      <point x="684" y="558"/>
      <point x="661" y="552"/>
      <point x="589" y="552" type="curve" smooth="yes"/>
      <point x="500" y="552" type="line"/>
    </contour>
  </outline>
</glyph>
<glyph name="raknda" format="2">
  <advance width="692"/>
  <unicode hex="0CB0"/>
  <outline>
    <contour>
      <point x="346" y="-12" type="curve" smooth="yes"/>
      <point x="544" y="-12"/>
      <point x="656" y="86"/>
      <point x="656" y="244" type="curve" smooth="yes"/>
      <point x="656" y="335"/>
      <point x="624" y="401"/>
      <point x="549" y="447" type="curve"/>
      <point x="528" y="435" type="line"/>
      <point x="569" y="443"/>
      <point x="598" y="460"/>
      <point x="618" y="481" type="curve" smooth="yes"/>
      <point x="646" y="511"/>
      <point x="656" y="550"/>
      <point x="656" y="585" type="curve" smooth="yes"/>
      <point x="656" y="653"/>
      <point x="638" y="708"/>
      <point x="573" y="788" type="curve"/>
      <point x="462" y="723" type="line"/>
      <point x="497" y="683"/>
      <point x="517" y="650"/>
      <point x="517" y="613" type="curve" smooth="yes"/>
      <point x="517" y="592"/>
      <point x="512" y="577"/>
      <point x="495" y="567" type="curve" smooth="yes"/>
      <point x="480" y="558"/>
      <point x="458" y="552"/>
      <point x="386" y="552" type="curve" smooth="yes"/>
      <point x="36" y="552" type="line"/>
      <point x="36" y="426" type="line"/>
      <point x="196" y="426" type="line"/>
      <point x="174" y="450" type="line"/>
      <point x="78" y="408"/>
      <point x="36" y="338"/>
      <point x="36" y="244" type="curve" smooth="yes"/>
      <point x="36" y="79"/>
      <point x="158" y="-12"/>
    </contour>
    <contour>
      <point x="347" y="118" type="curve" smooth="yes"/>
      <point x="246" y="118"/>
      <point x="182" y="174"/>
      <point x="182" y="271" type="curve" smooth="yes"/>
      <point x="182" y="358"/>
      <point x="241" y="426"/>
      <point x="347" y="426" type="curve" smooth="yes"/>
      <point x="450" y="426"/>
      <point x="510" y="366"/>
      <point x="510" y="271" type="curve" smooth="yes"/>
      <point x="510" y="187"/>
      <point x="457" y="118"/>
    </contour>
  </outline>
</glyph>
<glyph name="rraknda" format="2">
  <advance width="982"/>
  <unicode hex="0CB1"/>
  <outline>
    <contour>
      <point x="278" y="-12" type="curve" smooth="yes"/>
      <point x="375" y="-12"/>
      <point x="458" y="17"/>
      <point x="523" y="107" type="curve"/>
      <point x="460" y="107" type="line"/>
      <point x="522" y="17"/>
      <point x="607" y="-12"/>
      <point x="704" y="-12" type="curve" smooth="yes"/>
      <point x="861" y="-12"/>
      <point x="947" y="107"/>
      <point x="947" y="267" type="curve" smooth="yes"/>
      <point x="947" y="468"/>
      <point x="837" y="563"/>
      <point x="694" y="563" type="curve" smooth="yes"/>
      <point x="586" y="563"/>
      <point x="522" y="495"/>
      <point x="522" y="399" type="curve" smooth="yes"/>
      <point x="522" y="357"/>
      <point x="538" y="318"/>
      <point x="569" y="290" type="curve" smooth="yes"/>
      <point x="600" y="260"/>
      <point x="647" y="242"/>
      <point x="708" y="242" type="curve" smooth="yes"/>
      <point x="788" y="242"/>
      <point x="850" y="271"/>
      <point x="882" y="306" type="curve"/>
      <point x="847" y="416" type="line"/>
      <point x="831" y="390"/>
      <point x="796" y="347"/>
      <point x="734" y="347" type="curve" smooth="yes"/>
      <point x="677" y="347"/>
      <point x="649" y="372"/>
      <point x="649" y="406" type="curve" smooth="yes"/>
      <point x="649" y="438"/>
      <point x="669" y="456"/>
      <point x="698" y="456" type="curve" smooth="yes"/>
      <point x="757" y="456"/>
      <point x="807" y="401"/>
      <point x="807" y="266" type="curve" smooth="yes"/>
      <point x="807" y="193"/>
      <point x="787" y="115"/>
      <point x="686" y="115" type="curve" smooth="yes"/>
      <point x="600" y="115"/>
      <point x="573" y="158"/>
      <point x="557" y="210" type="curve"/>
      <point x="425" y="210" type="line"/>
      <point x="411" y="160"/>
      <point x="382" y="115"/>
      <point x="296" y="115" type="curve" smooth="yes"/>
      <point x="195" y="115"/>
      <point x="175" y="193"/>
      <point x="175" y="266" type="curve" smooth="yes"/>
      <point x="175" y="401"/>
      <point x="225" y="456"/>
      <point x="284" y="456" type="curve" smooth="yes"/>
      <point x="313" y="456"/>
      <point x="333" y="438"/>
      <point x="333" y="406" type="curve" smooth="yes"/>
      <point x="333" y="372"/>
      <point x="305" y="347"/>
      <point x="248" y="347" type="curve" smooth="yes"/>
      <point x="186" y="347"/>
      <point x="151" y="390"/>
      <point x="135" y="416" type="curve"/>
      <point x="100" y="306" type="line"/>
      <point x="132" y="271"/>
      <point x="194" y="242"/>
      <point x="273" y="242" type="curve" smooth="yes"/>
      <point x="335" y="242"/>
      <point x="383" y="262"/>
      <point x="414" y="292" type="curve" smooth="yes"/>
      <point x="444" y="321"/>
      <point x="459" y="360"/>
      <point x="459" y="399" type="curve" smooth="yes"/>
      <point x="459" y="495"/>
      <point x="396" y="563"/>
      <point x="288" y="563" type="curve" smooth="yes"/>
      <point x="145" y="563"/>
      <point x="35" y="467"/>
      <point x="35" y="267" type="curve" smooth="yes"/>
      <point x="35" y="107"/>
      <point x="121" y="-12"/>
    </contour>
    <contour>
      <point x="273" y="242" type="line"/>
      <point x="708" y="242" type="line"/>
      <point x="587" y="342" type="line"/>
      <point x="565" y="345"/>
      <point x="535" y="347"/>
      <point x="503" y="347" type="curve" smooth="yes"/>
      <point x="478" y="347" type="line" smooth="yes"/>
      <point x="443" y="347"/>
      <point x="417" y="344"/>
      <point x="388" y="342" type="curve"/>
    </contour>
  </outline>
</glyph>
<glyph name="laknda" format="2">
  <advance width="816"/>
  <unicode hex="0CB2"/>
  <outline>
    <contour>
      <point x="416" y="-12" type="curve" smooth="yes"/>
      <point x="679" y="-12"/>
      <point x="784" y="121"/>
      <point x="784" y="284" type="curve" smooth="yes"/>
      <point x="784" y="411"/>
      <point x="709" y="508"/>
      <point x="591" y="565" type="curve"/>
      <point x="515" y="442" type="line"/>
      <point x="596" y="404"/>
      <point x="637" y="355"/>
      <point x="637" y="282" type="curve" smooth="yes"/>
      <point x="637" y="177"/>
      <point x="549" y="117"/>
      <point x="412" y="117" type="curve" smooth="yes"/>
      <point x="249" y="117"/>
      <point x="171" y="204"/>
      <point x="171" y="309" type="curve" smooth="yes"/>
      <point x="171" y="419"/>
      <point x="217" y="456"/>
      <point x="267" y="456" type="curve" smooth="yes"/>
      <point x="296" y="456"/>
      <point x="317" y="438"/>
      <point x="317" y="405" type="curve" smooth="yes"/>
      <point x="317" y="371"/>
      <point x="289" y="347"/>
      <point x="227" y="347" type="curve" smooth="yes"/>
      <point x="172" y="347"/>
      <point x="140" y="381"/>
      <point x="118" y="417" type="curve"/>
      <point x="94" y="313" type="line"/>
      <point x="125" y="280"/>
      <point x="179" y="240"/>
      <point x="265" y="240" type="curve" smooth="yes"/>
      <point x="388" y="240"/>
      <point x="449" y="309"/>
      <point x="449" y="401" type="curve" smooth="yes"/>
      <point x="449" y="500"/>
      <point x="387" y="563"/>
      <point x="277" y="563" type="curve" smooth="yes"/>
      <point x="135" y="563"/>
      <point x="32" y="470"/>
      <point x="32" y="311" type="curve" smooth="yes"/>
      <point x="32" y="122"/>
      <point x="173" y="-12"/>
    </contour>
  </outline>
</glyph>
<glyph name="shaknda" format="2">
  <advance width="698"/>
  <unicode hex="0CB6"/>
  <outline>
    <contour>
      <point x="296" y="-12" type="curve" smooth="yes"/>
      <point x="540" y="-12"/>
      <point x="662" y="98"/>
      <point x="662" y="265" type="curve" smooth="yes"/>
      <point x="662" y="356"/>
      <point x="614" y="446"/>
      <point x="490" y="499" type="curve"/>
      <point x="403" y="485" type="line"/>
      <point x="406" y="457" type="line"/>
      <point x="453" y="434"/>
      <point x="518" y="371"/>
      <point x="518" y="271" type="curve" smooth="yes"/>
      <point x="518" y="176"/>
      <point x="444" y="115"/>
      <point x="295" y="115" type="curve" smooth="yes"/>
      <point x="200" y="115"/>
      <point x="170" y="135"/>
      <point x="170" y="166" type="curve" smooth="yes"/>
      <point x="170" y="194"/>
      <point x="191" y="201"/>
      <point x="278" y="221" type="curve" smooth="yes"/>
      <point x="408" y="252"/>
      <point x="460" y="285"/>
      <point x="460" y="371" type="curve" smooth="yes"/>
      <point x="460" y="451"/>
      <point x="369" y="499"/>
      <point x="281" y="499" type="curve" smooth="yes"/>
      <point x="134" y="499"/>
      <point x="67" y="452"/>
      <point x="67" y="399" type="curve" smooth="yes"/>
      <point x="67" y="371"/>
      <point x="74" y="347"/>
      <point x="89" y="318" type="curve"/>
      <point x="227" y="368" type="line"/>
      <point x="223" y="375"/>
      <point x="221" y="385"/>
      <point x="221" y="396" type="curve" smooth="yes"/>
      <point x="221" y="425"/>
      <point x="245" y="435"/>
      <point x="278" y="435" type="curve" smooth="yes"/>
      <point x="309" y="435"/>
      <point x="335" y="426"/>
      <point x="335" y="394" type="curve" smooth="yes"/>
      <point x="335" y="357"/>
      <point x="300" y="347"/>
      <point x="225" y="330" type="curve" smooth="yes"/>
      <point x="116" y="305"/>
      <point x="30" y="271"/>
      <point x="30" y="160" type="curve" smooth="yes"/>
      <point x="30" y="45"/>
      <point x="139" y="-12"/>
    </contour>
    <contour>
      <point x="31" y="426" type="line"/>
      <point x="163" y="426" type="line"/>
      <point x="290" y="449" type="line"/>
      <point x="367" y="426" type="line"/>
      <point x="426" y="426" type="line"/>
      <point x="531" y="426"/>
      <point x="583" y="441"/>
      <point x="620" y="475" type="curve" smooth="yes"/>
      <point x="655" y="508"/>
      <point x="664" y="555"/>
      <point x="664" y="586" type="curve" smooth="yes"/>
      <point x="664" y="653"/>
      <point x="645" y="708"/>
      <point x="580" y="788" type="curve"/>
      <point x="469" y="723" type="line"/>
      <point x="504" y="683"/>
      <point x="523" y="650"/>
      <point x="523" y="613" type="curve" smooth="yes"/>
      <point x="523" y="592"/>
      <point x="520" y="578"/>
      <point x="501" y="567" type="curve" smooth="yes"/>
      <point x="487" y="559"/>
      <point x="465" y="552"/>
      <point x="393" y="552" type="curve" smooth="yes"/>
      <point x="31" y="552" type="line"/>
    </contour>
  </outline>
</glyph>
<glyph name="ssaknda" format="2">
  <advance width="880"/>
  <unicode hex="0CB7"/>
  <outline>
    <contour>
      <point x="238" y="-12" type="curve" smooth="yes"/>
      <point x="353" y="-12"/>
      <point x="416" y="20"/>
      <point x="483" y="101" type="curve"/>
      <point x="424" y="101" type="line"/>
      <point x="477" y="25"/>
      <point x="532" y="-12"/>
      <point x="644" y="-12" type="curve" smooth="yes"/>
      <point x="680" y="-12"/>
      <point x="717" y="-3"/>
      <point x="749" y="13" type="curve" smooth="yes"/>
      <point x="805" y="43"/>
      <point x="846" y="99"/>
      <point x="846" y="186" type="curve" smooth="yes"/>
      <point x="846" y="265"/>
      <point x="825" y="336"/>
      <point x="777" y="399" type="curve"/>
      <point x="646" y="346" type="line"/>
      <point x="686" y="294"/>
      <point x="704" y="241"/>
      <point x="704" y="194" type="curve" smooth="yes"/>
      <point x="704" y="156"/>
      <point x="682" y="112"/>
      <point x="617" y="112" type="curve" smooth="yes"/>
      <point x="560" y="112"/>
      <point x="522" y="147"/>
      <point x="517" y="220" type="curve"/>
      <point x="386" y="220" type="line"/>
      <point x="380" y="157"/>
      <point x="346" y="115"/>
      <point x="263" y="115" type="curve" smooth="yes"/>
      <point x="188" y="115"/>
      <point x="153" y="139"/>
      <point x="153" y="180" type="curve" smooth="yes"/>
      <point x="153" y="212"/>
      <point x="175" y="229"/>
      <point x="200" y="229" type="curve" smooth="yes"/>
      <point x="222" y="229"/>
      <point x="234" y="217"/>
      <point x="234" y="197" type="curve" smooth="yes"/>
      <point x="234" y="190"/>
      <point x="233" y="183"/>
      <point x="230" y="175" type="curve"/>
      <point x="330" y="167" type="line"/>
      <point x="338" y="182"/>
      <point x="346" y="207"/>
      <point x="346" y="228" type="curve" smooth="yes"/>
      <point x="346" y="296"/>
      <point x="298" y="337"/>
      <point x="204" y="337" type="curve" smooth="yes"/>
      <point x="100" y="337"/>
      <point x="29" y="272"/>
      <point x="29" y="174" type="curve" smooth="yes"/>
      <point x="29" y="62"/>
      <point x="110" y="-12"/>
    </contour>
    <contour>
      <point x="445" y="261" type="curve" smooth="yes"/>
      <point x="494" y="261"/>
      <point x="524" y="293"/>
      <point x="524" y="334" type="curve" smooth="yes"/>
      <point x="524" y="376"/>
      <point x="492" y="409"/>
      <point x="445" y="409" type="curve" smooth="yes"/>
      <point x="398" y="409"/>
      <point x="368" y="376"/>
      <point x="368" y="334" type="curve" smooth="yes"/>
      <point x="368" y="293"/>
      <point x="396" y="261"/>
    </contour>
    <contour>
      <point x="734" y="-65" type="line"/>
      <point x="829" y="-4" type="line"/>
      <point x="775" y="73" type="line"/>
      <point x="759" y="85" type="line"/>
      <point x="606" y="310" type="line"/>
      <point x="521" y="257" type="line"/>
      <point x="673" y="37" type="line"/>
      <point x="679" y="17" type="line"/>
    </contour>
    <contour>
      <point x="29" y="426" type="line"/>
      <point x="608" y="426" type="line" smooth="yes"/>
      <point x="713" y="426"/>
      <point x="765" y="441"/>
      <point x="802" y="475" type="curve" smooth="yes"/>
      <point x="838" y="508"/>
      <point x="846" y="555"/>
      <point x="846" y="586" type="curve" smooth="yes"/>
      <point x="846" y="653"/>
      <point x="827" y="708"/>
      <point x="763" y="788" type="curve"/>
      <point x="652" y="723" type="line"/>
      <point x="687" y="683"/>
      <point x="706" y="650"/>
      <point x="706" y="613" type="curve" smooth="yes"/>
      <point x="706" y="592"/>
      <point x="702" y="578"/>
      <point x="684" y="567" type="curve" smooth="yes"/>
      <point x="670" y="558"/>
      <point x="647" y="552"/>
      <point x="576" y="552" type="curve" smooth="yes"/>
      <point x="29" y="552" type="line"/>
    </contour>
  </outline>
</glyph>
<glyph name="haknda" format="2">
  <advance width="861"/>
  <unicode hex="0CB9"/>
  <outline>
    <contour>
      <point x="258" y="-12" type="curve" smooth="yes"/>
      <point x="354" y="-12"/>
      <point x="417" y="27"/>
      <point x="451" y="81" type="curve"/>
      <point x="406" y="81" type="line"/>
      <point x="440" y="25"/>
      <point x="505" y="-12"/>
      <point x="604" y="-12" type="curve" smooth="yes"/>
      <point x="758" y="-12"/>
      <point x="830" y="65"/>
      <point x="830" y="179" type="curve" smooth="yes"/>
      <point x="830" y="293"/>
      <point x="755" y="371"/>
      <point x="625" y="371" type="curve" smooth="yes"/>
      <point x="544" y="371"/>
      <point x="497" y="343"/>
      <point x="475" y="311" type="curve"/>
      <point x="487" y="279" type="line"/>
      <point x="493" y="296"/>
      <point x="495" y="313"/>
      <point x="495" y="329" type="curve" smooth="yes"/>
      <point x="495" y="388"/>
      <point x="457" y="430"/>
      <point x="411" y="444" type="curve"/>
      <point x="227" y="433" type="line"/>
      <point x="334" y="430"/>
      <point x="376" y="373"/>
      <point x="376" y="299" type="curve" smooth="yes"/>
      <point x="376" y="292"/>
      <point x="376" y="287"/>
      <point x="374" y="279" type="curve"/>
      <point x="393" y="310" type="line"/>
      <point x="369" y="346"/>
      <point x="331" y="371"/>
      <point x="252" y="371" type="curve" smooth="yes"/>
      <point x="109" y="371"/>
      <point x="31" y="292"/>
      <point x="31" y="179" type="curve" smooth="yes"/>
      <point x="31" y="61"/>
      <point x="106" y="-12"/>
    </contour>
    <contour>
      <point x="268" y="105" type="curve" smooth="yes"/>
      <point x="210" y="105"/>
      <point x="176" y="130"/>
      <point x="176" y="180" type="curve" smooth="yes"/>
      <point x="176" y="225"/>
      <point x="205" y="255"/>
      <point x="271" y="255" type="curve" smooth="yes"/>
      <point x="328" y="255"/>
      <point x="362" y="228"/>
      <point x="362" y="179" type="curve" smooth="yes"/>
      <point x="362" y="134"/>
      <point x="332" y="105"/>
    </contour>
    <contour>
      <point x="591" y="105" type="curve" smooth="yes"/>
      <point x="534" y="105"/>
      <point x="499" y="131"/>
      <point x="499" y="180" type="curve" smooth="yes"/>
      <point x="499" y="222"/>
      <point x="530" y="255"/>
      <point x="597" y="255" type="curve" smooth="yes"/>
      <point x="651" y="255"/>
      <point x="685" y="228"/>
      <point x="685" y="179" type="curve" smooth="yes"/>
      <point x="685" y="133"/>
      <point x="655" y="105"/>
    </contour>
    <contour>
      <point x="32" y="426" type="line"/>
      <point x="592" y="426" type="line" smooth="yes"/>
      <point x="697" y="426"/>
      <point x="749" y="441"/>
      <point x="786" y="475" type="curve" smooth="yes"/>
      <point x="822" y="508"/>
      <point x="830" y="555"/>
      <point x="830" y="586" type="curve" smooth="yes"/>
      <point x="830" y="653"/>
      <point x="812" y="708"/>
      <point x="747" y="788" type="curve"/>
      <point x="636" y="723" type="line"/>
      <point x="670" y="683"/>
      <point x="690" y="650"/>
      <point x="690" y="613" type="curve" smooth="yes"/>
      <point x="690" y="592"/>
      <point x="686" y="578"/>
      <point x="668" y="567" type="curve" smooth="yes"/>
      <point x="654" y="558"/>
      <point x="632" y="552"/>
      <point x="560" y="552" type="curve" smooth="yes"/>
      <point x="32" y="552" type="line"/>
    </contour>
  </outline>
</glyph>
<glyph name="nuktaknda" format="2">
  <unicode hex="0CBC"/>
  <outline>
    <contour>
      <point x="-161" y="-204" type="curve" smooth="yes"/>
      <point x="-110" y="-204"/>
      <point x="-78" y="-169"/>
      <point x="-78" y="-126" type="curve" smooth="yes"/>
      <point x="-78" y="-83"/>
      <point x="-112" y="-48"/>
      <point x="-161" y="-48" type="curve" smooth="yes"/>
      <point x="-210" y="-48"/>
      <point x="-242" y="-83"/>
      <point x="-242" y="-126" type="curve" smooth="yes"/>
      <point x="-242" y="-169"/>
      <point x="-213" y="-204"/>
    </contour>
    <contour>
      <point x="-400" y="-204" type="curve" smooth="yes"/>
      <point x="-349" y="-204"/>
      <point x="-317" y="-169"/>
      <point x="-317" y="-126" type="curve" smooth="yes"/>
      <point x="-317" y="-83"/>
      <point x="-351" y="-48"/>
      <point x="-400" y="-48" type="curve" smooth="yes"/>
      <point x="-449" y="-48"/>
      <point x="-482" y="-83"/>
      <point x="-482" y="-126" type="curve" smooth="yes"/>
      <point x="-482" y="-169"/>
      <point x="-452" y="-204"/>
    </contour>
  </outline>
</glyph>
<glyph name="avagrahaknda" format="2">
  <advance width="505"/>
  <unicode hex="0CBD"/>
  <outline>
    <contour>
      <point x="262" y="-12" type="curve" smooth="yes"/>
      <point x="408" y="-12"/>
      <point x="479" y="55"/>
      <point x="479" y="151" type="curve" smooth="yes"/>
      <point x="479" y="261"/>
      <point x="416" y="308"/>
      <point x="270" y="355" type="curve" smooth="yes"/>
      <point x="198" y="378"/>
      <point x="180" y="389"/>
      <point x="180" y="405" type="curve" smooth="yes"/>
      <point x="180" y="422"/>
      <point x="194" y="426"/>
      <point x="221" y="426" type="curve" smooth="yes"/>
      <point x="454" y="426" type="line"/>
      <point x="454" y="552" type="line"/>
      <point x="263" y="552" type="line" smooth="yes"/>
      <point x="164" y="552"/>
      <point x="123" y="539"/>
      <point x="88" y="515" type="curve" smooth="yes"/>
      <point x="55" y="492"/>
      <point x="36" y="457"/>
      <point x="36" y="413" type="curve" smooth="yes"/>
      <point x="36" y="340"/>
      <point x="69" y="295"/>
      <point x="217" y="240" type="curve" smooth="yes"/>
      <point x="317" y="203"/>
      <point x="333" y="190"/>
      <point x="333" y="155" type="curve" smooth="yes"/>
      <point x="333" y="129"/>
      <point x="310" y="115"/>
      <point x="265" y="115" type="curve" smooth="yes"/>
      <point x="204" y="115"/>
      <point x="167" y="144"/>
      <point x="158" y="209" type="curve"/>
      <point x="15" y="192" type="line"/>
      <point x="40" y="64"/>
      <point x="117" y="-12"/>
    </contour>
  </outline>
</glyph>
<glyph name="aavowelsignknda" format="2">
  <advance width="506"/>
  <unicode hex="0CBE"/>
  <outline>
    <contour>
      <point x="470" y="247" type="curve" smooth="yes"/>
      <point x="470" y="343"/>
      <point x="445" y="415"/>
      <point x="391" y="467" type="curve" smooth="yes"/>
      <point x="333" y="523"/>
      <point x="257" y="552"/>
      <point x="103" y="552" type="curve" smooth="yes"/>
      <point x="-250" y="552" type="line"/>
      <point x="-250" y="426" type="line"/>
      <point x="76" y="426" type="line" smooth="yes"/>
      <point x="194" y="426"/>
      <point x="237" y="410"/>
      <point x="274" y="379" type="curve" smooth="yes"/>
      <point x="308" y="351"/>
      <point x="326" y="307"/>
      <point x="326" y="247" type="curve" smooth="yes"/>
      <point x="326" y="159"/>
      <point x="285" y="107"/>
      <point x="208" y="107" type="curve" smooth="yes"/>
      <point x="146" y="107"/>
      <point x="125" y="146"/>
      <point x="125" y="180" type="curve" smooth="yes"/>
      <point x="125" y="189"/>
      <point x="126" y="200"/>
      <point x="128" y="206" type="curve"/>
      <point x="115" y="197" type="line"/>
      <point x="126" y="168"/>
      <point x="156" y="159"/>
      <point x="180" y="159" type="curve" smooth="yes"/>
      <point x="221" y="159"/>
      <point x="245" y="187"/>
      <point x="245" y="230" type="curve" smooth="yes"/>
      <point x="245" y="276"/>
      <point x="213" y="310"/>
      <point x="147" y="310" type="curve" smooth="yes"/>
      <point x="66" y="310"/>
      <point x="16" y="250"/>
      <point x="16" y="167" type="curve" smooth="yes"/>
      <point x="16" y="57"/>
      <point x="90" y="-12"/>
      <point x="225" y="-12" type="curve" smooth="yes"/>
      <point x="374" y="-12"/>
      <point x="470" y="83"/>
    </contour>
  </outline>
</glyph>
<glyph name="ivowelsignknda" format="2">
  <advance width="379"/>
  <unicode hex="0CBF"/>
  <outline>
    <contour>
      <point x="135" y="291" type="curve" smooth="yes"/>
      <point x="271" y="291"/>
      <point x="360" y="352"/>
      <point x="360" y="508" type="curve" smooth="yes"/>
      <point x="360" y="634"/>
      <point x="277" y="729"/>
      <point x="143" y="729" type="curve" smooth="yes"/>
      <point x="37" y="729"/>
      <point x="-30" y="675"/>
      <point x="-30" y="596" type="curve" smooth="yes"/>
      <point x="-30" y="519"/>
      <point x="30" y="471"/>
      <point x="131" y="471" type="curve" smooth="yes"/>
      <point x="208" y="471"/>
      <point x="251" y="506"/>
      <point x="292" y="548" type="curve"/>
      <point x="252" y="634" type="line"/>
      <point x="226" y="589"/>
      <point x="193" y="562"/>
      <point x="146" y="562" type="curve" smooth="yes"/>
      <point x="121" y="562"/>
      <point x="93" y="571"/>
      <point x="93" y="600" type="curve" smooth="yes"/>
      <point x="93" y="626"/>
      <point x="118" y="638"/>
      <point x="145" y="638" type="curve" smooth="yes"/>
      <point x="200" y="638"/>
      <point x="238" y="582"/>
      <point x="238" y="512" type="curve" smooth="yes"/>
      <point x="238" y="507" type="line" smooth="yes"/>
      <point x="238" y="417"/>
      <point x="191" y="399"/>
      <point x="125" y="399" type="curve" smooth="yes"/>
      <point x="42" y="399"/>
      <point x="-16" y="441"/>
      <point x="-76" y="520" type="curve"/>
      <point x="-144" y="458" type="line"/>
      <point x="-77" y="359"/>
      <point x="1" y="291"/>
    </contour>
  </outline>
</glyph>
<glyph name="uvowelsignknda" format="2">
  <advance width="362"/>
  <unicode hex="0CC1"/>
  <outline>
    <contour>
      <point x="90" y="-12" type="curve" smooth="yes"/>
      <point x="250" y="-12"/>
      <point x="328" y="84"/>
      <point x="328" y="230" type="curve" smooth="yes"/>
      <point x="328" y="390"/>
      <point x="227" y="501"/>
      <point x="92" y="565" type="curve"/>
      <point x="16" y="442" type="line"/>
      <point x="111" y="398"/>
      <point x="182" y="335"/>
      <point x="182" y="232" type="curve" smooth="yes"/>
      <point x="182" y="159"/>
      <point x="140" y="115"/>
      <point x="66" y="115" type="curve" smooth="yes"/>
      <point x="-2" y="115"/>
      <point x="-48" y="154"/>
      <point x="-90" y="216" type="curve"/>
      <point x="-174" y="124" type="line"/>
      <point x="-95" y="40"/>
      <point x="-19" y="-12"/>
    </contour>
  </outline>
</glyph>
<glyph name="uuvowelsignknda" format="2">
  <advance width="826"/>
  <unicode hex="0CC2"/>
  <outline>
    <contour>
      <point x="94" y="-12" type="curve" smooth="yes"/>
      <point x="203" y="-12"/>
      <point x="288" y="33"/>
      <point x="288" y="156" type="curve" smooth="yes"/>
      <point x="288" y="215"/>
      <point x="284" y="247"/>
      <point x="284" y="294" type="curve" smooth="yes"/>
      <point x="284" y="398"/>
      <point x="354" y="438"/>
      <point x="448" y="438" type="curve" smooth="yes"/>
      <point x="582" y="438"/>
      <point x="648" y="351"/>
      <point x="648" y="247" type="curve" smooth="yes"/>
      <point x="648" y="157"/>
      <point x="605" y="107"/>
      <point x="532" y="107" type="curve" smooth="yes"/>
      <point x="469" y="107"/>
      <point x="448" y="146"/>
      <point x="448" y="180" type="curve" smooth="yes"/>
      <point x="448" y="189"/>
      <point x="449" y="200"/>
      <point x="451" y="206" type="curve"/>
      <point x="438" y="197" type="line"/>
      <point x="449" y="168"/>
      <point x="479" y="159"/>
      <point x="503" y="159" type="curve" smooth="yes"/>
      <point x="544" y="159"/>
      <point x="568" y="187"/>
      <point x="568" y="230" type="curve" smooth="yes"/>
      <point x="568" y="276"/>
      <point x="536" y="310"/>
      <point x="470" y="310" type="curve" smooth="yes"/>
      <point x="389" y="310"/>
      <point x="339" y="250"/>
      <point x="339" y="167" type="curve" smooth="yes"/>
      <point x="339" y="57"/>
      <point x="413" y="-12"/>
      <point x="548" y="-12" type="curve" smooth="yes"/>
      <point x="697" y="-12"/>
      <point x="792" y="83"/>
      <point x="792" y="247" type="curve" smooth="yes"/>
      <point x="792" y="413"/>
      <point x="684" y="563"/>
      <point x="445" y="563" type="curve" smooth="yes"/>
      <point x="260" y="563"/>
      <point x="138" y="473"/>
      <point x="138" y="317" type="curve" smooth="yes"/>
      <point x="138" y="273"/>
      <point x="144" y="240"/>
      <point x="144" y="183" type="curve" smooth="yes"/>
      <point x="144" y="139"/>
      <point x="120" y="115"/>
      <point x="68" y="115" type="curve" smooth="yes"/>
      <point x="4" y="115"/>
      <point x="-39" y="149"/>
      <point x="-89" y="217" type="curve"/>
      <point x="-174" y="124" type="line"/>
      <point x="-93" y="38"/>
      <point x="-20" y="-12"/>
    </contour>
  </outline>
</glyph>
<glyph name="rvocalicvowelsignknda" format="2">
  <advance width="141"/>
  <unicode hex="0CC3"/>
  <outline>
    <contour>
      <point x="-101" y="-422" type="curve" smooth="yes"/>
      <point x="73" y="-422"/>
      <point x="166" y="-332"/>
      <point x="166" y="-153" type="curve" smooth="yes"/>
      <point x="166" y="-71"/>
      <point x="140" y="7"/>
      <point x="95" y="79" type="curve"/>
      <point x="7" y="39" type="line"/>
      <point x="42" y="-17"/>
      <point x="65" y="-87"/>
      <point x="65" y="-158" type="curve" smooth="yes"/>
      <point x="65" y="-300"/>
      <point x="-16" y="-333"/>
      <point x="-101" y="-333" type="curve" smooth="yes"/>
      <point x="-191" y="-333"/>
      <point x="-231" y="-287"/>
      <point x="-231" y="-230" type="curve" smooth="yes"/>
      <point x="-231" y="-223" type="line" smooth="yes"/>
      <point x="-231" y="-159"/>
      <point x="-199" y="-132"/>
      <point x="-164" y="-132" type="curve" smooth="yes"/>
      <point x="-138" y="-132"/>
      <point x="-125" y="-146"/>
      <point x="-125" y="-167" type="curve" smooth="yes"/>
      <point x="-125" y="-195"/>
      <point x="-147" y="-204"/>
      <point x="-181" y="-204" type="curve" smooth="yes"/>
      <point x="-207" y="-204"/>
      <point x="-235" y="-197"/>
      <point x="-256" y="-182" type="curve"/>
      <point x="-261" y="-258" type="line"/>
      <point x="-241" y="-270"/>
      <point x="-195" y="-281"/>
      <point x="-167" y="-281" type="curve" smooth="yes"/>
      <point x="-79" y="-281"/>
      <point x="-30" y="-249"/>
      <point x="-30" y="-168" type="curve" smooth="yes"/>
      <point x="-30" y="-111"/>
      <point x="-65" y="-53"/>
      <point x="-156" y="-53" type="curve" smooth="yes"/>
      <point x="-257" y="-53"/>
      <point x="-322" y="-124"/>
      <point x="-322" y="-226" type="curve" smooth="yes"/>
      <point x="-322" y="-337"/>
      <point x="-242" y="-422"/>
    </contour>
  </outline>
</glyph>
<glyph name="rrvocalicvowelsignknda" format="2">
  <advance width="514"/>
  <unicode hex="0CC4"/>
  <outline>
    <contour>
      <point x="-101" y="-422" type="curve" smooth="yes"/>
      <point x="73" y="-422"/>
      <point x="166" y="-332"/>
      <point x="166" y="-153" type="curve" smooth="yes"/>
      <point x="166" y="-103"/>
      <point x="156" y="-54"/>
      <point x="138" y="-7" type="curve"/>
      <point x="65" y="79" type="line"/>
      <point x="18" y="21" type="line"/>
      <point x="47" y="-32"/>
      <point x="65" y="-95"/>
      <point x="65" y="-158" type="curve" smooth="yes"/>
      <point x="65" y="-300"/>
      <point x="-16" y="-333"/>
      <point x="-101" y="-333" type="curve" smooth="yes"/>
      <point x="-191" y="-333"/>
      <point x="-231" y="-287"/>
      <point x="-231" y="-230" type="curve" smooth="yes"/>
      <point x="-231" y="-223" type="line" smooth="yes"/>
      <point x="-231" y="-159"/>
      <point x="-199" y="-132"/>
      <point x="-164" y="-132" type="curve" smooth="yes"/>
      <point x="-138" y="-132"/>
      <point x="-125" y="-146"/>
      <point x="-125" y="-167" type="curve" smooth="yes"/>
      <point x="-125" y="-195"/>
      <point x="-147" y="-204"/>
      <point x="-181" y="-204" type="curve" smooth="yes"/>
      <point x="-207" y="-204"/>
      <point x="-235" y="-197"/>
      <point x="-256" y="-182" type="curve"/>
      <point x="-261" y="-258" type="line"/>
      <point x="-241" y="-270"/>
      <point x="-195" y="-281"/>
      <point x="-167" y="-281" type="curve" smooth="yes"/>
      <point x="-79" y="-281"/>
      <point x="-30" y="-249"/>
      <point x="-30" y="-168" type="curve" smooth="yes"/>
      <point x="-30" y="-111"/>
      <point x="-65" y="-53"/>
      <point x="-156" y="-53" type="curve" smooth="yes"/>
      <point x="-257" y="-53"/>
      <point x="-322" y="-124"/>
      <point x="-322" y="-226" type="curve" smooth="yes"/>
      <point x="-322" y="-337"/>
      <point x="-242" y="-422"/>
    </contour>
    <contour>
      <point x="367" y="-355" type="curve" smooth="yes"/>
      <point x="475" y="-355"/>
      <point x="553" y="-280"/>
      <point x="553" y="-157" type="curve" smooth="yes"/>
      <point x="553" y="-81"/>
      <point x="533" y="-25"/>
      <point x="491" y="15" type="curve" smooth="yes"/>
      <point x="445" y="58"/>
      <point x="389" y="79"/>
      <point x="262" y="79" type="curve" smooth="yes"/>
      <point x="65" y="79" type="line"/>
      <point x="100" y="-11" type="line"/>
      <point x="246" y="-11" type="line" smooth="yes"/>
      <point x="335" y="-11"/>
      <point x="378" y="-24"/>
      <point x="409" y="-50" type="curve" smooth="yes"/>
      <point x="437" y="-73"/>
      <point x="452" y="-107"/>
      <point x="452" y="-156" type="curve" smooth="yes"/>
      <point x="452" y="-227"/>
      <point x="419" y="-268"/>
      <point x="358" y="-268" type="curve" smooth="yes"/>
      <point x="308" y="-268"/>
      <point x="291" y="-235"/>
      <point x="291" y="-207" type="curve" smooth="yes"/>
      <point x="291" y="-198"/>
      <point x="292" y="-190"/>
      <point x="293" y="-186" type="curve"/>
      <point x="283" y="-192" type="line"/>
      <point x="292" y="-216"/>
      <point x="315" y="-223"/>
      <point x="334" y="-223" type="curve" smooth="yes"/>
      <point x="365" y="-223"/>
      <point x="384" y="-200"/>
      <point x="384" y="-167" type="curve" smooth="yes"/>
      <point x="384" y="-130"/>
      <point x="359" y="-105"/>
      <point x="308" y="-105" type="curve" smooth="yes"/>
      <point x="249" y="-105"/>
      <point x="205" y="-152"/>
      <point x="205" y="-212" type="curve" smooth="yes"/>
      <point x="205" y="-300"/>
      <point x="266" y="-355"/>
    </contour>
  </outline>
</glyph>
<glyph name="evowelsignknda" format="2">
  <unicode hex="0CC6"/>
  <outline>
    <contour>
      <point x="-509" y="426" type="line"/>
      <point x="-300" y="426" type="line" smooth="yes"/>
      <point x="-170" y="426"/>
      <point x="-115" y="454"/>
      <point x="-87" y="479" type="curve" smooth="yes"/>
      <point x="-50" y="513"/>
      <point x="-30" y="557"/>
      <point x="-30" y="618" type="curve" smooth="yes"/>
      <point x="-30" y="727"/>
      <point x="-101" y="809"/>
      <point x="-230" y="809" type="curve" smooth="yes"/>
      <point x="-350" y="809"/>
      <point x="-412" y="742"/>
      <point x="-412" y="672" type="curve" smooth="yes"/>
      <point x="-412" y="617"/>
      <point x="-381" y="582"/>
      <point x="-326" y="582" type="curve" smooth="yes"/>
      <point x="-276" y="582"/>
      <point x="-251" y="605"/>
      <point x="-251" y="641" type="curve" smooth="yes"/>
      <point x="-251" y="674"/>
      <point x="-278" y="697"/>
      <point x="-310" y="697" type="curve" smooth="yes"/>
      <point x="-322" y="697"/>
      <point x="-338" y="693"/>
      <point x="-349" y="678" type="curve"/>
      <point x="-315" y="624" type="line"/>
      <point x="-317" y="635"/>
      <point x="-317" y="642"/>
      <point x="-317" y="647" type="curve" smooth="yes"/>
      <point x="-317" y="687"/>
      <point x="-282" y="709"/>
      <point x="-239" y="709" type="curve" smooth="yes"/>
      <point x="-192" y="709"/>
      <point x="-167" y="677"/>
      <point x="-167" y="639" type="curve" smooth="yes"/>
      <point x="-167" y="616"/>
      <point x="-172" y="596"/>
      <point x="-188" y="580" type="curve" smooth="yes"/>
      <point x="-207" y="563"/>
      <point x="-237" y="552"/>
      <point x="-318" y="552" type="curve" smooth="yes"/>
      <point x="-509" y="552" type="line"/>
    </contour>
  </outline>
</glyph>
<glyph name="auvowelsignknda" format="2">
  <advance width="497"/>
  <unicode hex="0CCC"/>
  <outline>
    <contour>
      <point x="25" y="572" type="curve" smooth="yes"/>
      <point x="25" y="612"/>
      <point x="9" y="660"/>
      <point x="-10" y="688" type="curve"/>
      <point x="-148" y="678" type="line"/>
      <point x="-124" y="653"/>
      <point x="-112" y="624"/>
      <point x="-112" y="601" type="curve" smooth="yes"/>
      <point x="-112" y="584"/>
      <point x="-118" y="573"/>
      <point x="-126" y="566" type="curve" smooth="yes"/>
      <point x="-141" y="553"/>
      <point x="-164" y="552"/>
      <point x="-194" y="552" type="curve" smooth="yes"/>
      <point x="-244" y="552" type="line"/>
      <point x="-244" y="426" type="line"/>
      <point x="-167" y="426" type="line" smooth="yes"/>
      <point x="-95" y="426"/>
      <point x="-53" y="438"/>
      <point x="-17" y="469" type="curve" smooth="yes"/>
      <point x="11" y="492"/>
      <point x="25" y="527"/>
    </contour>
    <contour>
      <point x="472" y="477" type="curve" smooth="yes"/>
      <point x="472" y="576"/>
      <point x="445" y="647"/>
      <point x="392" y="698" type="curve" smooth="yes"/>
      <point x="333" y="755"/>
      <point x="264" y="782"/>
      <point x="97" y="782" type="curve" smooth="yes"/>
      <point x="-305" y="782" type="line"/>
      <point x="-305" y="656" type="line"/>
      <point x="78" y="656" type="line" smooth="yes"/>
      <point x="196" y="656"/>
      <point x="239" y="641"/>
      <point x="276" y="609" type="curve" smooth="yes"/>
      <point x="310" y="581"/>
      <point x="327" y="538"/>
      <point x="327" y="477" type="curve" smooth="yes"/>
      <point x="327" y="389"/>
      <point x="286" y="338"/>
      <point x="210" y="338" type="curve" smooth="yes"/>
      <point x="148" y="338"/>
      <point x="126" y="377"/>
      <point x="126" y="411" type="curve" smooth="yes"/>
      <point x="126" y="420"/>
      <point x="128" y="431"/>
      <point x="130" y="436" type="curve"/>
      <point x="116" y="427" type="line"/>
      <point x="128" y="398"/>
      <point x="157" y="390"/>
      <point x="182" y="390" type="curve" smooth="yes"/>
      <point x="222" y="390"/>
      <point x="247" y="417"/>
      <point x="247" y="461" type="curve" smooth="yes"/>
      <point x="247" y="506"/>
      <point x="214" y="540"/>
      <point x="148" y="540" type="curve" smooth="yes"/>
      <point x="68" y="540"/>
      <point x="17" y="480"/>
      <point x="17" y="397" type="curve" smooth="yes"/>
      <point x="17" y="287"/>
      <point x="92" y="219"/>
      <point x="226" y="219" type="curve" smooth="yes"/>
      <point x="375" y="219"/>
      <point x="472" y="313"/>
    </contour>
  </outline>
</glyph>
<glyph name="viramaknda" format="2">
  <advance width="364"/>
  <unicode hex="0CCD"/>
  <outline>
    <contour>
      <point x="183" y="244" type="curve" smooth="yes"/>
      <point x="277" y="244"/>
      <point x="345" y="293"/>
      <point x="345" y="390" type="curve" smooth="yes"/>
      <point x="345" y="439"/>
      <point x="329" y="476"/>
      <point x="298" y="504" type="curve" smooth="yes"/>
      <point x="257" y="541"/>
      <point x="204" y="552"/>
      <point x="132" y="552" type="curve" smooth="yes"/>
      <point x="-175" y="552" type="line"/>
      <point x="-175" y="426" type="line"/>
      <point x="144" y="426" type="line" smooth="yes"/>
      <point x="175" y="426"/>
      <point x="192" y="422"/>
      <point x="204" y="414" type="curve" smooth="yes"/>
      <point x="214" y="408"/>
      <point x="221" y="396"/>
      <point x="221" y="382" type="curve" smooth="yes"/>
      <point x="221" y="355"/>
      <point x="202" y="344"/>
      <point x="180" y="344" type="curve" smooth="yes"/>
      <point x="136" y="344"/>
      <point x="120" y="378"/>
      <point x="120" y="425" type="curve" smooth="yes"/>
      <point x="120" y="464" type="line" smooth="yes"/>
      <point x="120" y="574"/>
      <point x="175" y="604"/>
      <point x="232" y="604" type="curve" smooth="yes"/>
      <point x="267" y="604"/>
      <point x="290" y="597"/>
      <point x="314" y="586" type="curve"/>
      <point x="376" y="679" type="line"/>
      <point x="343" y="696"/>
      <point x="297" y="709"/>
      <point x="230" y="709" type="curve" smooth="yes"/>
      <point x="91" y="709"/>
      <point x="-2" y="624"/>
      <point x="-2" y="459" type="curve" smooth="yes"/>
      <point x="-2" y="447" type="line" smooth="yes"/>
      <point x="-2" y="316"/>
      <point x="68" y="244"/>
    </contour>
  </outline>
</glyph>
<glyph name="lengthmarkknda" format="2">
  <advance width="479"/>
  <unicode hex="0CD5"/>
  <outline>
    <contour>
      <point x="455" y="399" type="curve" smooth="yes"/>
      <point x="455" y="495"/>
      <point x="390" y="563"/>
      <point x="272" y="563" type="curve" smooth="yes"/>
      <point x="127" y="563"/>
      <point x="31" y="470"/>
      <point x="31" y="313" type="curve" smooth="yes"/>
      <point x="31" y="162"/>
      <point x="121" y="57"/>
      <point x="258" y="-12" type="curve"/>
      <point x="333" y="111" type="line"/>
      <point x="251" y="149"/>
      <point x="172" y="202"/>
      <point x="172" y="321" type="curve" smooth="yes"/>
      <point x="172" y="332" type="line" smooth="yes"/>
      <point x="172" y="415"/>
      <point x="213" y="456"/>
      <point x="268" y="456" type="curve" smooth="yes"/>
      <point x="296" y="456"/>
      <point x="317" y="438"/>
      <point x="317" y="406" type="curve" smooth="yes"/>
      <point x="317" y="372"/>
      <point x="288" y="347"/>
      <point x="227" y="347" type="curve" smooth="yes"/>
      <point x="172" y="347"/>
      <point x="140" y="381"/>
      <point x="119" y="416" type="curve"/>
      <point x="94" y="313" type="line"/>
      <point x="125" y="280"/>
      <point x="179" y="240"/>
      <point x="269" y="240" type="curve" smooth="yes"/>
      <point x="387" y="240"/>
      <point x="455" y="301"/>
    </contour>
  </outline>
</glyph>
<glyph name="ailengthmarkknda" format="2">
  <advance width="187"/>
  <unicode hex="0CD6"/>
  <outline>
    <contour>
      <point x="-94" y="-422" type="curve" smooth="yes"/>
      <point x="80" y="-422"/>
      <point x="175" y="-339"/>
      <point x="175" y="-198" type="curve" smooth="yes"/>
      <point x="175" y="-124"/>
      <point x="150" y="-61"/>
      <point x="112" y="-19" type="curve"/>
      <point x="123" y="-47" type="line"/>
      <point x="145" y="-30"/>
      <point x="169" y="5"/>
      <point x="169" y="57" type="curve" smooth="yes"/>
      <point x="169" y="115"/>
      <point x="143" y="158"/>
      <point x="79" y="212" type="curve"/>
      <point x="7" y="141" type="line"/>
      <point x="47" y="110"/>
      <point x="65" y="80"/>
      <point x="65" y="49" type="curve" smooth="yes"/>
      <point x="65" y="16"/>
      <point x="42" y="-12"/>
      <point x="7" y="-39" type="curve"/>
      <point x="48" y="-79"/>
      <point x="74" y="-132"/>
      <point x="74" y="-193" type="curve" smooth="yes"/>
      <point x="74" y="-298"/>
      <point x="-8" y="-333"/>
      <point x="-94" y="-333" type="curve" smooth="yes"/>
      <point x="-193" y="-333"/>
      <point x="-231" y="-287"/>
      <point x="-231" y="-233" type="curve" smooth="yes"/>
      <point x="-231" y="-223" type="line" smooth="yes"/>
      <point x="-231" y="-159"/>
      <point x="-199" y="-132"/>
      <point x="-164" y="-132" type="curve" smooth="yes"/>
      <point x="-138" y="-132"/>
      <point x="-125" y="-146"/>
      <point x="-125" y="-167" type="curve" smooth="yes"/>
      <point x="-125" y="-195"/>
      <point x="-147" y="-204"/>
      <point x="-181" y="-204" type="curve" smooth="yes"/>
      <point x="-207" y="-204"/>
      <point x="-235" y="-197"/>
      <point x="-256" y="-182" type="curve"/>
      <point x="-261" y="-258" type="line"/>
      <point x="-241" y="-270"/>
      <point x="-195" y="-281"/>
      <point x="-167" y="-281" type="curve" smooth="yes"/>
      <point x="-79" y="-281"/>
      <point x="-30" y="-249"/>
      <point x="-30" y="-168" type="curve" smooth="yes"/>
      <point x="-30" y="-111"/>
      <point x="-65" y="-53"/>
      <point x="-156" y="-53" type="curve" smooth="yes"/>
      <point x="-257" y="-53"/>
      <point x="-322" y="-124"/>
      <point x="-322" y="-226" type="curve" smooth="yes"/>
      <point x="-322" y="-337"/>
      <point x="-242" y="-422"/>
    </contour>
  </outline>
</glyph>
<glyph name="faknda" format="2">
  <advance width="958"/>
  <unicode hex="0CDE"/>
  <outline>
    <contour>
      <point x="272" y="-12" type="curve" smooth="yes"/>
      <point x="366" y="-12"/>
      <point x="447" y="18"/>
      <point x="511" y="108" type="curve"/>
      <point x="448" y="109" type="line"/>
      <point x="509" y="18"/>
      <point x="592" y="-12"/>
      <point x="686" y="-12" type="curve" smooth="yes"/>
      <point x="839" y="-12"/>
      <point x="923" y="107"/>
      <point x="923" y="267" type="curve" smooth="yes"/>
      <point x="923" y="468"/>
      <point x="813" y="563"/>
      <point x="669" y="563" type="curve" smooth="yes"/>
      <point x="562" y="563"/>
      <point x="498" y="495"/>
      <point x="498" y="399" type="curve" smooth="yes"/>
      <point x="498" y="301"/>
      <point x="563" y="242"/>
      <point x="684" y="242" type="curve" smooth="yes"/>
      <point x="764" y="242"/>
      <point x="826" y="271"/>
      <point x="858" y="306" type="curve"/>
      <point x="822" y="416" type="line"/>
      <point x="806" y="390"/>
      <point x="771" y="347"/>
      <point x="710" y="347" type="curve" smooth="yes"/>
      <point x="652" y="347"/>
      <point x="625" y="372"/>
      <point x="625" y="406" type="curve" smooth="yes"/>
      <point x="625" y="438"/>
      <point x="645" y="456"/>
      <point x="674" y="456" type="curve" smooth="yes"/>
      <point x="733" y="456"/>
      <point x="781" y="401"/>
      <point x="781" y="266" type="curve" smooth="yes"/>
      <point x="781" y="193"/>
      <point x="763" y="115"/>
      <point x="667" y="115" type="curve" smooth="yes"/>
      <point x="585" y="115"/>
      <point x="556" y="160"/>
      <point x="544" y="220" type="curve"/>
      <point x="413" y="220" type="line"/>
      <point x="402" y="160"/>
      <point x="372" y="115"/>
      <point x="290" y="115" type="curve" smooth="yes"/>
      <point x="195" y="115"/>
      <point x="176" y="193"/>
      <point x="176" y="266" type="curve" smooth="yes"/>
      <point x="176" y="401"/>
      <point x="225" y="456"/>
      <point x="284" y="456" type="curve" smooth="yes"/>
      <point x="313" y="456"/>
      <point x="333" y="438"/>
      <point x="333" y="406" type="curve" smooth="yes"/>
      <point x="333" y="372"/>
      <point x="305" y="347"/>
      <point x="248" y="347" type="curve" smooth="yes"/>
      <point x="186" y="347"/>
      <point x="151" y="390"/>
      <point x="135" y="416" type="curve"/>
      <point x="100" y="306" type="line"/>
      <point x="132" y="271"/>
      <point x="194" y="242"/>
      <point x="273" y="242" type="curve" smooth="yes"/>
      <point x="395" y="242"/>
      <point x="459" y="301"/>
      <point x="459" y="399" type="curve" smooth="yes"/>
      <point x="459" y="495"/>
      <point x="396" y="563"/>
      <point x="288" y="563" type="curve" smooth="yes"/>
      <point x="145" y="563"/>
      <point x="35" y="467"/>
      <point x="35" y="267" type="curve" smooth="yes"/>
      <point x="35" y="107"/>
      <point x="118" y="-12"/>
    </contour>
  </outline>
</glyph>
